<?xml version="1.0" encoding="UTF-8" standalone="no"?>
<svg
   xmlns:dc="http://purl.org/dc/elements/1.1/"
   xmlns:cc="http://creativecommons.org/ns#"
   xmlns:rdf="http://www.w3.org/1999/02/22-rdf-syntax-ns#"
   xmlns:svg="http://www.w3.org/2000/svg"
   xmlns="http://www.w3.org/2000/svg"
   xmlns:sodipodi="http://sodipodi.sourceforge.net/DTD/sodipodi-0.dtd"
   xmlns:inkscape="http://www.inkscape.org/namespaces/inkscape"
   inkscape:version="1.0beta2 (2b71d25, 2019-12-03)"
   sodipodi:docname="perchicrea.png.svg"
   viewBox="0 0 4167 4167"
   height="4167"
   width="4167"
   id="svg885"
   version="1.1">
  <metadata
     id="metadata891">
    <rdf:RDF>
      <cc:Work
         rdf:about="">
        <dc:format>image/svg+xml</dc:format>
        <dc:type
           rdf:resource="http://purl.org/dc/dcmitype/StillImage" />
        <dc:title></dc:title>
      </cc:Work>
    </rdf:RDF>
  </metadata>
  <defs
     id="defs889" />
  <sodipodi:namedview
     inkscape:current-layer="g897"
     inkscape:window-maximized="0"
     inkscape:window-y="25"
     inkscape:window-x="0"
     inkscape:cy="1557.1936"
     inkscape:cx="1661.9507"
     inkscape:zoom="0.09053548"
     fit-margin-bottom="0"
     fit-margin-right="0"
     fit-margin-left="0"
     fit-margin-top="0"
     showgrid="false"
     id="namedview887"
     inkscape:window-height="722"
     inkscape:window-width="1138"
     inkscape:pageshadow="2"
     inkscape:pageopacity="0"
     guidetolerance="10"
     gridtolerance="10"
     objecttolerance="10"
     borderopacity="1"
     inkscape:document-rotation="0"
     bordercolor="#666666"
     pagecolor="#ffffff" />
  <g
     transform="translate(695.85979,-4727.4285)"
     id="g893"
     inkscape:label="Image"
     inkscape:groupmode="layer">
    <g
       transform="translate(-695.85979,4727.4285)"
       id="g897">
      <path
         inkscape:connector-curvature="0"
         id="path911"
         d="m 810.8125,3009.3169 c 0.72187,-0.2889 1.58438,-0.2534 1.91667,0.079 0.33229,0.3323 -0.25834,0.5687 -1.3125,0.5253 -1.16495,-0.048 -1.4019,-0.285 -0.60417,-0.6042 z m 40.9375,0.021 c 0.6875,-0.2774 1.8125,-0.2774 2.5,0 0.6875,0.2774 0.125,0.5044 -1.25,0.5044 -1.375,0 -1.9375,-0.227 -1.25,-0.5044 z m -51.9375,-1.0208 c 0.72187,-0.2889 1.58438,-0.2534 1.91667,0.079 0.33229,0.3323 -0.25834,0.5687 -1.3125,0.5253 -1.16495,-0.048 -1.4019,-0.285 -0.60417,-0.6042 z m 997.0169,-7.0669 c 51.8812,-0.1431 136.4812,-0.1431 188,1e-4 51.5188,0.1431 9.0706,0.2603 -94.3294,0.2603 -103.4,-1e-4 -145.5518,-0.1172 -93.6706,-0.2604 z M 828.75,2912.2766 c 1.7875,-0.2218 4.7125,-0.2218 6.5,0 1.7875,0.2218 0.325,0.4033 -3.25,0.4033 -3.575,0 -5.0375,-0.1815 -3.25,-0.4033 z M 766.87244,2889.25 c -1.24387,-1.5861 -1.2085,-1.6214 0.37756,-0.3776 0.9625,0.7549 1.75,1.5424 1.75,1.75 0,0.8231 -0.82119,0.2933 -2.12756,-1.3724 z m -7,-7 c -1.24387,-1.5861 -1.2085,-1.6214 0.37756,-0.3776 1.66575,1.3064 2.19548,2.1276 1.37244,2.1276 -0.20765,0 -0.99515,-0.7875 -1.75,-1.75 z M 904,2882.6224 c 0,-0.2076 0.7875,-0.9951 1.75,-1.75 1.58606,-1.2438 1.62143,-1.2085 0.37756,0.3776 -1.30637,1.6657 -2.12756,2.1955 -2.12756,1.3724 z m -281.92105,-61.2057 c 0.048,-1.165 0.28494,-1.4019 0.60416,-0.6042 0.28887,0.7219 0.25335,1.5844 -0.0789,1.9167 -0.33229,0.3323 -0.56864,-0.2584 -0.52522,-1.3125 z m 308,-1 c 0.048,-1.165 0.28494,-1.4019 0.60416,-0.6042 0.28887,0.7219 0.25335,1.5844 -0.0789,1.9167 -0.33229,0.3323 -0.56864,-0.2584 -0.52522,-1.3125 z M 1043.1949,2816.5 c 0.02,-1.65 0.2445,-2.2039 0.4981,-1.231 0.2535,0.973 0.2369,2.323 -0.037,3 -0.2739,0.6771 -0.4813,-0.119 -0.461,-1.769 z m -308.7037,-225 c 10e-6,-122.1 0.11645,-171.9015 0.25877,-110.67 0.14231,61.2315 0.1423,161.1315 -2e-5,222 -0.14233,60.8685 -0.25876,10.77 -0.25875,-111.33 z M 621.49077,2591 c 0,-116.325 0.11663,-163.9125 0.25918,-105.75 0.14255,58.1625 0.14255,153.3375 0,211.5 -0.14255,58.1625 -0.25918,10.575 -0.25918,-105.75 z m 418.38163,180.25 c -1.2438,-1.5861 -1.2085,-1.6214 0.3776,-0.3776 0.9625,0.7549 1.75,1.5424 1.75,1.75 0,0.8231 -0.8212,0.2933 -2.1276,-1.3724 z m -15.6034,-2.943 c 0.973,-0.2535 2.323,-0.2369 3,0.037 0.6771,0.2739 -0.119,0.4813 -1.769,0.461 -1.65,-0.02 -2.2039,-0.2445 -1.231,-0.4981 z m -19,-1 c 0.973,-0.2535 2.323,-0.2369 3,0.037 0.6771,0.2739 -0.119,0.4813 -1.769,0.461 -1.65,-0.02 -2.2039,-0.2445 -1.231,-0.4981 z m -18.99997,-1 c 0.97297,-0.2535 2.32297,-0.2369 3,0.037 0.67703,0.2739 -0.11903,0.4813 -1.76903,0.461 -1.65,-0.02 -2.20394,-0.2445 -1.23097,-0.4981 z m -19,-1 c 0.97297,-0.2535 2.32297,-0.2369 3,0.037 0.67703,0.2739 -0.11903,0.4813 -1.76903,0.461 -1.65,-0.02 -2.20394,-0.2445 -1.23097,-0.4981 z m -19,-1 c 0.97297,-0.2535 2.32297,-0.2369 3,0.037 0.67703,0.2739 -0.11903,0.4813 -1.76903,0.461 -1.65,-0.02 -2.20394,-0.2445 -1.23097,-0.4981 z M 2521.1579,2758 c 0,-1.375 0.227,-1.9375 0.5044,-1.25 0.2774,0.6875 0.2774,1.8125 0,2.5 -0.2774,0.6875 -0.5044,0.125 -0.5044,-1.25 z m 388,-53 c 0,-1.375 0.227,-1.9375 0.5044,-1.25 0.2774,0.6875 0.2774,1.8125 0,2.5 -0.2774,0.6875 -0.5044,0.125 -0.5044,-1.25 z m -1134.8296,-64.7499 c 39.5055,-0.1449 103.8555,-0.1448 143,0 39.1444,0.1449 6.8217,0.2634 -71.8283,0.2634 -78.65,0 -110.6773,-0.1186 -71.1717,-0.2634 z m -481.0113,-2.9992 c 11.4493,-0.1605 29.8993,-0.1603 41,5e-4 11.1006,0.1608 1.733,0.2922 -20.817,0.2919 -22.55,-2e-4 -31.6324,-0.1318 -20.183,-0.2924 z M 1515,2584.5 c 2.9874,-3.025 5.6567,-5.5 5.9317,-5.5 0.275,0 -1.9443,2.475 -4.9317,5.5 -2.9874,3.025 -5.6567,5.5 -5.9317,5.5 -0.275,0 1.9443,-2.475 4.9317,-5.5 z M 2939.4958,2109 c 0,-259.325 0.1144,-365.4125 0.2542,-235.75 0.1398,129.6625 0.1398,341.8375 0,471.5 -0.1398,129.6625 -0.2542,23.575 -0.2542,-235.75 z m -1567.6833,439.3169 c 0.7219,-0.2889 1.5844,-0.2534 1.9167,0.079 0.3323,0.3323 -0.2584,0.5687 -1.3125,0.5253 -1.165,-0.048 -1.4019,-0.285 -0.6042,-0.6042 z M 1428,2521.5 c 1.2917,-1.375 2.5736,-2.5 2.8486,-2.5 0.275,0 -0.5569,1.125 -1.8486,2.5 -1.2917,1.375 -2.5736,2.5 -2.8486,2.5 -0.275,0 0.5569,-1.125 1.8486,-2.5 z m 149.1579,-82.5 c 0,-1.375 0.227,-1.9375 0.5044,-1.25 0.2774,0.6875 0.2774,1.8125 0,2.5 -0.2774,0.6875 -0.5044,0.125 -0.5044,-1.25 z m -111.8085,-24 c 0,-4.675 0.1723,-6.5875 0.3828,-4.25 0.2105,2.3375 0.2105,6.1625 0,8.5 -0.2105,2.3375 -0.3828,0.425 -0.3828,-4.25 z m 112.9707,-1 c 0,-3.575 0.1815,-5.0375 0.4033,-3.25 0.2218,1.7875 0.2218,4.7125 0,6.5 -0.2218,1.7875 -0.4033,0.325 -0.4033,-3.25 z m -623.05107,4.307 c 0.97297,-0.2535 2.32297,-0.2369 3,0.037 0.67703,0.2739 -0.11903,0.4813 -1.76903,0.461 -1.65,-0.02 -2.20394,-0.2445 -1.23097,-0.4981 z m 19,-1 c 0.97297,-0.2535 2.32297,-0.2369 3,0.037 0.67703,0.2739 -0.11903,0.4813 -1.76903,0.461 -1.65,-0.02 -2.20394,-0.2445 -1.23097,-0.4981 z m 19,-1 c 0.97297,-0.2535 2.32297,-0.2369 3,0.037 0.67703,0.2739 -0.11903,0.4813 -1.76903,0.461 -1.65,-0.02 -2.20394,-0.2445 -1.23097,-0.4981 z m 18.99997,-1 c 0.973,-0.2535 2.323,-0.2369 3,0.037 0.6771,0.2739 -0.119,0.4813 -1.769,0.461 -1.65,-0.02 -2.2039,-0.2445 -1.231,-0.4981 z m 19,-1 c 0.973,-0.2535 2.323,-0.2369 3,0.037 0.6771,0.2739 -0.119,0.4813 -1.769,0.461 -1.65,-0.02 -2.2039,-0.2445 -1.231,-0.4981 z m 545.8099,-25.8903 c 0.048,-1.165 0.285,-1.4019 0.6042,-0.6042 0.2889,0.7219 0.2534,1.5844 -0.079,1.9167 -0.3323,0.3323 -0.5687,-0.2584 -0.5253,-1.3125 z m -1,-11 c 0.048,-1.165 0.285,-1.4019 0.6042,-0.6042 0.2889,0.7219 0.2534,1.5844 -0.079,1.9167 -0.3323,0.3323 -0.5687,-0.2584 -0.5253,-1.3125 z M 1043.1579,2366 c 0,-1.375 0.227,-1.9375 0.5044,-1.25 0.2774,0.6875 0.2774,1.8125 0,2.5 -0.2774,0.6875 -0.5044,0.125 -0.5044,-1.25 z m -113.07895,-3.5833 c 0.048,-1.165 0.28494,-1.4019 0.60416,-0.6042 0.28887,0.7219 0.25335,1.5844 -0.0789,1.9167 -0.33229,0.3323 -0.56864,-0.2584 -0.52522,-1.3125 z m -308,-2 c 0.048,-1.165 0.28494,-1.4019 0.60416,-0.6042 0.28887,0.7219 0.25335,1.5844 -0.0789,1.9167 -0.33229,0.3323 -0.56864,-0.2584 -0.52522,-1.3125 z m 419.99995,-7 c 0.048,-1.165 0.285,-1.4019 0.6042,-0.6042 0.2889,0.7219 0.2534,1.5844 -0.079,1.9167 -0.3323,0.3323 -0.5687,-0.2584 -0.5253,-1.3125 z m 327.7336,-74.0998 c 0.7219,-0.2889 1.5844,-0.2534 1.9167,0.079 0.3323,0.3323 -0.2584,0.5687 -1.3125,0.5253 -1.165,-0.048 -1.4019,-0.285 -0.6042,-0.6042 z m 425.858,-0.067 c 51.7938,-0.1432 136.8438,-0.1432 189,-10e-5 52.1562,0.1432 9.7795,0.2603 -94.1705,0.2603 -103.95,0 -146.6233,-0.1171 -94.8295,-0.2602 z m -976.858,-7.9332 c 0.72187,-0.2889 1.58438,-0.2534 1.91667,0.079 0.33229,0.3323 -0.25834,0.5687 -1.3125,0.5253 -1.16495,-0.048 -1.4019,-0.285 -0.60417,-0.6042 z M 1513,2235.5 c -2.429,-2.475 -4.1914,-4.5 -3.9164,-4.5 0.275,0 2.4874,2.025 4.9164,4.5 2.429,2.475 4.1914,4.5 3.9164,4.5 -0.275,0 -2.4874,-2.025 -4.9164,-4.5 z m -835,-4 c 2.98742,-3.025 5.65668,-5.5 5.93168,-5.5 0.275,0 -1.94426,2.475 -4.93168,5.5 -2.98742,3.025 -5.65668,5.5 -5.93168,5.5 -0.275,0 1.94426,-2.475 4.93168,-5.5 z m 1734.75,-49.2493 c 14.9875,-0.1556 39.5125,-0.1556 54.5,0 14.9875,0.1555 2.725,0.2828 -27.25,0.2828 -29.975,0 -42.2375,-0.1273 -27.25,-0.2828 z m -1027.9883,-0.958 c 1.2439,-0.2392 3.0439,-0.2301 4,0.02 0.956,0.2503 -0.062,0.446 -2.2617,0.4349 -2.2,-0.011 -2.9823,-0.2159 -1.7383,-0.4551 z m -581.9492,-6.9758 c 0.72187,-0.2889 1.58438,-0.2534 1.91667,0.079 0.33229,0.3323 -0.25834,0.5687 -1.3125,0.5253 -1.16495,-0.048 -1.4019,-0.285 -0.60417,-0.6042 z m 13.45653,-1.0099 c 0.97297,-0.2535 2.32297,-0.2369 3,0.037 0.67703,0.2739 -0.11903,0.4813 -1.76903,0.461 -1.65,-0.02 -2.20394,-0.2445 -1.23097,-0.4981 z m 30,0 c 0.97297,-0.2535 2.32297,-0.2369 3,0.037 0.67703,0.2739 -0.11903,0.4813 -1.76903,0.461 -1.65,-0.02 -2.20394,-0.2445 -1.23097,-0.4981 z M 2489.7679,2001.2753 c 1.7974,-0.2226 4.4974,-0.218 6,0.01 1.5027,0.2281 0.032,0.4102 -3.2679,0.4046 -3.3,-0.01 -4.5294,-0.1923 -2.7321,-0.4148 z m 972.9821,-0.024 c 12.7875,-0.1583 33.7125,-0.1583 46.5,0 12.7875,0.1583 2.325,0.2878 -23.25,0.2878 -25.575,0 -36.0375,-0.1295 -23.25,-0.2878 z m -994.9375,-0.934 c 0.7219,-0.2889 1.5844,-0.2534 1.9167,0.079 0.3323,0.3323 -0.2584,0.5687 -1.3125,0.5253 -1.165,-0.048 -1.4019,-0.285 -0.6042,-0.6042 z m 48,0 c 0.7219,-0.2889 1.5844,-0.2534 1.9167,0.079 0.3323,0.3323 -0.2584,0.5687 -1.3125,0.5253 -1.165,-0.048 -1.4019,-0.285 -0.6042,-0.6042 z m -740.7336,-17.9002 c 0.048,-1.165 0.285,-1.4019 0.6042,-0.6042 0.2889,0.7219 0.2534,1.5844 -0.079,1.9167 -0.3323,0.3323 -0.5687,-0.2584 -0.5253,-1.3125 z M 734.48872,1811.5 c 1e-5,-94.6 0.11756,-133.1519 0.26122,-85.6709 0.14366,47.481 0.14365,124.881 -3e-5,172 -0.14367,47.119 -0.26121,8.2709 -0.26119,-86.3291 z M 621.49506,1582 c 0,-219.725 0.11472,-309.6125 0.25493,-199.75 0.14021,109.8625 0.14021,289.6375 0,399.5 -0.14021,109.8625 -0.25493,19.975 -0.25493,-199.75 z m 1717.42924,361.25 -2.4243,-2.75 2.75,2.4243 c 2.5703,2.2659 3.2086,3.0757 2.4243,3.0757 -0.1791,0 -1.4166,-1.2375 -2.75,-2.75 z m 144.8257,-39.9123 c 0.6875,-0.2774 1.8125,-0.2774 2.5,0 0.6875,0.2774 0.125,0.5044 -1.25,0.5044 -1.375,0 -1.9375,-0.227 -1.25,-0.5044 z m 15,0 c 0.6875,-0.2774 1.8125,-0.2774 2.5,0 0.6875,0.2774 0.125,0.5044 -1.25,0.5044 -1.375,0 -1.9375,-0.227 -1.25,-0.5044 z m -1239.0795,-9.0876 c 51.7938,-0.1432 136.8438,-0.1432 189,-10e-5 52.1562,0.1432 9.7795,0.2603 -94.1705,0.2603 -103.95,0 -146.6233,-0.1171 -94.8295,-0.2602 z M 2427.8724,1881.25 c -1.2438,-1.5861 -1.2085,-1.6214 0.3776,-0.3776 0.9625,0.7549 1.75,1.5424 1.75,1.75 0,0.8231 -0.8212,0.2933 -2.1276,-1.3724 z M 2282.1579,1811 c 0,-1.375 0.227,-1.9375 0.5044,-1.25 0.2774,0.6875 0.2774,1.8125 0,2.5 -0.2774,0.6875 -0.5044,0.125 -0.5044,-1.25 z m 421,-1 c 0,-1.375 0.227,-1.9375 0.5044,-1.25 0.2774,0.6875 0.2774,1.8125 0,2.5 -0.2774,0.6875 -0.5044,0.125 -0.5044,-1.25 z M 2394.491,1583 c 0,-119.075 0.1165,-167.7875 0.259,-108.25 0.1424,59.5375 0.1424,156.9625 0,216.5 -0.1425,59.5375 -0.259,10.825 -0.259,-108.25 z m 285.778,176.307 c 0.973,-0.2535 2.323,-0.2369 3,0.037 0.6771,0.2739 -0.119,0.4813 -1.769,0.461 -1.65,-0.02 -2.2039,-0.2445 -1.231,-0.4981 z m -19,-1 c 0.973,-0.2535 2.323,-0.2369 3,0.037 0.6771,0.2739 -0.119,0.4813 -1.769,0.461 -1.65,-0.02 -2.2039,-0.2445 -1.231,-0.4981 z m -19,-1 c 0.973,-0.2535 2.323,-0.2369 3,0.037 0.6771,0.2739 -0.119,0.4813 -1.769,0.461 -1.65,-0.02 -2.2039,-0.2445 -1.231,-0.4981 z m -19,-1 c 0.973,-0.2535 2.323,-0.2369 3,0.037 0.6771,0.2739 -0.119,0.4813 -1.769,0.461 -1.65,-0.02 -2.2039,-0.2445 -1.231,-0.4981 z m -21.519,-1.0127 c 1.2375,-0.2384 3.2625,-0.2384 4.5,0 1.2375,0.2383 0.225,0.4333 -2.25,0.4333 -2.475,0 -3.4875,-0.195 -2.25,-0.4333 z m -1739,-118.9566 c 0.6875,-0.2774 1.8125,-0.2774 2.5,0 0.6875,0.2774 0.125,0.5044 -1.25,0.5044 -1.375,0 -1.9375,-0.227 -1.25,-0.5044 z M 3087.4552,1583 c 0,-21.725 0.1321,-30.6125 0.2936,-19.75 0.1614,10.8625 0.1614,28.6375 0,39.5 -0.1615,10.8625 -0.2936,1.975 -0.2936,-19.75 z m -2108.49699,2.75 c 4.14396,-4.4152 5.04179,-5.2091 5.04179,-4.4582 0,0.1605 -2.1375,2.298 -4.75,4.75 L 974.5,1590.5 Z M 2022,1575.5 c 2.9874,-3.025 5.6567,-5.5 5.9317,-5.5 0.275,0 -1.9443,2.475 -4.9317,5.5 -2.9874,3.025 -5.6567,5.5 -5.9317,5.5 -0.275,0 1.9443,-2.475 4.9317,-5.5 z M 734.48579,1408 c 0,-74.525 0.11884,-105.0125 0.26409,-67.75 0.14525,37.2625 0.14525,98.2375 0,135.5 -0.14525,37.2625 -0.26409,6.775 -0.26409,-67.75 z m 1067.33281,132.2508 c 12.8252,-0.1584 33.5252,-0.1582 46,3e-4 12.4748,0.1586 1.9814,0.2882 -23.3186,0.288 -25.3,-2e-4 -35.5066,-0.13 -22.6814,-0.2883 z m -564.4903,-7.0007 c 39.5055,-0.1449 103.8555,-0.1448 143,0 39.1444,0.1449 6.8217,0.2634 -71.8283,0.2634 -78.65,0 -110.6773,-0.1186 -71.1717,-0.2634 z M 2939.4889,1353.5 c 0,-96.25 0.1175,-135.4769 0.261,-87.1708 0.1436,48.306 0.1436,127.056 0,175 -0.1436,47.9439 -0.261,8.4208 -0.261,-87.8292 z M 1934.5,1513 c 0.9955,-1.1 2.035,-2 2.31,-2 0.275,0 -0.3145,0.9 -1.31,2 -0.9955,1.1 -2.035,2 -2.31,2 -0.275,0 0.3145,-0.9 1.31,-2 z m -892.4211,-71.5833 c 0.048,-1.165 0.285,-1.4019 0.6042,-0.6042 0.2889,0.7219 0.2534,1.5844 -0.079,1.9167 -0.3323,0.3323 -0.5687,-0.2584 -0.5253,-1.3125 z M 930.15789,1428 c 0,-1.375 0.22698,-1.9375 0.50439,-1.25 0.27741,0.6875 0.27741,1.8125 0,2.5 -0.27741,0.6875 -0.50439,0.125 -0.50439,-1.25 z m 113.00001,0 c 0,-1.375 0.227,-1.9375 0.5044,-1.25 0.2774,0.6875 0.2774,1.8125 0,2.5 -0.2774,0.6875 -0.5044,0.125 -0.5044,-1.25 z m 1041,-1 c 0,-1.375 0.227,-1.9375 0.5044,-1.25 0.2774,0.6875 0.2774,1.8125 0,2.5 -0.2774,0.6875 -0.5044,0.125 -0.5044,-1.25 z m -113.079,-1.5833 c 0.048,-1.165 0.285,-1.4019 0.6042,-0.6042 0.2889,0.7219 0.2534,1.5844 -0.079,1.9167 -0.3323,0.3323 -0.5687,-0.2584 -0.5253,-1.3125 z m 648.1901,-16.1097 c 0.973,-0.2535 2.323,-0.2369 3,0.037 0.6771,0.2739 -0.119,0.4813 -1.769,0.461 -1.65,-0.02 -2.2039,-0.2445 -1.231,-0.4981 z m -25.3966,-2.057 c -1.2438,-1.5861 -1.2085,-1.6214 0.3776,-0.3776 0.9625,0.7549 1.75,1.5424 1.75,1.75 0,0.8231 -0.8212,0.2933 -2.1276,-1.3724 z m 44.3966,1.057 c 0.973,-0.2535 2.323,-0.2369 3,0.037 0.6771,0.2739 -0.119,0.4813 -1.769,0.461 -1.65,-0.02 -2.2039,-0.2445 -1.231,-0.4981 z m 19,-1 c 0.973,-0.2535 2.323,-0.2369 3,0.037 0.6771,0.2739 -0.119,0.4813 -1.769,0.461 -1.65,-0.02 -2.2039,-0.2445 -1.231,-0.4981 z m 19,-1 c 0.973,-0.2535 2.323,-0.2369 3,0.037 0.6771,0.2739 -0.119,0.4813 -1.769,0.461 -1.65,-0.02 -2.2039,-0.2445 -1.231,-0.4981 z M 930.15789,1392 c 0,-1.375 0.22698,-1.9375 0.50439,-1.25 0.27741,0.6875 0.27741,1.8125 0,2.5 -0.27741,0.6875 -0.50439,0.125 -0.50439,-1.25 z m 113.00001,-5 c 0,-1.375 0.227,-1.9375 0.5044,-1.25 0.2774,0.6875 0.2774,1.8125 0,2.5 -0.2774,0.6875 -0.5044,0.125 -0.5044,-1.25 z m 927.921,-0.5833 c 0.048,-1.165 0.285,-1.4019 0.6042,-0.6042 0.2889,0.7219 0.2534,1.5844 -0.079,1.9167 -0.3323,0.3323 -0.5687,-0.2584 -0.5253,-1.3125 z M 2084.1579,1383 c 0,-1.375 0.227,-1.9375 0.5044,-1.25 0.2774,0.6875 0.2774,1.8125 0,2.5 -0.2774,0.6875 -0.5044,0.125 -0.5044,-1.25 z m -1042.079,-9.5833 c 0.048,-1.165 0.285,-1.4019 0.6042,-0.6042 0.2889,0.7219 0.2534,1.5844 -0.079,1.9167 -0.3323,0.3323 -0.5687,-0.2584 -0.5253,-1.3125 z M 2703.1579,1355 c 0,-1.375 0.227,-1.9375 0.5044,-1.25 0.2774,0.6875 0.2774,1.8125 0,2.5 -0.2774,0.6875 -0.5044,0.125 -0.5044,-1.25 z m -421.079,-1.5833 c 0.048,-1.165 0.285,-1.4019 0.6042,-0.6042 0.2889,0.7219 0.2534,1.5844 -0.079,1.9167 -0.3323,0.3323 -0.5687,-0.2584 -0.5253,-1.3125 z m 308,-1 c 0.048,-1.165 0.285,-1.4019 0.6042,-0.6042 0.2889,0.7219 0.2534,1.5844 -0.079,1.9167 -0.3323,0.3323 -0.5687,-0.2584 -0.5253,-1.3125 z m -195,-1 c 0.048,-1.165 0.285,-1.4019 0.6042,-0.6042 0.2889,0.7219 0.2534,1.5844 -0.079,1.9167 -0.3323,0.3323 -0.5687,-0.2584 -0.5253,-1.3125 z m -112,-9 c 0.048,-1.165 0.285,-1.4019 0.6042,-0.6042 0.2889,0.7219 0.2534,1.5844 -0.079,1.9167 -0.3323,0.3323 -0.5687,-0.2584 -0.5253,-1.3125 z M 895.87244,1301.25 c -1.24387,-1.5861 -1.2085,-1.6214 0.37756,-0.3776 1.66575,1.3064 2.19548,2.1276 1.37244,2.1276 -0.20765,0 -0.99515,-0.7875 -1.75,-1.75 z m 1041.99996,0 c -1.2438,-1.5861 -1.2085,-1.6214 0.3776,-0.3776 0.9625,0.7549 1.75,1.5424 1.75,1.75 0,0.8231 -0.8212,0.2933 -2.1276,-1.3724 z m -1049.99996,-8 c -1.24387,-1.5861 -1.2085,-1.6214 0.37756,-0.3776 1.66575,1.3064 2.19548,2.1276 1.37244,2.1276 -0.20765,0 -0.99515,-0.7875 -1.75,-1.75 z m 1041.99996,0 c -1.2438,-1.5861 -1.2085,-1.6214 0.3776,-0.3776 0.9625,0.7549 1.75,1.5424 1.75,1.75 0,0.8231 -0.8212,0.2933 -2.1276,-1.3724 z M 831.75,1270.3377 c 0.6875,-0.2774 1.8125,-0.2774 2.5,0 0.6875,0.2774 0.125,0.5044 -1.25,0.5044 -1.375,0 -1.9375,-0.227 -1.25,-0.5044 z m 1042.0625,-0.021 c 0.7219,-0.2889 1.5844,-0.2534 1.9167,0.079 0.3323,0.3323 -0.2584,0.5687 -1.3125,0.5253 -1.165,-0.048 -1.4019,-0.285 -0.6042,-0.6042 z m 607,-8 c 0.7219,-0.2889 1.5844,-0.2534 1.9167,0.079 0.3323,0.3323 -0.2584,0.5687 -1.3125,0.5253 -1.165,-0.048 -1.4019,-0.285 -0.6042,-0.6042 z m 21,0 c 0.7219,-0.2889 1.5844,-0.2534 1.9167,0.079 0.3323,0.3323 -0.2584,0.5687 -1.3125,0.5253 -1.165,-0.048 -1.4019,-0.285 -0.6042,-0.6042 z M 2027.8724,1235.25 c -1.2438,-1.5861 -1.2085,-1.6214 0.3776,-0.3776 0.9625,0.7549 1.75,1.5424 1.75,1.75 0,0.8231 -0.8212,0.2933 -2.1276,-1.3724 z m -1050.92623,-10 -3.44617,-3.75 3.75,3.4462 c 2.0625,1.8954 3.75,3.5829 3.75,3.75 0,0.7636 -0.84622,0.044 -4.05383,-3.4462 z M 863.8125,1173.3169 c 0.72187,-0.2889 1.58438,-0.2534 1.91667,0.079 0.33229,0.3323 -0.25834,0.5687 -1.3125,0.5253 -1.16495,-0.048 -1.4019,-0.285 -0.60417,-0.6042 z m 1041,0 c 0.7219,-0.2889 1.5844,-0.2534 1.9167,0.079 0.3323,0.3323 -0.2584,0.5687 -1.3125,0.5253 -1.165,-0.048 -1.4019,-0.285 -0.6042,-0.6042 z m -1219.6393,-1.0667 c 30.07026,-0.147 79.57026,-0.147 110,-10e-5 30.42974,0.147 5.8268,0.2672 -54.6732,0.2673 -60.5,0 -85.39706,-0.1202 -55.3268,-0.2672 z m 575.6562,-2e-4 c 51.8812,-0.1431 136.4812,-0.1431 188,10e-5 51.5188,0.1431 9.0706,0.2603 -94.3294,0.2603 -103.4,-10e-5 -145.5518,-0.1172 -93.6706,-0.2604 z m 465.3438,2e-4 c 30.0703,-0.147 79.5703,-0.147 110,-10e-5 30.4297,0.147 5.8268,0.2672 -54.6732,0.2673 -60.5,0 -85.3971,-0.1202 -55.3268,-0.2672 z m 792.6393,-6.9333 c 0.7219,-0.2889 1.5844,-0.2534 1.9167,0.079 0.3323,0.3323 -0.2584,0.5687 -1.3125,0.5253 -1.165,-0.048 -1.4019,-0.285 -0.6042,-0.6042 z m -38.0625,-1.0226 c 1.2375,-0.2384 3.2625,-0.2384 4.5,0 1.2375,0.2383 0.225,0.4333 -2.25,0.4333 -2.475,0 -3.4875,-0.195 -2.25,-0.4333 z m 19,0 c 1.2375,-0.2384 3.2625,-0.2384 4.5,0 1.2375,0.2383 0.225,0.4333 -2.25,0.4333 -2.475,0 -3.4875,-0.195 -2.25,-0.4333 z"
         style="fill:#caced4" />
      <path
         inkscape:connector-curvature="0"
         id="path909"
         d="m 3064.7617,3000.2927 c 1.2439,-0.2392 3.0439,-0.2301 4,0.02 0.956,0.2503 -0.062,0.446 -2.2617,0.4349 -2.2,-0.011 -2.9823,-0.2159 -1.7383,-0.4551 z M 3077.5,2996 c 0.9955,-1.1 2.035,-2 2.31,-2 0.275,0 -0.3145,0.9 -1.31,2 -0.9955,1.1 -2.035,2 -2.31,2 -0.275,0 0.3145,-0.9 1.31,-2 z m 145.732,-291 c 0,-1.925 0.2058,-2.7125 0.4573,-1.75 0.2516,0.9625 0.2516,2.5375 0,3.5 -0.2515,0.9625 -0.4573,0.175 -0.4573,-1.75 z M 2914.5,2693 c 0.9955,-1.1 2.035,-2 2.31,-2 0.275,0 -0.3145,0.9 -1.31,2 -0.9955,1.1 -2.035,2 -2.31,2 -0.275,0 0.3145,-0.9 1.31,-2 z m 80.8283,-4.7499 c 39.5055,-0.1449 103.8555,-0.1448 143,0 39.1444,0.1449 6.8217,0.2634 -71.8283,0.2634 -78.65,0 -110.6773,-0.1186 -71.1717,-0.2634 z m -164.9233,-99.5001 -1.905,-2.25 2.25,1.905 c 1.2375,1.0477 2.25,2.0602 2.25,2.25 0,0.8002 -0.8048,0.2094 -2.595,-1.905 z m 366.4674,-0.5 c -1.2438,-1.5861 -1.2085,-1.6214 0.3776,-0.3776 1.6657,1.3064 2.1955,2.1276 1.3724,2.1276 -0.2076,0 -0.9951,-0.7875 -1.75,-1.75 z M 3306.4972,1879 c 0,-384.725 0.1137,-542.1125 0.2528,-349.75 0.1391,192.3625 0.1391,507.1375 0,699.5 -0.1391,192.3625 -0.2528,34.975 -0.2528,-349.75 z M 2977.25,1631.2505 c 18.5625,-0.1524 48.9375,-0.1524 67.5,0 18.5625,0.1523 3.375,0.277 -33.75,0.277 -37.125,0 -52.3125,-0.1247 -33.75,-0.277 z"
         style="fill:#9fd0e6" />
      <path
         inkscape:connector-curvature="0"
         id="path907"
         d="m 814.26903,3009.307 c 0.97297,-0.2535 2.32297,-0.2369 3,0.037 0.67703,0.2739 -0.11903,0.4813 -1.76903,0.461 -1.65,-0.02 -2.20394,-0.2445 -1.23097,-0.4981 z m 33.48097,0.031 c 0.6875,-0.2774 1.8125,-0.2774 2.5,0 0.6875,0.2774 0.125,0.5044 -1.25,0.5044 -1.375,0 -1.9375,-0.227 -1.25,-0.5044 z m 726.0625,-9.0208 c 0.7219,-0.2889 1.5844,-0.2534 1.9167,0.079 0.3323,0.3323 -0.2584,0.5687 -1.3125,0.5253 -1.165,-0.048 -1.4019,-0.285 -0.6042,-0.6042 z m 636,0 c 0.7219,-0.2889 1.5844,-0.2534 1.9167,0.079 0.3323,0.3323 -0.2584,0.5687 -1.3125,0.5253 -1.165,-0.048 -1.4019,-0.285 -0.6042,-0.6042 z m 93,0 c 0.7219,-0.2889 1.5844,-0.2534 1.9167,0.079 0.3323,0.3323 -0.2584,0.5687 -1.3125,0.5253 -1.165,-0.048 -1.4019,-0.285 -0.6042,-0.6042 z m 274,0 c 0.7219,-0.2889 1.5844,-0.2534 1.9167,0.079 0.3323,0.3323 -0.2584,0.5687 -1.3125,0.5253 -1.165,-0.048 -1.4019,-0.285 -0.6042,-0.6042 z m 95,0 c 0.7219,-0.2889 1.5844,-0.2534 1.9167,0.079 0.3323,0.3323 -0.2584,0.5687 -1.3125,0.5253 -1.165,-0.048 -1.4019,-0.285 -0.6042,-0.6042 z M 2086.4567,2952.5 c -3e-4,-22.55 0.1311,-31.9176 0.2919,-20.817 0.1608,11.1007 0.161,29.5507 5e-4,41 -0.1606,11.4494 -0.2922,2.367 -0.2924,-20.183 z m 114.7012,38.5 c 0,-1.375 0.227,-1.9375 0.5044,-1.25 0.2774,0.6875 0.2774,1.8125 0,2.5 -0.2774,0.6875 -0.5044,0.125 -0.5044,-1.25 z m -932.669,-174 c 0,-96.525 0.1175,-136.0125 0.261,-87.75 0.1436,48.2625 0.1436,127.2375 0,175.5 -0.1435,48.2625 -0.261,8.775 -0.261,-87.75 z M 979,2958.6224 c 0,-0.2076 0.7875,-0.9951 1.75,-1.75 1.58606,-1.2438 1.62143,-1.2085 0.37756,0.3776 -1.30637,1.6657 -2.12756,2.1955 -2.12756,1.3724 z M 990.5,2947 c 0.99549,-1.1 2.03498,-2 2.30998,-2 0.275,0 -0.31449,0.9 -1.30998,2 -0.99549,1.1 -2.03498,2 -2.30998,2 -0.275,0 0.31449,-0.9 1.30998,-2 z m -167.75,-34.6623 c 0.6875,-0.2774 1.8125,-0.2774 2.5,0 0.6875,0.2774 0.125,0.5044 -1.25,0.5044 -1.375,0 -1.9375,-0.227 -1.25,-0.5044 z m 16,0 c 0.6875,-0.2774 1.8125,-0.2774 2.5,0 0.6875,0.2774 0.125,0.5044 -1.25,0.5044 -1.375,0 -1.9375,-0.227 -1.25,-0.5044 z m 203.3289,-85.921 c 0.048,-1.165 0.285,-1.4019 0.6042,-0.6042 0.2889,0.7219 0.2534,1.5844 -0.079,1.9167 -0.3323,0.3323 -0.5687,-0.2584 -0.5253,-1.3125 z M 622.15789,2818 c 0,-1.375 0.22698,-1.9375 0.50439,-1.25 0.27741,0.6875 0.27741,1.8125 0,2.5 -0.27741,0.6875 -0.50439,0.125 -0.50439,-1.25 z m 112.03706,-2.5 c 0.0204,-1.65 0.2445,-2.2039 0.49804,-1.231 0.25354,0.973 0.23687,2.323 -0.0371,3 -0.27393,0.6771 -0.48137,-0.119 -0.46099,-1.769 z M 1043.232,2811 c 0,-1.925 0.2058,-2.7125 0.4573,-1.75 0.2516,0.9625 0.2516,2.5375 0,3.5 -0.2515,0.9625 -0.4573,0.175 -0.4573,-1.75 z m -111.81692,-20 c 0,-10.175 0.1485,-14.3375 0.32999,-9.25 0.18149,5.0875 0.18149,13.4125 0,18.5 -0.18149,5.0875 -0.32999,0.925 -0.32999,-9.25 z m 87.85392,-22.693 c 0.973,-0.2535 2.323,-0.2369 3,0.037 0.6771,0.2739 -0.119,0.4813 -1.769,0.461 -1.65,-0.02 -2.2039,-0.2445 -1.231,-0.4981 z m -19,-1 c 0.973,-0.2535 2.323,-0.2369 3,0.037 0.6771,0.2739 -0.119,0.4813 -1.769,0.461 -1.65,-0.02 -2.20394,-0.2445 -1.231,-0.4981 z m -18.99997,-1 c 0.97297,-0.2535 2.32297,-0.2369 3,0.037 0.67703,0.2739 -0.11903,0.4813 -1.76903,0.461 -1.65,-0.02 -2.20394,-0.2445 -1.23097,-0.4981 z m -19,-1 c 0.97297,-0.2535 2.32297,-0.2369 3,0.037 0.67703,0.2739 -0.11903,0.4813 -1.76903,0.461 -1.65,-0.02 -2.20394,-0.2445 -1.23097,-0.4981 z m -20.50737,-1.0143 c 1.24391,-0.2392 3.04391,-0.2301 4,0.02 0.95609,0.2503 -0.0617,0.446 -2.26166,0.4349 -2.2,-0.011 -2.98225,-0.2159 -1.73834,-0.4551 z M 1995.4562,2592 c 0,-22.275 0.1317,-31.3875 0.2926,-20.25 0.1609,11.1375 0.1609,29.3625 0,40.5 -0.1609,11.1375 -0.2926,2.025 -0.2926,-20.25 z m -700.1373,-42.7493 c 13.1003,-0.158 34.2503,-0.1578 47,4e-4 12.7496,0.1582 2.0311,0.2874 -23.8189,0.2872 -25.85,-2e-4 -36.2815,-0.1296 -23.1811,-0.2876 z M 1268.4854,2414 c 0,-72.325 0.119,-101.9125 0.2645,-65.75 0.1455,36.1625 0.1455,95.3375 0,131.5 -0.1455,36.1625 -0.2645,6.575 -0.2645,-65.75 z M 1423,2526.6224 c 0,-0.2076 0.7875,-0.9951 1.75,-1.75 1.5861,-1.2438 1.6214,-1.2085 0.3776,0.3776 -1.3064,1.6657 -2.1276,2.1955 -2.1276,1.3724 z m 153.0789,-79.2057 c 0.048,-1.165 0.285,-1.4019 0.6042,-0.6042 0.2889,0.7219 0.2534,1.5844 -0.079,1.9167 -0.3323,0.3323 -0.5687,-0.2584 -0.5253,-1.3125 z m 1.079,-12.4167 c 0,-1.375 0.227,-1.9375 0.5044,-1.25 0.2774,0.6875 0.2774,1.8125 0,2.5 -0.2774,0.6875 -0.5044,0.125 -0.5044,-1.25 z m -111.9259,-9 c 0,-1.925 0.2058,-2.7125 0.4573,-1.75 0.2516,0.9625 0.2516,2.5375 0,3.5 -0.2515,0.9625 -0.4573,0.175 -0.4573,-1.75 z m -514.96297,-7.693 c 0.97297,-0.2535 2.32297,-0.2369 3,0.037 0.67703,0.2739 -0.11903,0.4813 -1.76903,0.461 -1.65,-0.02 -2.20394,-0.2445 -1.23097,-0.4981 z m 19,-1 c 0.97297,-0.2535 2.32297,-0.2369 3,0.037 0.67703,0.2739 -0.11903,0.4813 -1.76903,0.461 -1.65,-0.02 -2.20394,-0.2445 -1.23097,-0.4981 z m 19,-1 c 0.97297,-0.2535 2.32297,-0.2369 3,0.037 0.67703,0.2739 -0.11903,0.4813 -1.76903,0.461 -1.65,-0.02 -2.20394,-0.2445 -1.23097,-0.4981 z m 18.99997,-1 c 0.973,-0.2535 2.323,-0.2369 3,0.037 0.6771,0.2739 -0.119,0.4813 -1.769,0.461 -1.65,-0.02 -2.2039,-0.2445 -1.231,-0.4981 z m 19,-1 c 0.973,-0.2535 2.323,-0.2369 3,0.037 0.6771,0.2739 -0.119,0.4813 -1.769,0.461 -1.65,-0.02 -2.2039,-0.2445 -1.231,-0.4981 z M 931.41508,2392 c 0,-10.175 0.1485,-14.3375 0.32999,-9.25 0.18149,5.0875 0.18149,13.4125 0,18.5 -0.18149,5.0875 -0.32999,0.925 -0.32999,-9.25 z m 533.81692,12 c 0,-1.925 0.2058,-2.7125 0.4573,-1.75 0.2516,0.9625 0.2516,2.5375 0,3.5 -0.2515,0.9625 -0.4573,0.175 -0.4573,-1.75 z m 111.9259,-12 c 0,-1.375 0.227,-1.9375 0.5044,-1.25 0.2774,0.6875 0.2774,1.8125 0,2.5 -0.2774,0.6875 -0.5044,0.125 -0.5044,-1.25 z m -113.079,-1.5833 c 0.048,-1.165 0.285,-1.4019 0.6042,-0.6042 0.2889,0.7219 0.2534,1.5844 -0.079,1.9167 -0.3323,0.3323 -0.5687,-0.2584 -0.5253,-1.3125 z M 1043.232,2371 c 0,-1.925 0.2058,-2.7125 0.4573,-1.75 0.2516,0.9625 0.2516,2.5375 0,3.5 -0.2515,0.9625 -0.4573,0.175 -0.4573,-1.75 z m -309.07411,-3 c 0,-1.375 0.22698,-1.9375 0.50439,-1.25 0.27741,0.6875 0.27741,1.8125 0,2.5 -0.27741,0.6875 -0.50439,0.125 -0.50439,-1.25 z m -112,-4 c 0,-1.375 0.22698,-1.9375 0.50439,-1.25 0.27741,0.6875 0.27741,1.8125 0,2.5 -0.27741,0.6875 -0.50439,0.125 -0.50439,-1.25 z m 805.76641,-57.75 -2.4243,-2.75 2.75,2.4243 c 2.5703,2.2659 3.2086,3.0757 2.4243,3.0757 -0.1791,0 -1.4166,-1.2375 -2.75,-2.75 z M 760.5,2300 c 0.99549,-1.1 2.03498,-2 2.30998,-2 0.275,0 -0.31449,0.9 -1.30998,2 -0.99549,1.1 -2.03498,2 -2.30998,2 -0.275,0 0.31449,-0.9 1.30998,-2 z m 140.5,-2.5 c -2.42903,-2.475 -4.19142,-4.5 -3.91642,-4.5 0.275,0 2.48739,2.025 4.91642,4.5 2.42903,2.475 4.19142,4.5 3.91642,4.5 -0.275,0 -2.48739,-2.025 -4.91642,-4.5 z M 765.5,2295 c 0.99549,-1.1 2.03498,-2 2.30998,-2 0.275,0 -0.31449,0.9 -1.30998,2 -0.99549,1.1 -2.03498,2 -2.30998,2 -0.275,0 0.31449,-0.9 1.30998,-2 z m 64.75,-24.6893 c 0.9625,-0.2516 2.5375,-0.2516 3.5,0 0.9625,0.2515 0.175,0.4573 -1.75,0.4573 -1.925,0 -2.7125,-0.2058 -1.75,-0.4573 z M 2086.4567,2230.5 c -3e-4,-22.55 0.1311,-31.9176 0.2919,-20.817 0.1608,11.1007 0.161,29.5507 5e-4,41 -0.1606,11.4494 -0.2922,2.367 -0.2924,-20.183 z m -688.6442,-48.1831 c 0.7219,-0.2889 1.5844,-0.2534 1.9167,0.079 0.3323,0.3323 -0.2584,0.5687 -1.3125,0.5253 -1.165,-0.048 -1.4019,-0.285 -0.6042,-0.6042 z m -177.4858,-1.0668 c 30.1548,-0.147 79.2048,-0.1469 109,10e-5 29.7953,0.1471 5.1233,0.2674 -54.8267,0.2673 -59.95,0 -84.328,-0.1203 -54.1733,-0.2674 z m -414.5142,-6.9332 c 0.72187,-0.2889 1.58438,-0.2534 1.91667,0.079 0.33229,0.3323 -0.25834,0.5687 -1.3125,0.5253 -1.16495,-0.048 -1.4019,-0.285 -0.60417,-0.6042 z m 52,0 c 0.72187,-0.2889 1.58438,-0.2534 1.91667,0.079 0.33229,0.3323 -0.25834,0.5687 -1.3125,0.5253 -1.16495,-0.048 -1.4019,-0.285 -0.60417,-0.6042 z m -35.04459,-1.0416 c 1.79735,-0.2226 4.49735,-0.218 6,0.01 1.50265,0.2281 0.0321,0.4102 -3.26791,0.4046 -3.3,-0.01 -4.52944,-0.1923 -2.73209,-0.4148 z m 12.98209,0 c 1.7875,-0.2218 4.7125,-0.2218 6.5,0 1.7875,0.2218 0.325,0.4033 -3.25,0.4033 -3.575,0 -5.0375,-0.1815 -3.25,-0.4033 z m 1635,-172.9389 c 0.6875,-0.2774 1.8125,-0.2774 2.5,0 0.6875,0.2774 0.125,0.5044 -1.25,0.5044 -1.375,0 -1.9375,-0.227 -1.25,-0.5044 z m 41,0 c 0.6875,-0.2774 1.8125,-0.2774 2.5,0 0.6875,0.2774 0.125,0.5044 -1.25,0.5044 -1.375,0 -1.9375,-0.227 -1.25,-0.5044 z M 3429.4952,1584 c 0,-225.225 0.1146,-317.3625 0.2548,-204.75 0.1401,112.6125 0.1401,296.8875 0,409.5 -0.1402,112.6125 -0.2548,20.475 -0.2548,-204.75 z m -1340.3373,400 c 0,-1.375 0.227,-1.9375 0.5044,-1.25 0.2774,0.6875 0.2774,1.8125 0,2.5 -0.2774,0.6875 -0.5044,0.125 -0.5044,-1.25 z m -930.7017,-41 c 0,-22.275 0.1317,-31.3875 0.2926,-20.25 0.1609,11.1375 0.1609,29.3625 0,40.5 -0.1609,11.1375 -0.2926,2.025 -0.2926,-20.25 z m 617.0327,-137 c 0,-96.525 0.1175,-136.0125 0.261,-87.75 0.1436,48.2625 0.1436,127.2375 0,175.5 -0.1435,48.2625 -0.261,8.775 -0.261,-87.75 z m 705.3236,97.3169 c 0.7219,-0.2889 1.5844,-0.2534 1.9167,0.079 0.3323,0.3323 -0.2584,0.5687 -1.3125,0.5253 -1.165,-0.048 -1.4019,-0.285 -0.6042,-0.6042 z m 22,0 c 0.7219,-0.2889 1.5844,-0.2534 1.9167,0.079 0.3323,0.3323 -0.2584,0.5687 -1.3125,0.5253 -1.165,-0.048 -1.4019,-0.285 -0.6042,-0.6042 z M 2282.1579,1807 c 0,-1.375 0.227,-1.9375 0.5044,-1.25 0.2774,0.6875 0.2774,1.8125 0,2.5 -0.2774,0.6875 -0.5044,0.125 -0.5044,-1.25 z m 421.037,-1.5 c 0.02,-1.65 0.2445,-2.2039 0.4981,-1.231 0.2535,0.973 0.2369,2.323 -0.037,3 -0.2739,0.6771 -0.4813,-0.119 -0.461,-1.769 z m -308.9225,-2.5 c 0,-2.475 0.195,-3.4875 0.4333,-2.25 0.2384,1.2375 0.2384,3.2625 0,4.5 -0.2383,1.2375 -0.4333,0.225 -0.4333,-2.25 z m 197.1494,-18 c 0,-11.275 0.1458,-15.8875 0.3241,-10.25 0.1782,5.6375 0.1782,14.8625 0,20.5 -0.1783,5.6375 -0.3241,1.025 -0.3241,-10.25 z m 84.3282,-25.6623 c 0.6875,-0.2774 1.8125,-0.2774 2.5,0 0.6875,0.2774 0.125,0.5044 -1.25,0.5044 -1.375,0 -1.9375,-0.227 -1.25,-0.5044 z m -19,-1 c 0.6875,-0.2774 1.8125,-0.2774 2.5,0 0.6875,0.2774 0.125,0.5044 -1.25,0.5044 -1.375,0 -1.9375,-0.227 -1.25,-0.5044 z m -19,-1 c 0.6875,-0.2774 1.8125,-0.2774 2.5,0 0.6875,0.2774 0.125,0.5044 -1.25,0.5044 -1.375,0 -1.9375,-0.227 -1.25,-0.5044 z m -19,-1 c 0.6875,-0.2774 1.8125,-0.2774 2.5,0 0.6875,0.2774 0.125,0.5044 -1.25,0.5044 -1.375,0 -1.9375,-0.227 -1.25,-0.5044 z m -1761.5,-120.027 c 0.9625,-0.2516 2.5375,-0.2516 3.5,0 0.9625,0.2515 0.175,0.4573 -1.75,0.4573 -1.925,0 -2.7125,-0.2058 -1.75,-0.4573 z m 942,-8.0596 c 11.4125,-0.1604 30.0875,-0.1604 41.5,0 11.4125,0.1605 2.075,0.2918 -20.75,0.2918 -22.825,0 -32.1625,-0.1313 -20.75,-0.2918 z M 1158.4562,1582 c 0,-22.275 0.1317,-31.3875 0.2926,-20.25 0.1609,11.1375 0.1609,29.3625 0,40.5 -0.1609,11.1375 -0.2926,2.025 -0.2926,-20.25 z m -397.63707,-35.7493 c 13.37553,-0.1576 34.97553,-0.1575 48,3e-4 13.02448,0.1579 2.08087,0.2868 -24.31913,0.2866 -26.4,-2e-4 -37.05639,-0.1293 -23.68087,-0.2869 z M 1871.269,1540.307 c 0.973,-0.2535 2.323,-0.2369 3,0.037 0.6771,0.2739 -0.119,0.4813 -1.769,0.461 -1.65,-0.02 -2.2039,-0.2445 -1.231,-0.4981 z M 1775.4855,1405.5 c 10e-5,-73.15 0.119,-102.9274 0.2644,-66.1721 0.1454,36.7553 0.1454,96.6053 0,133 -0.1455,36.3947 -0.2644,6.3221 -0.2644,-66.8279 z M 1930,1517.6224 c 0,-0.2076 0.7875,-0.9951 1.75,-1.75 1.5861,-1.2438 1.6214,-1.2085 0.3776,0.3776 -1.3064,1.6657 -2.1276,2.1955 -2.1276,1.3724 z m 7,-7 c 0,-0.2076 0.7875,-0.9951 1.75,-1.75 1.5861,-1.2438 1.6214,-1.2085 0.3776,0.3776 -1.3064,1.6657 -2.1276,2.1955 -2.1276,1.3724 z m -894.9211,-72.2057 c 0.048,-1.165 0.285,-1.4019 0.6042,-0.6042 0.2889,0.7219 0.2534,1.5844 -0.079,1.9167 -0.3323,0.3323 -0.5687,-0.2584 -0.5253,-1.3125 z m 1041,-2 c 0.048,-1.165 0.285,-1.4019 0.6042,-0.6042 0.2889,0.7219 0.2534,1.5844 -0.079,1.9167 -0.3323,0.3323 -0.5687,-0.2584 -0.5253,-1.3125 z M 1043.232,1423 c 0,-1.925 0.2058,-2.7125 0.4573,-1.75 0.2516,0.9625 0.2516,2.5375 0,3.5 -0.2515,0.9625 -0.4573,0.175 -0.4573,-1.75 z m 1040.9629,-0.5 c 0.02,-1.65 0.2445,-2.2039 0.4981,-1.231 0.2535,0.973 0.2369,2.323 -0.037,3 -0.2739,0.6771 -0.4813,-0.119 -0.461,-1.769 z m -111.8399,-16 c 0,-4.95 0.166,-7.1011 0.3757,-4.7802 0.2098,2.3209 0.2122,6.3709 0.01,9 -0.2067,2.6291 -0.3783,0.7302 -0.3813,-4.2198 z M 931.232,1410 c 0,-1.925 0.2058,-2.7125 0.45733,-1.75 0.25152,0.9625 0.25152,2.5375 0,3.5 -0.25153,0.9625 -0.45733,0.175 -0.45733,-1.75 z m 1683.037,-0.693 c 0.973,-0.2535 2.323,-0.2369 3,0.037 0.6771,0.2739 -0.119,0.4813 -1.769,0.461 -1.65,-0.02 -2.2039,-0.2445 -1.231,-0.4981 z m 19,-1 c 0.973,-0.2535 2.323,-0.2369 3,0.037 0.6771,0.2739 -0.119,0.4813 -1.769,0.461 -1.65,-0.02 -2.2039,-0.2445 -1.231,-0.4981 z m 19,-1 c 0.973,-0.2535 2.323,-0.2369 3,0.037 0.6771,0.2739 -0.119,0.4813 -1.769,0.461 -1.65,-0.02 -2.2039,-0.2445 -1.231,-0.4981 z m 19,-1 c 0.973,-0.2535 2.323,-0.2369 3,0.037 0.6771,0.2739 -0.119,0.4813 -1.769,0.461 -1.65,-0.02 -2.2039,-0.2445 -1.231,-0.4981 z m 19,-1 c 0.973,-0.2535 2.323,-0.2369 3,0.037 0.6771,0.2739 -0.119,0.4813 -1.769,0.461 -1.65,-0.02 -2.2039,-0.2445 -1.231,-0.4981 z m -98.8488,-24.807 c -9e-4,-11 0.1452,-15.6364 0.3247,-10.3032 0.1794,5.3332 0.1801,14.3332 0,20 -0.1786,5.6668 -0.3254,1.3032 -0.3263,-9.6968 z m -1548.168,12 c 0.011,-2.2 0.2159,-2.9823 0.4551,-1.7383 0.2392,1.2439 0.2301,3.0439 -0.02,4 -0.2503,0.956 -0.446,-0.062 -0.4349,-2.2617 z m -113.17325,-4.0833 c 0.048,-1.165 0.28494,-1.4019 0.60416,-0.6042 0.28887,0.7219 0.25335,1.5844 -0.0789,1.9167 -0.33229,0.3323 -0.56864,-0.2584 -0.52522,-1.3125 z M 2084.1949,1387.5 c 0.02,-1.65 0.2445,-2.2039 0.4981,-1.231 0.2535,0.973 0.2369,2.323 -0.037,3 -0.2739,0.6771 -0.4813,-0.119 -0.461,-1.769 z m -1042.116,-11.0833 c 0.048,-1.165 0.285,-1.4019 0.6042,-0.6042 0.2889,0.7219 0.2534,1.5844 -0.079,1.9167 -0.3323,0.3323 -0.5687,-0.2584 -0.5253,-1.3125 z m 1041,-3 c 0.048,-1.165 0.285,-1.4019 0.6042,-0.6042 0.2889,0.7219 0.2534,1.5844 -0.079,1.9167 -0.3323,0.3323 -0.5687,-0.2584 -0.5253,-1.3125 z M 2394.2724,1363 c 0,-2.475 0.195,-3.4875 0.4333,-2.25 0.2384,1.2375 0.2384,3.2625 0,4.5 -0.2383,1.2375 -0.4333,0.225 -0.4333,-2.25 z m 308.8855,-4 c 0,-1.375 0.227,-1.9375 0.5044,-1.25 0.2774,0.6875 0.2774,1.8125 0,2.5 -0.2774,0.6875 -0.5044,0.125 -0.5044,-1.25 z m -421,-2 c 0,-1.375 0.227,-1.9375 0.5044,-1.25 0.2774,0.6875 0.2774,1.8125 0,2.5 -0.2774,0.6875 -0.5044,0.125 -0.5044,-1.25 z m 419.921,-11.5833 c 0.048,-1.165 0.285,-1.4019 0.6042,-0.6042 0.2889,0.7219 0.2534,1.5844 -0.079,1.9167 -0.3323,0.3323 -0.5687,-0.2584 -0.5253,-1.3125 z m -140.626,-56.6667 -3.9529,-4.25 4.25,3.9529 c 3.9525,3.6762 4.7095,4.5471 3.9529,4.5471 -0.1633,0 -2.0758,-1.9125 -4.25,-4.25 z m -684.6404,-18.4331 c 0.7219,-0.2889 1.5844,-0.2534 1.9167,0.079 0.3323,0.3323 -0.2584,0.5687 -1.3125,0.5253 -1.165,-0.048 -1.4019,-0.285 -0.6042,-0.6042 z m 628,-8 c 0.7219,-0.2889 1.5844,-0.2534 1.9167,0.079 0.3323,0.3323 -0.2584,0.5687 -1.3125,0.5253 -1.165,-0.048 -1.4019,-0.285 -0.6042,-0.6042 z M 1158.4562,1221 c 0,-22.275 0.1317,-31.3875 0.2926,-20.25 0.1609,11.1375 0.1609,29.3625 0,40.5 -0.1609,11.1375 -0.2926,2.025 -0.2926,-20.25 z M 2330,1231.6224 c 0,-0.2076 0.7875,-0.9951 1.75,-1.75 1.5861,-1.2438 1.6214,-1.2085 0.3776,0.3776 -1.3064,1.6657 -2.1276,2.1955 -2.1276,1.3724 z m 322.8724,-2.3724 c -1.2438,-1.5861 -1.2085,-1.6214 0.3776,-0.3776 0.9625,0.7549 1.75,1.5424 1.75,1.75 0,0.8231 -0.8212,0.2933 -2.1276,-1.3724 z m -640,-9 c -1.2438,-1.5861 -1.2085,-1.6214 0.3776,-0.3776 1.6657,1.3064 2.1955,2.1276 1.3724,2.1276 -0.2076,0 -0.9951,-0.7875 -1.75,-1.75 z m 626,-5 c -1.2438,-1.5861 -1.2085,-1.6214 0.3776,-0.3776 0.9625,0.7549 1.75,1.5424 1.75,1.75 0,0.8231 -0.8212,0.2933 -2.1276,-1.3724 z M 860.8125,1173.3169 c 0.72187,-0.2889 1.58438,-0.2534 1.91667,0.079 0.33229,0.3323 -0.25834,0.5687 -1.3125,0.5253 -1.16495,-0.048 -1.4019,-0.285 -0.60417,-0.6042 z m 1041,0 c 0.7219,-0.2889 1.5844,-0.2534 1.9167,0.079 0.3323,0.3323 -0.2584,0.5687 -1.3125,0.5253 -1.165,-0.048 -1.4019,-0.285 -0.6042,-0.6042 z m 566,-8 c 0.7219,-0.2889 1.5844,-0.2534 1.9167,0.079 0.3323,0.3323 -0.2584,0.5687 -1.3125,0.5253 -1.165,-0.048 -1.4019,-0.285 -0.6042,-0.6042 z m 48,0 c 0.7219,-0.2889 1.5844,-0.2534 1.9167,0.079 0.3323,0.3323 -0.2584,0.5687 -1.3125,0.5253 -1.165,-0.048 -1.4019,-0.285 -0.6042,-0.6042 z m -26.0446,-1.0416 c 1.7974,-0.2226 4.4974,-0.218 6,0.01 1.5027,0.2281 0.032,0.4102 -3.2679,0.4046 -3.3,-0.01 -4.5294,-0.1923 -2.7321,-0.4148 z"
         style="fill:#969eaa" />
      <path
         inkscape:connector-curvature="0"
         id="path905"
         d="m 3058.5,2998.2163 c -1.65,-1.0407 -3.5172,-2.5276 -4.1494,-3.3042 -0.6321,-0.7767 -33.2563,-65.0871 -72.498,-142.9121 -69.4506,-137.7356 -71.3488,-141.651 -71.3507,-147.1767 0,-6.3685 1.8591,-9.7424 7.4879,-13.5733 l 3.306,-2.25 h 144.951 c 160.4619,0 149.1427,-0.4684 154.0229,6.3733 1.772,2.4843 2.2221,4.4623 2.1905,9.6267 l -0.04,6.5 -70.835,140.5 c -48.7004,96.5962 -71.8795,141.5782 -74.1774,143.9505 -2.9965,3.0935 -3.9923,3.4871 -9.6251,3.8043 -4.877,0.2746 -6.9541,-0.07 -9.2828,-1.5385 z m -223,-406.9355 c -2.9133,-0.7098 -5.5849,-3.3292 -7.138,-6.9987 -1.145,-2.7051 -1.362,-114.9998 -1.362,-704.7297 0,-645.0308 0.1307,-701.8387 1.624,-705.5706 2.8629,-7.1551 1.5191,-6.9836 54.5763,-6.9671 35.7972,0.011 47.9077,0.3186 49.7997,1.264 1.375,0.687 3.2868,2.8179 4.2484,4.7352 1.6449,3.2795 1.7486,13.9603 1.75,180.2361 0,175.4156 0.017,176.7651 2.0016,178.75 1.9602,1.9602 3.3333,2 69.0321,2 73.4685,0 72.3189,-0.09 75.4015,5.8716 1.3455,2.6018 1.5664,8.6848 1.5664,43.1284 0,43.4938 -0.101,44.3581 -5.4721,46.8053 -1.9499,0.8885 -19.8832,1.1947 -69.9642,1.1947 -64.8145,0 -67.4307,0.072 -69.7029,1.9116 l -2.3608,1.9117 -0.5,474.8383 c -0.4809,456.6938 -0.5694,474.9406 -2.316,477.5136 -0.9988,1.4713 -3.2034,3.1588 -4.8992,3.75 -3.0774,1.0728 -91.9929,1.4011 -96.2848,0.3556 z m 366.7841,0.018 c -3.3209,-0.6427 -7.0857,-5.7612 -7.7626,-10.5535 -0.3298,-2.3348 -0.4695,-319.4702 -0.3105,-704.7452 0.2694,-652.9855 0.4026,-700.7072 1.964,-703.5553 0.9213,-1.6804 2.8549,-3.5929 4.2971,-4.25 3.8394,-1.7494 96.0144,-1.6716 99.5279,0.084 1.375,0.687 3.2868,2.8179 4.2484,4.7352 1.6597,3.309 1.7486,39.1875 1.75,706.2682 0,614.7571 -0.1818,703.221 -1.4624,706.286 -2.6802,6.4145 -2.971,6.4483 -54.2539,6.2957 -25.1801,-0.075 -46.7792,-0.3292 -47.998,-0.5651 z"
         style="fill:#2dace2" />
      <path
         inkscape:connector-curvature="0"
         id="path903"
         d="m 985,2952.5 c 1.86578,-1.925 3.61733,-3.5 3.89233,-3.5 0.275,0 -1.02655,1.575 -2.89233,3.5 -1.86578,1.925 -3.61733,3.5 -3.89233,3.5 -0.275,0 1.02655,-1.575 2.89233,-3.5 z m 438.8724,-650.25 c -1.2438,-1.5861 -1.2085,-1.6214 0.3776,-0.3776 0.9625,0.7549 1.75,1.5424 1.75,1.75 0,0.8231 -0.8212,0.2933 -2.1276,-1.3724 z m -432.99996,-66 c -1.24387,-1.5861 -1.2085,-1.6214 0.37756,-0.3776 0.9625,0.7549 1.75,1.5424 1.75,1.75 0,0.8231 -0.82119,0.2933 -2.12756,-1.3724 z m -10,-10 c -1.24387,-1.5861 -1.2085,-1.6214 0.37756,-0.3776 0.9625,0.7549 1.75,1.5424 1.75,1.75 0,0.8231 -0.82119,0.2933 -2.12756,-1.3724 z M 2559,1879.6871 c 0,-0.1721 1.4625,-1.6346 3.25,-3.25 l 3.25,-2.9371 -2.9371,3.25 c -2.7378,3.0295 -3.5629,3.7097 -3.5629,2.9371 z M 893.5,1519 c 2.14824,-2.2 4.1309,-4 4.4059,-4 0.275,0 -1.25766,1.8 -3.4059,4 -2.14824,2.2 -4.1309,4 -4.4059,4 -0.275,0 1.25766,-1.8 3.4059,-4 z M 2421,1290.6871 c 0,-0.1721 1.4625,-1.6346 3.25,-3.25 l 3.25,-2.9371 -2.9371,3.25 c -2.7378,3.0295 -3.5629,3.7097 -3.5629,2.9371 z m -401.5376,-63.9371 -4.9624,-5.25 5.25,4.9624 c 2.8875,2.7293 5.25,5.0918 5.25,5.25 0,0.7462 -0.9264,-0.084 -5.5376,-4.9624 z m 630.41,-0.5 c -1.2438,-1.5861 -1.2085,-1.6214 0.3776,-0.3776 0.9625,0.7549 1.75,1.5424 1.75,1.75 0,0.8231 -0.8212,0.2933 -2.1276,-1.3724 z m -7.4674,-7.5 -1.905,-2.25 2.25,1.905 c 2.1144,1.7902 2.7052,2.595 1.905,2.595 -0.1898,0 -1.2023,-1.0125 -2.25,-2.25 z M 2343,1218.6224 c 0,-0.2076 0.7875,-0.9951 1.75,-1.75 1.5861,-1.2438 1.6214,-1.2085 0.3776,0.3776 -1.3064,1.6657 -2.1276,2.1955 -2.1276,1.3724 z"
         style="fill:#6b7688" />
      <path
         inkscape:connector-curvature="0"
         id="path901"
         d="m 819.76166,3009.2927 c 1.24391,-0.2392 3.04391,-0.2301 4,0.02 0.95609,0.2503 -0.0617,0.446 -2.26166,0.4349 -2.2,-0.011 -2.98225,-0.2159 -1.73834,-0.4551 z m 21.48834,0.018 c 0.9625,-0.2516 2.5375,-0.2516 3.5,0 0.9625,0.2515 0.175,0.4573 -1.75,0.4573 -1.925,0 -2.7125,-0.2058 -1.75,-0.4573 z m 349.0683,-9.0599 c 12.55,-0.1588 32.8,-0.1586 45,4e-4 12.1999,0.159 1.9317,0.2889 -22.8183,0.2887 -24.75,-3e-4 -34.7318,-0.1303 -22.1817,-0.2891 z m 313.5003,0 c 12.8252,-0.1584 33.5252,-0.1582 46,3e-4 12.4748,0.1586 1.9814,0.2882 -23.3186,0.288 -25.3,-2e-4 -35.5066,-0.13 -22.6814,-0.2883 z m 730.4314,2e-4 c 12.5125,-0.1587 32.9875,-0.1587 45.5,0 12.5125,0.1586 2.275,0.2885 -22.75,0.2885 -25.025,0 -35.2625,-0.1299 -22.75,-0.2885 z m 367.5,-1e-4 c 12.7875,-0.1583 33.7125,-0.1583 46.5,0 12.7875,0.1583 2.325,0.2878 -23.25,0.2878 -25.575,0 -36.0375,-0.1295 -23.25,-0.2878 z M 1469.8724,2996.25 c -1.2438,-1.5861 -1.2085,-1.6214 0.3776,-0.3776 0.9625,0.7549 1.75,1.5424 1.75,1.75 0,0.8231 -0.8212,0.2933 -2.1276,-1.3724 z M 1695.4562,2953 c 0,-22.275 0.1317,-31.3875 0.2926,-20.25 0.1609,11.1375 0.1609,29.3625 0,40.5 -0.1609,11.1375 -0.2926,2.025 -0.2926,-20.25 z m -538.9611,-362 c 0,-220.275 0.1147,-310.3875 0.2549,-200.25 0.1402,110.1375 0.1402,290.3625 0,400.5 -0.1402,110.1375 -0.2549,20.025 -0.2549,-200.25 z m -477.0264,360.75 -5.9687,-6.25 6.25,5.9687 c 5.80572,5.5444 6.7076,6.5313 5.9687,6.5313 -0.15472,0 -2.96722,-2.8125 -6.25,-6.25 z m 140.3438,-39.4331 c 0.72187,-0.2889 1.58438,-0.2534 1.91667,0.079 0.33229,0.3323 -0.25834,0.5687 -1.3125,0.5253 -1.16495,-0.048 -1.4019,-0.285 -0.60417,-0.6042 z M 762.92431,2886.25 760.5,2883.5 l 2.75,2.4243 c 1.5125,1.3334 2.75,2.5709 2.75,2.75 0,0.7843 -0.8098,0.146 -3.07569,-2.4243 z M 901.5,2886 c 0.99549,-1.1 2.03498,-2 2.30998,-2 0.275,0 -0.31449,0.9 -1.30998,2 -0.99549,1.1 -2.03498,2 -2.30998,2 -0.275,0 0.31449,-0.9 1.30998,-2 z m -167.42105,-66.5833 c 0.048,-1.165 0.28494,-1.4019 0.60416,-0.6042 0.28887,0.7219 0.25335,1.5844 -0.0789,1.9167 -0.33229,0.3323 -0.56864,-0.2584 -0.52522,-1.3125 z m -111.884,-5.9167 c 0.0204,-1.65 0.2445,-2.2039 0.49804,-1.231 0.25354,0.973 0.23687,2.323 -0.0371,3 -0.27393,0.6771 -0.48137,-0.119 -0.46099,-1.769 z M 931.232,2813 c 0,-1.925 0.2058,-2.7125 0.45733,-1.75 0.25152,0.9625 0.25152,2.5375 0,3.5 -0.25153,0.9625 -0.45733,0.175 -0.45733,-1.75 z m 112.1679,-19.5 c 0,-8.25 0.1563,-11.4919 0.3442,-7.2043 0.1879,4.2876 0.1868,11.0376 0,15 -0.1893,3.9624 -0.3431,0.4543 -0.3417,-7.7957 z m -29.1309,-25.193 c 0.973,-0.2535 2.323,-0.2369 3,0.037 0.6771,0.2739 -0.119,0.4813 -1.769,0.461 -1.65,-0.02 -2.2039,-0.2445 -1.231,-0.4981 z m -18.99997,-1 c 0.97297,-0.2535 2.32297,-0.2369 3,0.037 0.67703,0.2739 -0.11903,0.4813 -1.76903,0.461 -1.65,-0.02 -2.20394,-0.2445 -1.23097,-0.4981 z m -19,-1 c 0.97297,-0.2535 2.32297,-0.2369 3,0.037 0.67703,0.2739 -0.11903,0.4813 -1.76903,0.461 -1.65,-0.02 -2.20394,-0.2445 -1.23097,-0.4981 z m -19,-1 c 0.97297,-0.2535 2.32297,-0.2369 3,0.037 0.67703,0.2739 -0.11903,0.4813 -1.76903,0.461 -1.65,-0.02 -2.20394,-0.2445 -1.23097,-0.4981 z M 1695.4562,2592 c 0,-22.275 0.1317,-31.3875 0.2926,-20.25 0.1609,11.1375 0.1609,29.3625 0,40.5 -0.1609,11.1375 -0.2926,2.025 -0.2926,-20.25 z M 1507,2591.6224 c 0,-0.2076 0.7875,-0.9951 1.75,-1.75 1.5861,-1.2438 1.6214,-1.2085 0.3776,0.3776 -1.3064,1.6657 -2.1276,2.1955 -2.1276,1.3724 z m 13,-13 c 0,-0.2076 0.7875,-0.9951 1.75,-1.75 1.5861,-1.2438 1.6214,-1.2085 0.3776,0.3776 -1.3064,1.6657 -2.1276,2.1955 -2.1276,1.3724 z m -154.25,-29.2847 c 0.6875,-0.2774 1.8125,-0.2774 2.5,0 0.6875,0.2774 0.125,0.5044 -1.25,0.5044 -1.375,0 -1.9375,-0.227 -1.25,-0.5044 z m 210.3289,-104.921 c 0.048,-1.165 0.285,-1.4019 0.6042,-0.6042 0.2889,0.7219 0.2534,1.5844 -0.079,1.9167 -0.3323,0.3323 -0.5687,-0.2584 -0.5253,-1.3125 z M 1465.1579,2431 c 0,-1.375 0.227,-1.9375 0.5044,-1.25 0.2774,0.6875 0.2774,1.8125 0,2.5 -0.2774,0.6875 -0.5044,0.125 -0.5044,-1.25 z m 112.037,-0.5 c 0.02,-1.65 0.2445,-2.2039 0.4981,-1.231 0.2535,0.973 0.2369,2.323 -0.037,3 -0.2739,0.6771 -0.4813,-0.119 -0.461,-1.769 z m -631.92587,-12.193 c 0.97297,-0.2535 2.32297,-0.2369 3,0.037 0.67703,0.2739 -0.11903,0.4813 -1.76903,0.461 -1.65,-0.02 -2.20394,-0.2445 -1.23097,-0.4981 z m 19,-1 c 0.97297,-0.2535 2.32297,-0.2369 3,0.037 0.67703,0.2739 -0.11903,0.4813 -1.76903,0.461 -1.65,-0.02 -2.20394,-0.2445 -1.23097,-0.4981 z m 19,-1 c 0.97297,-0.2535 2.32297,-0.2369 3,0.037 0.67703,0.2739 -0.11903,0.4813 -1.76903,0.461 -1.65,-0.02 -2.20394,-0.2445 -1.23097,-0.4981 z m 18.99997,-1 c 0.973,-0.2535 2.323,-0.2369 3,0.037 0.6771,0.2739 -0.119,0.4813 -1.769,0.461 -1.65,-0.02 -2.2039,-0.2445 -1.231,-0.4981 z m 19,-1 c 0.973,-0.2535 2.323,-0.2369 3,0.037 0.6771,0.2739 -0.119,0.4813 -1.769,0.461 -1.65,-0.02 -2.2039,-0.2445 -1.231,-0.4981 z m 22.1358,-24.807 c 0,-8.8 0.1542,-12.2661 0.34,-7.7025 0.1857,4.5636 0.1846,11.7636 0,16 -0.187,4.2364 -0.339,0.5025 -0.3377,-8.2975 z m 421.7531,9.5 c 0,-1.375 0.227,-1.9375 0.5044,-1.25 0.2774,0.6875 0.2774,1.8125 0,2.5 -0.2774,0.6875 -0.5044,0.125 -0.5044,-1.25 z m 112.037,-1.5 c 0.02,-1.65 0.2445,-2.2039 0.4981,-1.231 0.2535,0.973 0.2369,2.323 -0.037,3 -0.2739,0.6771 -0.4813,-0.119 -0.461,-1.769 z m -645.94272,-27 c 0.0111,-2.2 0.21589,-2.9823 0.45508,-1.7383 0.23919,1.2439 0.23011,3.0439 -0.0202,4 -0.25029,0.956 -0.446,-0.062 -0.4349,-2.2617 z m -309.05723,-2 c 0.0204,-1.65 0.2445,-2.2039 0.49804,-1.231 0.25354,0.973 0.23687,2.323 -0.0371,3 -0.27393,0.6771 -0.48137,-0.119 -0.46099,-1.769 z m 111.884,-5.0833 c 0.048,-1.165 0.28494,-1.4019 0.60416,-0.6042 0.28887,0.7219 0.25335,1.5844 -0.0789,1.9167 -0.33229,0.3323 -0.56864,-0.2584 -0.52522,-1.3125 z m 561.23995,-85.166 c 13.1003,-0.158 34.2503,-0.1578 47,4e-4 12.7496,0.1582 2.0311,0.2874 -23.8189,0.2872 -25.85,-2e-4 -36.2815,-0.1296 -23.1811,-0.2876 z m -471.0689,-7.94 c 0.9625,-0.2516 2.5375,-0.2516 3.5,0 0.9625,0.2515 0.175,0.4573 -1.75,0.4573 -1.925,0 -2.7125,-0.2058 -1.75,-0.4573 z m 13.01903,0 c 0.97297,-0.2535 2.32297,-0.2369 3,0.037 0.67703,0.2739 -0.11903,0.4813 -1.76903,0.461 -1.65,-0.02 -2.20394,-0.2445 -1.23097,-0.4981 z M 1695.4562,2231 c 0,-22.275 0.1317,-31.3875 0.2926,-20.25 0.1609,11.1375 0.1609,29.3625 0,40.5 -0.1609,11.1375 -0.2926,2.025 -0.2926,-20.25 z m -177.5838,10.25 c -1.2438,-1.5861 -1.2085,-1.6214 0.3776,-0.3776 0.9625,0.7549 1.75,1.5424 1.75,1.75 0,0.8231 -0.8212,0.2933 -2.1276,-1.3724 z M 671,2239.6224 c 0,-0.2076 0.7875,-0.9951 1.75,-1.75 1.58606,-1.2438 1.62143,-1.2085 0.37756,0.3776 -1.30637,1.6657 -2.12756,2.1955 -2.12756,1.3724 z m 314.94617,-8.3724 -3.44617,-3.75 3.75,3.4462 c 2.0625,1.8954 3.75,3.5829 3.75,3.75 0,0.7636 -0.84622,0.044 -4.05383,-3.4462 z m 520.92623,-1 c -1.2438,-1.5861 -1.2085,-1.6214 0.3776,-0.3776 0.9625,0.7549 1.75,1.5424 1.75,1.75 0,0.8231 -0.8212,0.2933 -2.1276,-1.3724 z M 2378,2187.6224 c 0,-0.2076 0.7875,-0.9951 1.75,-1.75 1.5861,-1.2438 1.6214,-1.2085 0.3776,0.3776 -1.3064,1.6657 -2.1276,2.1955 -2.1276,1.3724 z m -984.1875,-5.3055 c 0.7219,-0.2889 1.5844,-0.2534 1.9167,0.079 0.3323,0.3323 -0.2584,0.5687 -1.3125,0.5253 -1.165,-0.048 -1.4019,-0.285 -0.6042,-0.6042 z m 402.9375,-0.067 c 51.8375,-0.1432 136.6625,-0.1432 188.5,0 51.8375,0.1431 9.425,0.2602 -94.25,0.2602 -103.675,0 -146.0875,-0.1171 -94.25,-0.2602 z m -987.9375,-7.9332 c 0.72187,-0.2889 1.58438,-0.2534 1.91667,0.079 0.33229,0.3323 -0.25834,0.5687 -1.3125,0.5253 -1.16495,-0.048 -1.4019,-0.285 -0.60417,-0.6042 z m 46,0 c 0.72187,-0.2889 1.58438,-0.2534 1.91667,0.079 0.33229,0.3323 -0.25834,0.5687 -1.3125,0.5253 -1.16495,-0.048 -1.4019,-0.285 -0.60417,-0.6042 z M 2475.75,2000.3377 c 0.6875,-0.2774 1.8125,-0.2774 2.5,0 0.6875,0.2774 0.125,0.5044 -1.25,0.5044 -1.375,0 -1.9375,-0.227 -1.25,-0.5044 z m 31,0 c 0.6875,-0.2774 1.8125,-0.2774 2.5,0 0.6875,0.2774 0.125,0.5044 -1.25,0.5044 -1.375,0 -1.9375,-0.227 -1.25,-0.5044 z m -1852.5,-9.0868 c 13.0625,-0.1579 34.4375,-0.1579 47.5,0 13.0625,0.1579 2.375,0.2871 -23.75,0.2871 -26.125,0 -36.8125,-0.1292 -23.75,-0.2871 z m 605.5,-8e-4 c 51.8375,-0.1432 136.6625,-0.1432 188.5,0 51.8375,0.1431 9.425,0.2602 -94.25,0.2602 -103.675,0 -146.0875,-0.1171 -94.25,-0.2602 z m 435.5,8e-4 c 13.0625,-0.1579 34.4375,-0.1579 47.5,0 13.0625,0.1579 2.375,0.2871 -23.75,0.2871 -26.125,0 -36.8125,-0.1292 -23.75,-0.2871 z m 313.4306,10e-5 c 13.2993,-0.1574 35.3493,-0.1576 49,-3e-4 13.6507,0.1572 2.7694,0.286 -24.1806,0.2862 -26.95,2e-4 -38.1187,-0.1285 -24.8194,-0.2859 z M 3541.4952,1584 c 0,-224.675 0.1146,-316.5875 0.2548,-204.25 0.1401,112.3375 0.1401,296.1625 0,408.5 -0.1402,112.3375 -0.2548,20.425 -0.2548,-204.25 z m -1992.0385,359.5 c -3e-4,-22.55 0.1311,-31.9176 0.2919,-20.817 0.1608,11.1007 0.161,29.5507 5e-4,41 -0.1606,11.4494 -0.2922,2.367 -0.2924,-20.183 z m 794.9483,4.25 -1.905,-2.25 2.25,1.905 c 2.1144,1.7902 2.7052,2.595 1.905,2.595 -0.1898,0 -1.2023,-1.0125 -2.25,-2.25 z M 2645,1943.5 c 2.9874,-3.025 5.6567,-5.5 5.9317,-5.5 0.275,0 -1.9443,2.475 -4.9317,5.5 -2.9874,3.025 -5.6567,5.5 -5.9317,5.5 -0.275,0 1.9443,-2.475 4.9317,-5.5 z m -309.595,-4.75 -1.905,-2.25 2.25,1.905 c 2.1144,1.7902 2.7052,2.595 1.905,2.595 -0.1898,0 -1.2023,-1.0125 -2.25,-2.25 z m 87.5412,-61.5 -3.4462,-3.75 3.75,3.4462 c 3.4904,3.2076 4.2098,4.0538 3.4462,4.0538 -0.1671,0 -1.8546,-1.6875 -3.75,-3.75 z M 2565,1873.6224 c 0,-0.2076 0.7875,-0.9951 1.75,-1.75 1.5861,-1.2438 1.6214,-1.2085 0.3776,0.3776 -1.3064,1.6657 -2.1276,2.1955 -2.1276,1.3724 z M 2394.1579,1809 c 0,-1.375 0.227,-1.9375 0.5044,-1.25 0.2774,0.6875 0.2774,1.8125 0,2.5 -0.2774,0.6875 -0.5044,0.125 -0.5044,-1.25 z m 197,-2 c 0,-1.375 0.227,-1.9375 0.5044,-1.25 0.2774,0.6875 0.2774,1.8125 0,2.5 -0.2774,0.6875 -0.5044,0.125 -0.5044,-1.25 z m -308.9259,-5 c 0,-1.925 0.2058,-2.7125 0.4573,-1.75 0.2516,0.9625 0.2516,2.5375 0,3.5 -0.2515,0.9625 -0.4573,0.175 -0.4573,-1.75 z m 421.0404,-3 c 0,-2.475 0.195,-3.4875 0.4333,-2.25 0.2384,1.2375 0.2384,3.2625 0,4.5 -0.2383,1.2375 -0.4333,0.225 -0.4333,-2.25 z m -13.0034,-38.693 c 0.973,-0.2535 2.323,-0.2369 3,0.037 0.6771,0.2739 -0.119,0.4813 -1.769,0.461 -1.65,-0.02 -2.2039,-0.2445 -1.231,-0.4981 z m -19.519,-0.9693 c 0.6875,-0.2774 1.8125,-0.2774 2.5,0 0.6875,0.2774 0.125,0.5044 -1.25,0.5044 -1.375,0 -1.9375,-0.227 -1.25,-0.5044 z m -19,-1 c 0.6875,-0.2774 1.8125,-0.2774 2.5,0 0.6875,0.2774 0.125,0.5044 -1.25,0.5044 -1.375,0 -1.9375,-0.227 -1.25,-0.5044 z m -19,-1 c 0.6875,-0.2774 1.8125,-0.2774 2.5,0 0.6875,0.2774 0.125,0.5044 -1.25,0.5044 -1.375,0 -1.9375,-0.227 -1.25,-0.5044 z m -19,-1 c 0.6875,-0.2774 1.8125,-0.2774 2.5,0 0.6875,0.2774 0.125,0.5044 -1.25,0.5044 -1.375,0 -1.9375,-0.227 -1.25,-0.5044 z M 766.82176,1636.2505 c 16.67697,-0.154 43.67697,-0.1539 60,2e-4 16.32303,0.1541 2.67824,0.2801 -30.32176,0.28 -33,-2e-4 -46.35521,-0.1263 -29.67824,-0.2802 z M 1458.4562,1582 c 0,-22.275 0.1317,-31.3875 0.2926,-20.25 0.1609,11.1375 0.1609,29.3625 0,40.5 -0.1609,11.1375 -0.2926,2.025 -0.2926,-20.25 z M 972,1591.6224 c 0,-0.2076 0.7875,-0.9951 1.75,-1.75 1.58606,-1.2438 1.62143,-1.2085 0.37756,0.3776 -1.30637,1.6657 -2.12756,2.1955 -2.12756,1.3724 z m 1042,-9 c 0,-0.2076 0.7875,-0.9951 1.75,-1.75 1.5861,-1.2438 1.6214,-1.2085 0.3776,0.3776 -1.3064,1.6657 -2.1276,2.1955 -2.1276,1.3724 z m -1031,-2 c 0,-0.2076 0.7875,-0.9951 1.75,-1.75 1.58606,-1.2438 1.62143,-1.2085 0.37756,0.3776 -1.30637,1.6657 -2.12756,2.1955 -2.12756,1.3724 z m -150.1875,-34.3055 c 0.72187,-0.2889 1.58438,-0.2534 1.91667,0.079 0.33229,0.3323 -0.25834,0.5687 -1.3125,0.5253 -1.16495,-0.048 -1.4019,-0.285 -0.60417,-0.6042 z m 1043,-6 c 0.7219,-0.2889 1.5844,-0.2534 1.9167,0.079 0.3323,0.3323 -0.2584,0.5687 -1.3125,0.5253 -1.165,-0.048 -1.4019,-0.285 -0.6042,-0.6042 z m -833.7336,-104.9002 c 0.048,-1.165 0.285,-1.4019 0.6042,-0.6042 0.2889,0.7219 0.2534,1.5844 -0.079,1.9167 -0.3323,0.3323 -0.5687,-0.2584 -0.5253,-1.3125 z M 931.27236,1418 c 0,-2.475 0.19502,-3.4875 0.43337,-2.25 0.23836,1.2375 0.23836,3.2625 0,4.5 -0.23835,1.2375 -0.43337,0.225 -0.43337,-2.25 z m 1040.92254,-0.5 c 0.02,-1.65 0.2445,-2.2039 0.4981,-1.231 0.2535,0.973 0.2369,2.323 -0.037,3 -0.2739,0.6771 -0.4813,-0.119 -0.461,-1.769 z m 112.0775,-1.5 c 0,-2.475 0.195,-3.4875 0.4333,-2.25 0.2384,1.2375 0.2384,3.2625 0,4.5 -0.2383,1.2375 -0.4333,0.225 -0.4333,-2.25 z m -1040.8906,-8.5 c 0,-6.6 0.1638,-9.1699 0.3596,-5.7108 0.1958,3.459 0.1942,8.859 0,12 -0.1978,3.1409 -0.358,0.3108 -0.356,-6.2892 z m 1565.8872,1.807 c 0.973,-0.2535 2.323,-0.2369 3,0.037 0.6771,0.2739 -0.119,0.4813 -1.769,0.461 -1.65,-0.02 -2.2039,-0.2445 -1.231,-0.4981 z m 19,-1 c 0.973,-0.2535 2.323,-0.2369 3,0.037 0.6771,0.2739 -0.119,0.4813 -1.769,0.461 -1.65,-0.02 -2.2039,-0.2445 -1.231,-0.4981 z m 19,-1 c 0.973,-0.2535 2.323,-0.2369 3,0.037 0.6771,0.2739 -0.119,0.4813 -1.769,0.461 -1.65,-0.02 -2.2039,-0.2445 -1.231,-0.4981 z m 19,-1 c 0.973,-0.2535 2.323,-0.2369 3,0.037 0.6771,0.2739 -0.119,0.4813 -1.769,0.461 -1.65,-0.02 -2.2039,-0.2445 -1.231,-0.4981 z M 931.27236,1402 c 0,-2.475 0.19502,-3.4875 0.43337,-2.25 0.23836,1.2375 0.23836,3.2625 0,4.5 -0.23835,1.2375 -0.43337,0.225 -0.43337,-2.25 z m 1753.99664,3.307 c 0.973,-0.2535 2.323,-0.2369 3,0.037 0.6771,0.2739 -0.119,0.4813 -1.769,0.461 -1.65,-0.02 -2.2039,-0.2445 -1.231,-0.4981 z M 2084.2724,1395 c 0,-2.475 0.195,-3.4875 0.4333,-2.25 0.2384,1.2375 0.2384,3.2625 0,4.5 -0.2383,1.2375 -0.4333,0.225 -0.4333,-2.25 z m -112.0775,-0.5 c 0.02,-1.65 0.2445,-2.2039 0.4981,-1.231 0.2535,0.973 0.2369,2.323 -0.037,3 -0.2739,0.6771 -0.4813,-0.119 -0.461,-1.769 z m -1042.11595,-9.0833 c 0.048,-1.165 0.28494,-1.4019 0.60416,-0.6042 0.28887,0.7219 0.25335,1.5844 -0.0789,1.9167 -0.33229,0.3323 -0.56864,-0.2584 -0.52522,-1.3125 z m 111.99995,-6 c 0.048,-1.165 0.285,-1.4019 0.6042,-0.6042 0.2889,0.7219 0.2534,1.5844 -0.079,1.9167 -0.3323,0.3323 -0.5687,-0.2584 -0.5253,-1.3125 z m 1041,-3 c 0.048,-1.165 0.285,-1.4019 0.6042,-0.6042 0.2889,0.7219 0.2534,1.5844 -0.079,1.9167 -0.3323,0.3323 -0.5687,-0.2584 -0.5253,-1.3125 z M 2703.2724,1366 c 0,-2.475 0.195,-3.4875 0.4333,-2.25 0.2384,1.2375 0.2384,3.2625 0,4.5 -0.2383,1.2375 -0.4333,0.225 -0.4333,-2.25 z m -421.0404,-3 c 0,-1.925 0.2058,-2.7125 0.4573,-1.75 0.2516,0.9625 0.2516,2.5375 0,3.5 -0.2515,0.9625 -0.4573,0.175 -0.4573,-1.75 z m 308.9259,-5 c 0,-1.375 0.227,-1.9375 0.5044,-1.25 0.2774,0.6875 0.2774,1.8125 0,2.5 -0.2774,0.6875 -0.5044,0.125 -0.5044,-1.25 z m -197,-1 c 0,-1.375 0.227,-1.9375 0.5044,-1.25 0.2774,0.6875 0.2774,1.8125 0,2.5 -0.2774,0.6875 -0.5044,0.125 -0.5044,-1.25 z m 307.921,-8.5833 c 0.048,-1.165 0.285,-1.4019 0.6042,-0.6042 0.2889,0.7219 0.2534,1.5844 -0.079,1.9167 -0.3323,0.3323 -0.5687,-0.2584 -0.5253,-1.3125 z M 892.43709,1296.75 889.5,1293.5 l 3.25,2.9371 c 3.02946,2.7378 3.70965,3.5629 2.93709,3.5629 -0.1721,0 -1.6346,-1.4625 -3.25,-3.25 z m 1042.00001,0 -2.9371,-3.25 3.25,2.9371 c 3.0295,2.7378 3.7097,3.5629 2.9371,3.5629 -0.1721,0 -1.6346,-1.4625 -3.25,-3.25 z m -384.9804,-75.25 c -3e-4,-22.55 0.1311,-31.9176 0.2919,-20.817 0.1608,11.1007 0.161,29.5507 5e-4,41 -0.1606,11.4494 -0.2922,2.367 -0.2924,-20.183 z m 940.807,39.7824 c 1.5201,-0.2298 3.7701,-0.2237 5,0.014 1.23,0.2373 -0.014,0.4254 -2.7637,0.4179 -2.75,-0.01 -3.7563,-0.2017 -2.2363,-0.4316 z M 981.87244,1231.25 c -1.24387,-1.5861 -1.2085,-1.6214 0.37756,-0.3776 1.66575,1.3064 2.19548,2.1276 1.37244,2.1276 -0.20765,0 -0.99515,-0.7875 -1.75,-1.75 z M 2338.5,1223 c 2.1482,-2.2 4.1309,-4 4.4059,-4 0.275,0 -1.2577,1.8 -3.4059,4 -2.1482,2.2 -4.1309,4 -4.4059,4 -0.275,0 1.2577,-1.8 3.4059,-4 z m 307.905,-0.25 -1.905,-2.25 2.25,1.905 c 2.1144,1.7902 2.7052,2.595 1.905,2.595 -0.1898,0 -1.2023,-1.0125 -2.25,-2.25 z m -1675.00001,-2 -1.90499,-2.25 2.25,1.905 c 1.2375,1.0477 2.25,2.0602 2.25,2.25 0,0.8002 -0.80479,0.2094 -2.59501,-1.905 z M 856.75,1173.3377 c 0.6875,-0.2774 1.8125,-0.2774 2.5,0 0.6875,0.2774 0.125,0.5044 -1.25,0.5044 -1.375,0 -1.9375,-0.227 -1.25,-0.5044 z m 1041.0625,-0.021 c 0.7219,-0.2889 1.5844,-0.2534 1.9167,0.079 0.3323,0.3323 -0.2584,0.5687 -1.3125,0.5253 -1.165,-0.048 -1.4019,-0.285 -0.6042,-0.6042 z m 574,-8 c 0.7219,-0.2889 1.5844,-0.2534 1.9167,0.079 0.3323,0.3323 -0.2584,0.5687 -1.3125,0.5253 -1.165,-0.048 -1.4019,-0.285 -0.6042,-0.6042 z m 40,0 c 0.7219,-0.2889 1.5844,-0.2534 1.9167,0.079 0.3323,0.3323 -0.2584,0.5687 -1.3125,0.5253 -1.165,-0.048 -1.4019,-0.285 -0.6042,-0.6042 z"
         style="fill:#596679" />
      <path
         inkscape:connector-curvature="0"
         id="path899"
         d="M 819.5,3009.3831 C 762.15746,3006.1397 718.75929,2988.7665 683.65172,2955 c -33.8099,-32.5184 -51.43527,-68.1808 -59.30737,-120 -1.61402,-10.6245 -1.77461,-28.3621 -2.10951,-233 -0.37512,-229.2132 -0.20324,-241.4963 3.691,-263.7789 9.69279,-55.4615 36.9849,-99.2615 80.39092,-129.0162 24.19562,-16.586 53.02042,-27.4892 86.88617,-32.8655 14.1447,-2.2455 61.33766,-2.5921 74.79707,-0.5493 52.01907,7.8951 88.77969,25.6083 120.0631,57.853 28.2984,29.1679 44.32,62.0297 52.0973,106.8569 1.6419,9.4632 2.1837,17.8136 2.5633,39.5 0.4721,26.9772 0.4404,27.5516 -1.6646,30.2128 -1.2423,1.5707 -3.4959,2.9312 -5.3524,3.2315 -3.3112,0.5356 -78.16442,4.4872 -89.7067,4.7358 -13.60028,0.2928 -13.99733,-0.4833 -14.0082,-27.3804 -0.009,-22.2257 -1.01658,-33.9153 -4.01728,-46.6067 -7.2285,-30.5726 -29.13992,-56.3217 -57.19055,-67.2072 -12.08539,-4.69 -22.54833,-6.4189 -38.78397,-6.4089 -14.7895,0.01 -21.4743,0.9464 -33,4.6271 -27.28618,8.7137 -49.56347,31.3529 -58.84023,59.796 -6.00447,18.4101 -5.53584,-1.519 -5.90227,251 -0.23657,163.0293 -0.0139,232.9881 0.76086,239 3.23894,25.1349 12.73208,45.6393 28.37021,61.2775 14.40446,14.4044 31.2074,22.6531 52.48209,25.7639 10.23578,1.4967 30.86315,0.7805 40.87186,-1.4191 34.55191,-7.5933 61.44114,-34.0774 70.68728,-69.6223 3.43078,-13.1889 4.5702,-25.5394 4.5702,-49.5375 v -20.6163 l 2.92308,-2.9231 c 3.61205,-3.6121 0.84041,-3.5877 58.31301,-0.512 47.14391,2.523 47.99141,2.6628 49.36601,8.1398 1.2092,4.8177 -0.3425,53.5223 -2.0374,63.9491 -7.1016,43.689 -22.9985,77.8719 -49.65893,106.7808 -31.69689,34.3702 -72.70444,54.5893 -123.90577,61.093 -12.01491,1.5262 -37.20355,2.5916 -47.5,2.0093 z m 880.8154,-9.3901 c -1.2016,-0.4841 -2.6641,-1.776 -3.25,-2.8709 -0.7065,-1.3201 -1.0654,-16.4965 -1.0654,-45.0564 0,-41.3205 0.079,-43.1445 1.9442,-45.0099 1.0693,-1.0693 3.4318,-2.211 5.25,-2.5369 1.8182,-0.326 87.6073,-0.4636 190.6425,-0.3058 l 187.3366,0.2869 2.4134,2.8058 2.4133,2.8057 v 41.8972 c 0,28.5758 -0.353,42.672 -1.1103,44.334 -0.6106,1.3402 -2.2068,2.9364 -3.547,3.547 -3.0085,1.3708 -377.6295,1.4723 -381.0273,0.1033 z m -538.9513,-1.1626 c -1.1748,-0.5688 -2.6373,-2.1345 -3.25,-3.4794 -0.8129,-1.784 -1.1141,-111.2722 -1.1141,-404.975 v -402.5298 l 2.9614,-2.9614 2.9614,-2.9614 119.2886,0.3291 c 130.5564,0.3603 123.341,0.05 148.2657,6.3684 64.742,16.4113 114.7704,68.3861 135.9385,141.2274 13.8486,47.6541 15.0493,107.9506 3.0892,155.1327 -10.6658,42.0765 -33.7037,81.5489 -61.998,106.2255 -9.4789,8.2669 -25.9517,19.4926 -35.8972,24.4627 -8.5453,4.2704 -10.6096,5.9707 -10.6096,8.7389 0,1.1539 27.225,83.7703 60.5,183.5919 36.7487,110.2425 60.5,182.9582 60.5,185.2238 0,7.0679 1.7546,6.8639 -56.3463,6.5527 l -51.6165,-0.2765 -3.004,-3.0046 c -2.7074,-2.708 -8.4011,-20.4305 -57.6686,-179.5 -30.0656,-97.0725 -55.3419,-177.2829 -56.1696,-178.2454 -1.3892,-1.6153 -4.758,-1.75 -43.7786,-1.75 -37.0972,0 -42.466,0.1924 -43.845,1.5714 -1.4167,1.4168 -1.5714,18.9962 -1.5714,178.577 v 177.0054 l -2.9231,2.9231 -2.9231,2.9231 -49.3269,-0.068 c -31.7896,-0.044 -50.0863,-0.4354 -51.4628,-1.1019 z M 1376,2548.5386 c 21.7401,-3.3173 38.4939,-11.9755 53.5604,-27.6795 C 1454.1529,2495.2261 1466,2460.8094 1466,2415 c 0,-47.7255 -12.6211,-84.0655 -37.869,-109.0364 -13.3103,-13.1643 -28.2264,-21.4166 -46.131,-25.522 -6.4009,-1.4676 -14.944,-1.7852 -58.2937,-2.167 -45.4853,-0.4006 -51.0503,-0.2792 -53.25,1.1621 l -2.4563,1.6094 v 132.9055 c 0,119.4899 0.1586,133.0642 1.5714,134.477 1.3848,1.3848 7.234,1.5707 49.25,1.5655 36.5838,0 49.8892,-0.3432 57.1786,-1.4555 z m 830.3641,450.2918 c -2.4053,-1.1646 -4.3683,-4.8277 -4.3556,-8.1275 0,-1.2116 39.3427,-181.7085 87.4178,-401.1043 63.7907,-291.1157 87.9304,-399.6036 89.3379,-401.5 3.8147,-5.1399 2.9443,-5.0681 61.5847,-5.0839 60.0472,-0.016 60.2466,0 62.5133,5.8055 0.5758,1.4739 40.8991,182.1895 89.6075,401.5903 65.3195,294.2234 88.3954,399.7914 87.9309,402.2675 -0.3464,1.8464 -1.7639,4.2492 -3.15,5.3396 -2.4373,1.9171 -4.1834,1.9824 -52.9855,1.9824 H 2573.8 l -3.2413,-3.25 c -3.1016,-3.1099 -3.4267,-4.22 -7.5407,-25.75 -19.8306,-103.7787 -22.7522,-118.219 -24.0901,-119.0657 -0.8247,-0.5219 -42.4574,-0.9101 -98.5555,-0.919 -76.503,-0.012 -97.3455,0.2501 -98.1539,1.2347 -0.5645,0.6875 -7.3619,32.975 -15.1052,71.75 -13.9284,69.7469 -14.1112,70.5294 -17.1118,73.25 l -3.0331,2.75 -49.2342,-0.068 c -31.7257,-0.044 -49.9938,-0.4354 -51.3701,-1.1019 z M 2521.7854,2759 c 0.4532,-3.9702 -76.7248,-402.3169 -78.2474,-403.8667 -1.133,-1.1532 -1.5077,-1.0583 -2.399,0.607 -1.2431,2.3227 -80.139,398.3449 -80.139,402.2619 0,1.4655 0.3027,2.9671 0.6726,3.3371 0.3699,0.3699 36.4824,0.5574 80.25,0.4166 L 2521.5,2761.5 Z m -821.47,-120.007 c -1.2016,-0.4841 -2.6641,-1.776 -3.25,-2.8709 -0.7063,-1.3197 -1.0654,-16.4414 -1.0654,-44.8678 0,-41.3427 0.071,-42.9532 1.9789,-45.0013 1.1322,-1.2152 3.8065,-2.3847 6.25,-2.7331 2.3491,-0.3349 67.6476,-0.4764 145.1078,-0.3144 l 140.8367,0.2945 2.4133,2.8058 2.4133,2.8057 v 41.8972 c 0,28.5758 -0.353,42.672 -1.1103,44.334 -0.6106,1.3402 -2.2068,2.9364 -3.547,3.547 -3.003,1.3683 -286.6371,1.4693 -290.0273,0.1033 z m 0,-360.9959 c -1.2016,-0.4864 -2.6641,-1.7801 -3.25,-2.875 -0.7064,-1.3197 -1.0654,-16.4455 -1.0654,-44.882 v -42.8915 l 2.3145,-2.1743 2.3144,-2.1743 h 190.613 190.6129 l 2.1028,2.6732 c 2.0738,2.6364 2.0989,3.2698 1.8226,45.9651 -0.2589,40.0074 -0.4157,43.4273 -2.0659,45.0768 -1.7,1.6993 -10.8837,1.794 -191.5,1.9756 -108.1135,0.1086 -190.654,-0.1897 -191.8989,-0.6936 z M 2469.5,1999.9874 c -52.3827,-4.6171 -95.1407,-23.1481 -127.6362,-55.3168 -32.5826,-32.2549 -50.2356,-69.2512 -57.5787,-120.6706 -1.6716,-11.7052 -1.7851,-26.9645 -1.7851,-240 0,-183.9868 0.2568,-229.6996 1.3425,-239 6.1498,-52.6772 24.4553,-91.7877 58.3003,-124.5609 30.2064,-29.2499 65.4352,-45.8306 112.8572,-53.1172 8.6931,-1.3357 17.724,-1.7728 37,-1.7907 26.0481,-0.024 34.1039,0.6637 54,4.6116 69.9309,13.8759 123.5991,60.4016 145.5057,126.1408 8.3269,24.988 11.5502,46.9228 11.8237,80.4616 0.1857,22.7637 -0.2835,25.2082 -5.2131,27.1575 -4.2141,1.6664 -96.4654,6.2202 -100.1301,4.9427 -5.4496,-1.8998 -5.9862,-4.4159 -5.9862,-28.072 0,-23.9267 -0.9618,-34.037 -4.5242,-47.5569 -4.4889,-17.0357 -12.2534,-30.8945 -24.4072,-43.5637 -7.0197,-7.3173 -19.424,-16.1599 -27.5792,-19.6601 -20.9344,-8.9849 -48.9765,-10.9573 -71.5866,-5.0351 -37.4883,9.8191 -63.4978,41.9356 -68.85,85.0162 -0.7088,5.705 -1.0528,81.9574 -1.0528,233.3716 0,198.7797 0.1815,226.1204 1.563,235.424 5.2392,35.2845 23.2928,61.7198 51.7006,75.7038 15.3468,7.5545 21.9635,8.8766 44.7364,8.939 17.2824,0.047 20.4666,-0.2069 28,-2.2355 33.5066,-9.0229 58.4343,-34.3649 67.5538,-68.6767 3.3875,-12.7453 4.4265,-23.9453 4.4527,-48 0.016,-14.9036 0.3901,-21.7258 1.2875,-23.5 2.7453,-5.4275 2.6969,-5.4251 54.7517,-2.6525 51.7292,2.7554 53.1663,2.9766 54.6898,8.4207 1.267,4.5276 0.4161,43.4895 -1.2439,56.957 -3.2979,26.7552 -9.834,48.7627 -21.1572,71.2373 -9.0407,17.9443 -17.7002,30.2108 -31.3344,44.3861 -28.5451,29.678 -59.3445,46.6736 -101.5,56.0093 -19.5845,4.3371 -56.4752,6.5267 -78,4.6295 z m 965.7424,-0.4815 c -1.8113,-0.7872 -3.6982,-2.5746 -4.25,-4.0259 -1.3717,-3.6078 -1.3704,-819.3555 0,-822.9633 2.0315,-5.343 3.7475,-5.5167 54.5064,-5.5167 49.5751,0 51.9367,0.2105 54.4195,4.8496 1.5321,2.8628 1.5321,821.438 0,824.3008 -2.4872,4.6474 -4.8124,4.8521 -54.6374,4.8105 -38.0815,-0.032 -47.388,-0.3025 -50.0397,-1.455 z M 625.52082,1988.6117 c -1.31355,-1.3135 -2.65818,-3.901 -2.98807,-5.75 -0.32989,-1.8489 -0.47221,-183.464 -0.31627,-403.589 l 0.28352,-400.2273 2.77257,-2.7727 2.77256,-2.7727 110.22744,-0.3015 c 114.90892,-0.3142 126.22565,-0.011 146.6727,3.9339 74.67913,14.4071 131.20023,73.8757 150.99353,158.8676 5.3727,23.0702 6.4987,35.4591 6.4987,71.5 0,30.3642 -0.2417,35.5506 -2.2607,48.5 -7.0944,45.5037 -21.4224,80.384 -45.95542,111.8744 -25.4962,32.7267 -62.74729,56.128 -101.97235,64.0594 -18.5438,3.7496 -25.5749,4.0659 -90.7228,4.0815 -38.59946,0.01 -64.62193,0.3919 -65.52623,0.9635 -1.32081,0.8348 -1.55973,21.7485 -2,175.0713 l -0.5,174.1233 -2.80576,2.4133 -2.80577,2.4133 H 677.89878 627.90909 Z M 842,1545.5386 c 21.09685,-3.2191 36.85275,-11.2274 52.06414,-26.4626 22.37739,-22.4125 33.87306,-51.3081 37.11601,-93.2952 2.08453,-26.9888 -1.65436,-59.7971 -9.27575,-81.3932 -12.9572,-36.7159 -36.50479,-61.1207 -68.60781,-71.1052 l -8.79659,-2.7359 -53.83899,-0.3219 c -40.07654,-0.2395 -54.19968,-0.022 -55.25,0.8493 -1.20204,0.9976 -1.41101,21.3389 -1.41101,137.3485 0,104.5826 0.27842,136.456 1.2,137.3776 1.88869,1.8887 94.18979,1.6628 106.8,-0.2614 z m 319.4545,443.0069 -2.4545,-2.4546 0.014,-41.7954 c 0.01,-22.9875 0.2897,-42.826 0.6271,-44.0855 1.4743,-5.5038 -9.5418,-5.21 195.355,-5.21 h 189.0951 l 2.4546,2.4545 2.4545,2.4546 v 43.3711 43.3712 l -2.3145,2.1743 -2.3144,2.1743 h -190.231 -190.231 l -2.4546,-2.4545 z m 505.0801,0.08 c -1.436,-1.4361 -2.6195,-4.1038 -2.9946,-6.75 -0.3411,-2.4066 -0.4897,-184.0279 -0.3301,-403.6029 l 0.2901,-399.2273 2.7729,-2.7727 2.773,-2.7727 h 116.727 c 126.339,0 125.4151,-0.034 148.124,5.5192 32.2233,7.8805 59.5785,22.9197 83.3509,45.8243 46.6255,44.9233 71.2875,117.8869 66.7353,197.4391 -2.8368,49.5732 -15.2494,89.1454 -39.1202,124.7174 -17.5886,26.2104 -39.1073,45.6271 -65.9056,59.4679 -4.9395,2.5511 -9.6427,5.6484 -10.4515,6.8829 -1.3698,2.0906 2.7098,14.7867 59.5097,185.1969 33.5392,100.6237 60.9813,184.1898 60.9824,185.7023 0,1.5125 -0.8979,3.65 -1.9979,4.75 -1.9478,1.9478 -3.3333,2 -53.0497,2 -56.029,0 -55.3094,0.074 -58.4448,-5.9894 -0.8406,-1.6255 -26.0466,-82.0554 -56.0134,-178.7331 -35.7814,-115.4367 -55.0668,-176.2066 -56.1797,-177.0275 -2.0917,-1.5428 -83.894,-1.7999 -86.3124,-0.2712 -1.3211,0.835 -1.5596,22.1929 -2,179.0713 l -0.5,178.1232 -2.8058,2.4134 -2.8057,2.4133 h -49.9897 -49.9897 z m 226.5352,-450.8104 c 27.526,-7.5032 49.9954,-26.8654 64.1919,-55.3152 15.211,-30.4828 19.8025,-76.8896 11.701,-118.2631 -9.6381,-49.221 -39.9212,-83.9854 -80.445,-92.3494 -8.0995,-1.6717 -14.2155,-1.8626 -60.0677,-1.8744 -38.3872,-0.01 -51.3477,0.2846 -52.25,1.1869 -1.7879,1.7879 -1.7386,266.8599 0.05,268.6535 0.9792,0.9819 12.7337,1.1795 54.25,0.9119 l 53,-0.3416 z m -727.2978,92.4707 c -1.5004,-0.228 -3.6379,-1.5713 -4.75,-2.9851 -1.9561,-2.4868 -2.022,-3.933 -2.022,-44.3886 0,-28.9501 0.3476,-42.5811 1.1297,-44.2976 0.6214,-1.3637 2.3089,-2.966 3.75,-3.5607 1.8468,-0.762 45.0805,-1.0034 146.4587,-0.8175 l 143.8385,0.2636 1.9115,2.3608 c 1.8173,2.2443 1.91,4.4899 1.8798,45.5 -0.035,47.306 0.1469,45.8854 -6.0993,47.6768 -3.2352,0.9278 -280.043,1.168 -286.0969,0.2483 z m -0.5021,-360.989 c -1.2265,-0.2369 -3.139,-1.5863 -4.25,-2.9987 -1.9534,-2.4834 -2.0199,-3.9446 -2.0199,-44.386 0,-28.9501 0.3476,-42.5811 1.1297,-44.2976 0.6214,-1.3637 2.3089,-2.9654 3.75,-3.5594 1.8523,-0.7634 58.1123,-1.003 191.9587,-0.8176 l 189.3384,0.2624 1.9116,2.3608 c 1.8158,2.2425 1.9116,4.5129 1.9116,45.3157 0,27.0574 -0.3745,43.6547 -1.0118,44.8455 -0.5564,1.0398 -2.6939,2.3577 -4.75,2.9287 -3.6326,1.0088 -372.7871,1.347 -377.9683,0.3462 z"
         style="fill:#293953" />
    </g>
  </g>
</svg>
