<?xml version="1.0" encoding="utf-8"?>
<!-- Generator: Adobe Illustrator 19.0.0, SVG Export Plug-In . SVG Version: 6.00 Build 0)  -->
<svg version="1.1" id="layer" xmlns="http://www.w3.org/2000/svg" xmlns:xlink="http://www.w3.org/1999/xlink" x="0px" y="0px"
	 viewBox="-153 -46 652 652" style="enable-background:new -153 -46 652 652;" xml:space="preserve">
<style type="text/css">
	.st0{fill:#003770;}
	.st1{fill:#0063AF;}
</style>
<path class="st0" d="M-84.5,324c9.2,5.4,19,11.6,34.3,13.5s47.8-20.9,47.8-20.9s-27.8-1.9-42.3-9.3s-21.9-1.5-21.9-1.5L-84.5,324z"
	/>
<path class="st0" d="M-57.3,271.8c7,5,15.2,11.2,24.2,11.5s26.2-7.7,26.2-7.7s-25.1-4.5-28.9-9.9c-2.2-3.2-6-4.8-9.8-4.4
	L-57.3,271.8z"/>
<path class="st0" d="M-34.5,252.8c-3.6-7.5-5.3-15.9-4.8-24.2c0.4-11.3,3.5-85.5,3.5-85.5s2.7,73.7,3.5,80.3
	c0.7,9.8,6.5,18.4,15.3,22.8C-15.9,261.7-34.5,252.8-34.5,252.8"/>
<path class="st1" d="M-131.5,436.4c15.3-15.1,68.5-59.2,119.2-82.3c35-14.4,42.3-16.1,42.3-16.1s-4.7-20.3-9.4-26.7
	c-5.4-5.5-118.6,41.8-130.3,53.8S-130.3,433.5-131.5,436.4"/>
<path class="st1" d="M-84.5,324c16.1-10.2,49-24.5,90.7-36.6c-0.7-5.4-2.2-10.7-4.7-15.5c-13.7-0.7-64.1,15-77.8,23.7
	C-81.7,306-84.5,323.9-84.5,324"/>
<path class="st1" d="M-57.3,271.8c14.7-5.7,29.8-10.4,45.1-14.1c-0.5-4.2-2.2-8.2-4.9-11.5c-11.2,1.1-22.3,3.7-32.9,7.7
	C-52.5,255.2-57.1,270.7-57.3,271.8"/>
<polygon class="st1" points="-27.5,113.6 -35.8,123.9 -47.2,121.5 -41.4,132.2 -51.5,145.1 -35.8,136 -28.9,142 -28.1,133 
	-18.7,132.2 -27.3,126.4 "/>
<path d="M74.2,232.8h22.4v6.6H82.2v9.4h13.5v6.6H82.2v17.4h-8.1V232.8z"/>
<path d="M99.1,272.8v-40.1h8.1v40.1H99.1z"/>
<path d="M111.9,272.8v-40.1h8.1v33.4h14.3v6.6H111.9z"/>
<path d="M136.6,232.8h12l5.7,28.3l0,0l5.9-28.3h12v40.1h-7.4v-32l0,0l-7.2,32h-6.3l-7.2-32l0,0v32h-7.5V232.8z"/>
<path d="M208.5,246.3c0-5.8-1.2-8.3-4.8-8.3c-4.1,0-5.1,4.1-5.1,15.6c0,12.1,1.7,14.3,5.2,14.3c2.9,0,5.1-1.5,5.1-10.2h8.1
	c0,8.6-2.1,16.1-12.7,16.1c-12.1,0-13.6-8.6-13.6-20.8c0-12.2,1.5-21,13.6-21c11.6,0,12.4,8.5,12.4,14.3H208.5z"/>
<path d="M233,232c12.1,0,13.6,8.7,13.6,20.8s-1.5,20.8-13.6,20.8s-13.6-8.6-13.6-20.8C219.4,240.6,221,232,233,232z M233,267.7
	c4.8,0,5.5-4.1,5.5-14.9s-0.8-14.9-5.5-14.9c-4.8,0-5.6,4.1-5.6,14.9S228.2,267.7,233,267.7z"/>
<path d="M250.1,232.8h12l5.7,28.3l0,0l5.9-28.3h11.9v40.1h-7.4v-32l0,0l-7.2,32h-6.3l-7.1-32l0,0v32h-7.5V232.8z"/>
<path d="M290.3,232.8h12L308,261h0.1l5.8-28.3h12v40.1h-7.4v-32l0,0l-7.2,32h-6.3l-7.1-32l0,0v32h-7.5V232.8z"/>
<path d="M330.7,272.8v-40.1h8.1v40.1H330.7z"/>
<path d="M349.9,260.3v1.2c0,3.8,1.1,6.2,5.4,6.2c2.5,0.1,4.7-1.8,4.8-4.4c0-0.2,0-0.4,0-0.6c0-3.7-1.8-5-7.2-6.8
	c-7.2-2.5-10.5-5.4-10.5-12.1c0-7.8,4.8-11.8,12.4-11.8c7.2,0,12.4,3.1,12.4,10.8v1.1h-7.7c0-3.8-1.3-5.9-4.4-5.9
	c-2.3-0.3-4.4,1.2-4.7,3.5c-0.1,0.4-0.1,0.8,0,1.2c0,2.5,0.8,4,4.2,5.4l6.2,2.7c6.1,2.7,7.6,5.7,7.6,10.6c0,8.5-5.2,12.3-13.9,12.3
	c-9.2,0-12.8-4.3-12.8-11.7v-1.6L349.9,260.3z"/>
<path d="M377.6,260.3v1.2c0,3.8,1,6.2,5.4,6.2c2.6,0.1,4.7-1.8,4.8-4.4c0-0.2,0-0.4,0-0.6c0-3.7-1.9-5-7.2-6.8
	c-7.2-2.5-10.5-5.4-10.5-12.1c0-7.8,4.7-11.8,12.4-11.8c7.2,0,12.4,3.1,12.4,10.8v1.1h-7.7c0-3.8-1.3-5.9-4.4-5.9
	c-2.2-0.3-4.3,1.2-4.7,3.5c-0.1,0.4-0.1,0.8,0,1.3c0,2.5,0.7,4,4.2,5.4l6.2,2.7c6,2.7,7.6,5.7,7.6,10.6c0,8.5-5.2,12.3-13.9,12.3
	c-8.8,0-12.7-4.3-12.7-11.7v-1.6L377.6,260.3z"/>
<path d="M399.3,272.8v-40.1h8.1v40.1H399.3z"/>
<path d="M424.8,232c12.1,0,13.6,8.7,13.6,20.8s-1.5,20.8-13.6,20.8c-12.1,0-13.7-8.6-13.7-20.8C411.1,240.6,412.6,232,424.8,232z
	 M424.8,267.7c4.8,0,5.5-4.1,5.5-14.9s-0.8-14.9-5.5-14.9c-4.8,0-5.6,4.1-5.6,14.9S420.1,267.7,424.8,267.7z"/>
<path d="M451.1,232.8l9.8,27.4l0,0v-27.4h7.7v40.1h-9.2l-10-28.1l0,0v28.1h-7.4v-40.1H451.1z"/>
<path d="M86.1,317.4h-4.3v-31.2H73v-3.8h21.9v3.8h-8.8V317.4z"/>
<path d="M121.4,299.9c0,8.8-1.6,18.2-11.3,18.2s-11.3-9.3-11.3-18.2c0-8.8,1.6-18.2,11.3-18.2S121.4,291.1,121.4,299.9z
	 M103.4,299.9c0,8.1,0.8,14.6,6.8,14.6c6,0,6.8-6.6,6.8-14.6c0-8.1-0.8-14.6-6.8-14.6C104.2,285.3,103.3,291.8,103.4,299.9
	L103.4,299.9z"/>
<path d="M127.7,282.4H139c4.5-0.4,8.5,2.9,9,7.4c0,0.5,0.1,0.9,0,1.4c0,3.8-1.3,7.9-5.4,8.8l0,0c2.9,0.4,5,2.9,4.9,5.8l0.3,6
	c0.2,3.9,0.8,4.8,1.9,5.4h-5.2c-0.8-1.6-1.2-3.3-1.2-5l-0.3-5.4c-0.3-4.6-3-4.8-5.2-4.8h-5.7v15.6h-4.3L127.7,282.4z M132,298.3h4.3
	c2.5,0,7.2,0,7.2-6.8c0-3.4-2.3-5.6-6.3-5.6h-5L132,298.3z"/>
<path d="M154.3,282.4h4.3v35h-4.3V282.4z"/>
<path d="M165.5,282.4h5.6l11.5,29.2l0,0v-29.2h4.3v35H181l-11.2-28.3l0,0v28.3h-4.3L165.5,282.4z"/>
<path d="M216,299.9c0,8.8-1.6,18.2-11.2,18.2s-11.3-9.3-11.3-18.2c0-8.8,1.6-18.2,11.3-18.2S216,291.1,216,299.9z M197.9,299.9
	c0,8.1,0.8,14.6,6.8,14.6s6.7-6.6,6.7-14.6c0-8.1-0.8-14.6-6.7-14.6S197.9,291.8,197.9,299.9z"/>
<path d="M232.9,282.4h8.9c3,0,10.8,0,10.8,10.1c0.4,5.2-3.4,9.7-8.6,10.1c-0.5,0-1,0-1.5,0h-5.4v14.8h-4.2V282.4z M237.1,299.1h5.4
	c3.1,0,5.8-2.2,5.8-6.8c0.4-3-1.6-5.8-4.7-6.3c-0.5-0.1-0.9-0.1-1.4,0h-5.1V299.1z"/>
<path d="M257.7,282.4h4.3v35h-4.3V282.4z"/>
<path d="M268.9,282.4H287v3.8h-13.8v11h13v3.8h-13v12.5h14.4v3.8h-18.7V282.4z"/>
<path d="M292.9,282.4h7.2l7,27.7l0,0l7-27.7h7.2v35H317v-30.6l0,0l-7.7,30.6H305l-7.7-30.6l0,0v30.6h-4.4V282.4z"/>
<path d="M350.4,299.9c0,8.8-1.6,18.2-11.2,18.2s-11.2-9.3-11.2-18.2c0-8.8,1.6-18.2,11.2-18.2S350.4,291.1,350.4,299.9z
	 M332.4,299.9c0,8.1,0.8,14.6,6.8,14.6c6,0,6.8-6.6,6.8-14.6c0-8.1-0.8-14.6-6.8-14.6C333.2,285.3,332.4,291.8,332.4,299.9z"/>
<path d="M356.8,282.4h5.6l11.6,29.2l0,0v-29.2h4.3v35h-5.9l-11.2-28.3l0,0v28.3h-4.3L356.8,282.4z"/>
<path d="M395.9,317.4h-4.3v-31.2h-8.8v-3.8h21.9v3.8h-8.8V317.4z"/>
<path d="M409.1,282.4h18.1v3.8h-13.7v11h13v3.8h-13v12.5h14.3v3.8h-18.6V282.4z"/>
</svg>
