<?xml version="1.0" encoding="utf-8"?>
<!-- Generator: Adobe Illustrator 24.3.0, SVG Export Plug-In . SVG Version: 6.00 Build 0)  -->
<svg version="1.1" id="Livello_1" xmlns="http://www.w3.org/2000/svg" xmlns:xlink="http://www.w3.org/1999/xlink" x="0px" y="0px"
	 width="259px" height="100.3px" viewBox="0 0 259 100.3" style="enable-background:new 0 0 259 100.3;" xml:space="preserve">
<style type="text/css">
	.st0{fill:#2D489D;}
</style>
<path class="st0" d="M135,18.1c-0.2,0-0.3,0-0.5,0s-0.4,0-0.5,0c-0.2,0-0.3,0.1-0.5,0.1c-0.2-2.2-0.3-4.3-0.5-6.3s-0.4-4.1-0.6-6.2
	l0,0c-1,2-2,4.1-3,6.1s-1.9,4.1-2.8,6.3h-0.2c-0.9-2-1.8-4.1-2.8-6.1c-1-2.1-1.9-4.2-2.9-6.3l0,0c-0.1,1-0.2,2.1-0.3,3.3
	c-0.1,1.2-0.2,2.3-0.3,3.5c-0.1,1.1-0.2,2.2-0.3,3.2c-0.1,1-0.1,1.9-0.1,2.6c-0.1,0-0.3-0.1-0.4-0.1s-0.3,0-0.4,0s-0.3,0-0.4,0
	s-0.3,0.1-0.4,0.1c0.2-1.3,0.4-2.8,0.6-4.2c0.2-1.5,0.4-2.9,0.6-4.4s0.4-2.9,0.5-4.4c0.2-1.4,0.3-2.8,0.4-4.1h0.4
	c1,2.3,2,4.5,3.1,6.7c1,2.2,2.1,4.4,3.3,6.7c0.1-0.3,0.4-0.8,0.6-1.3c0.3-0.6,0.6-1.2,1-2c0.4-0.7,0.8-1.5,1.2-2.4s0.9-1.7,1.3-2.6
	c0.4-0.9,0.9-1.8,1.3-2.6c0.4-0.9,0.8-1.7,1.2-2.4h0.3c0.2,1.6,0.3,3.1,0.5,4.5c0.1,1.5,0.3,2.9,0.4,4.3c0.1,1.4,0.3,2.8,0.4,4.2
	c0.1,1.4,0.3,2.8,0.5,4.1C135.4,18.2,135.2,18.2,135,18.1L135,18.1z M139.9,3.2c-0.2,0.2-0.5,0.4-0.8,0.4s-0.6-0.1-0.8-0.4
	C138.1,3,138,2.7,138,2.4s0.1-0.6,0.3-0.9c0.2-0.2,0.5-0.4,0.8-0.4s0.6,0.1,0.8,0.4c0.2,0.2,0.3,0.5,0.3,0.9
	C140.2,2.7,140.1,3,139.9,3.2L139.9,3.2z M138.3,8.9c0-0.8-0.1-1.6-0.1-2.3c0.4,0.1,0.7,0.1,1,0.1s0.6,0,1-0.1
	C140,7.3,140,8.1,140,8.9c0,0.8,0,1.6,0,2.3v2.5c0,0.7,0,1.5,0,2.3c0,0.8,0.1,1.6,0.1,2.3c-0.4-0.1-0.7-0.1-1-0.1s-0.6,0-1,0.1
	c0.1-0.7,0.1-1.4,0.1-2.3c0-0.8,0-1.6,0-2.3v-2.5C138.3,10.4,138.3,9.7,138.3,8.9L138.3,8.9z M152.2,12.7c0,0.7,0,1.5,0,2.3
	c0,0.5,0,1.1,0,1.6s0,1,0,1.6c-0.2,0-0.3-0.1-0.5-0.1c-0.1,0-0.3,0-0.5,0s-0.3,0-0.5,0c-0.1,0-0.3,0.1-0.5,0.1
	c0-0.9,0.1-1.8,0.1-2.7c0-0.9,0.1-1.8,0.1-2.7v-1.5c0-1.2-0.2-2.1-0.7-2.7c-0.4-0.6-1-0.9-1.8-0.9c-1,0-1.8,0.3-2.3,1
	s-0.7,1.7-0.7,2.9v2.1c0,0.7,0,1.5,0,2.3s0.1,1.6,0.1,2.3c-0.4-0.1-0.7-0.1-1-0.1s-0.6,0-1,0.1c0.1-0.7,0.1-1.4,0.1-2.3
	c0-0.8,0-1.6,0-2.3v-2.5c0-0.7,0-1.5,0-2.3S143,7.3,143,6.6c0.4,0.1,0.7,0.1,1,0.1c0.2,0,0.5,0,0.9-0.1c0,0.7-0.1,1.3-0.1,1.9l0,0
	c0.4-0.7,0.9-1.2,1.5-1.6s1.3-0.6,2.1-0.6c0.4,0,0.8,0.1,1.2,0.2s0.8,0.4,1.1,0.7c0.3,0.3,0.6,0.7,0.8,1.3c0.2,0.5,0.3,1.2,0.3,2.1
	C152.2,11.3,152.2,12,152.2,12.7L152.2,12.7z M157.2,3.2c-0.2,0.2-0.5,0.4-0.8,0.4s-0.6-0.1-0.8-0.4c-0.2-0.2-0.3-0.5-0.3-0.9
	c0-0.3,0.1-0.6,0.3-0.9c0.2-0.2,0.5-0.4,0.8-0.4s0.6,0.1,0.8,0.4c0.2,0.2,0.3,0.5,0.3,0.9C157.6,2.7,157.5,3,157.2,3.2L157.2,3.2z
	 M155.6,8.9c0-0.8-0.1-1.6-0.1-2.3c0.4,0.1,0.7,0.1,1,0.1s0.6,0,1-0.1c-0.1,0.7-0.1,1.4-0.1,2.3c0,0.8,0,1.6,0,2.3v2.5
	c0,0.7,0,1.5,0,2.3c0,0.8,0.1,1.6,0.1,2.3c-0.4-0.1-0.7-0.1-1-0.1s-0.6,0-1,0.1c0.1-0.7,0.1-1.4,0.1-2.3c0-0.8,0-1.6,0-2.3v-2.5
	C155.6,10.4,155.6,9.7,155.6,8.9L155.6,8.9z M162.8,11.2c0.4,0.2,0.8,0.3,1.3,0.4c0.5,0.1,0.9,0.3,1.3,0.5c0.4,0.2,0.7,0.5,1,0.9
	s0.4,0.9,0.4,1.6c0,0.5-0.1,0.9-0.3,1.4c-0.2,0.5-0.4,0.9-0.8,1.2c-0.3,0.4-0.8,0.7-1.2,0.9c-0.5,0.2-1,0.3-1.7,0.3
	s-1.2-0.1-1.7-0.3c-0.5-0.2-0.8-0.4-1.1-0.5c0.1-0.2,0.2-0.5,0.3-0.9s0.1-0.7,0.1-0.9h0.3c0.1,0.2,0.2,0.3,0.3,0.5
	c0.2,0.2,0.3,0.4,0.6,0.5c0.2,0.2,0.5,0.3,0.7,0.4c0.3,0.1,0.6,0.2,0.9,0.2c0.3,0,0.5,0,0.8-0.1s0.5-0.2,0.7-0.4
	c0.2-0.2,0.4-0.4,0.5-0.7c0.1-0.3,0.2-0.6,0.2-0.9c0-0.5-0.1-0.9-0.4-1.2c-0.3-0.3-0.6-0.5-1-0.7s-0.8-0.3-1.3-0.4
	c-0.5-0.1-0.9-0.3-1.3-0.5c-0.4-0.2-0.7-0.5-1-0.9S160,10.7,160,10c0-0.5,0.1-1,0.2-1.5c0.2-0.4,0.4-0.8,0.7-1.2
	c0.3-0.3,0.7-0.6,1.2-0.8c0.5-0.2,1-0.3,1.6-0.3c0.5,0,1,0.1,1.4,0.2c0.4,0.2,0.7,0.3,1.1,0.4c-0.1,0.1-0.1,0.3-0.2,0.4
	c-0.1,0.2-0.1,0.3-0.2,0.5c-0.1,0.2-0.1,0.3-0.1,0.5c0,0.1-0.1,0.3-0.1,0.4h-0.3c-0.1-0.4-0.3-0.7-0.7-1c-0.3-0.3-0.8-0.5-1.3-0.5
	c-0.2,0-0.4,0-0.7,0.1c-0.2,0.1-0.4,0.2-0.6,0.4c-0.2,0.2-0.3,0.4-0.4,0.6c-0.1,0.3-0.2,0.6-0.2,0.9c0,0.5,0.1,0.9,0.4,1.2
	C162.1,10.8,162.4,11,162.8,11.2L162.8,11.2z M170.6,16.5c0.1,0.3,0.3,0.6,0.5,0.8c0.2,0.2,0.6,0.3,1,0.3c0.1,0,0.3,0,0.5,0
	s0.4-0.1,0.5-0.1v0.6c-0.3,0.1-0.5,0.2-0.8,0.3c-0.3,0.1-0.6,0.1-0.9,0.1c-0.9,0-1.6-0.3-2.1-0.8c-0.4-0.5-0.7-1.3-0.7-2.2
	c0-0.4,0-0.9,0-1.4s0-1.1,0-1.7c0-0.6,0-1.3,0.1-2c0-0.7,0-1.6,0-2.5c-0.2,0-0.5,0-0.7,0s-0.5,0-0.8,0c0-0.1,0-0.2,0-0.3
	c0-0.1,0-0.2,0-0.3c0-0.1,0-0.2,0-0.2c0-0.1,0-0.2,0-0.2c0.7,0,1.2,0.1,1.5,0.1c0-0.3,0-0.7,0-1.2s0-1-0.1-1.5l1.8-0.9h0.1
	c0,0.6-0.1,1.2-0.1,1.8s0,1.2-0.1,1.8c0.2,0,0.5,0,0.9,0s0.9,0,1.4-0.1c0,0.1,0,0.2,0,0.3c0,0.1,0,0.2,0,0.2c0,0.1,0,0.2,0,0.3
	c0,0.1,0,0.2,0,0.2c-0.4,0-0.8,0-1.3,0s-0.8,0-1.1,0c0,0.1,0,0.3,0,0.8s0,1,0,1.6s0,1.3,0,2s0,1.3,0,1.8s0,0.9,0,1.3
	C170.4,15.8,170.5,16.2,170.6,16.5L170.6,16.5z M183,11.8c0,0.2,0,0.3,0,0.5c-0.8,0-1.6,0-2.4,0c-0.8,0-1.6,0-2.4,0
	c-0.5,0-1,0-1.4,0c-0.5,0-1,0-1.4,0c0,0.1,0,0.3,0,0.4c0,0.1,0,0.2,0,0.3c0,0.6,0.1,1.2,0.3,1.8s0.4,1,0.7,1.4
	c0.3,0.4,0.7,0.7,1.2,0.9c0.5,0.2,1,0.4,1.6,0.4c0.3,0,0.6,0,0.9-0.1c0.3-0.1,0.6-0.2,0.9-0.4c0.3-0.2,0.6-0.3,0.8-0.5
	c0.3-0.2,0.5-0.4,0.7-0.7l0.1,0.1l-0.1,1.2c-0.4,0.4-1,0.7-1.7,1s-1.3,0.4-2,0.4c-0.8,0-1.5-0.1-2.2-0.4s-1.2-0.7-1.7-1.2
	s-0.8-1.1-1.1-1.8s-0.4-1.5-0.4-2.3c0-2,0.4-3.5,1.3-4.7c0.9-1.1,2.1-1.7,3.8-1.7c0.8,0,1.4,0.1,2,0.4s1.1,0.6,1.4,1.1
	c0.4,0.4,0.7,1,0.9,1.6s0.3,1.2,0.3,1.9C183,11.5,183,11.6,183,11.8L183,11.8z M181.1,10c-0.1-0.5-0.2-0.9-0.4-1.4
	c-0.2-0.4-0.5-0.8-0.8-1c-0.4-0.3-0.8-0.4-1.4-0.4c-0.5,0-1,0.1-1.4,0.4s-0.7,0.6-0.9,1s-0.4,0.9-0.6,1.4c-0.1,0.5-0.2,1-0.2,1.4
	c0.5,0,0.9,0,1.4,0s1,0,1.4,0c0.5,0,1,0,1.5,0s1,0,1.5,0C181.2,10.9,181.2,10.4,181.1,10L181.1,10z M190,7.4c0,0.4,0,0.8,0,1.1
	l-0.2,0.1c-0.1-0.1-0.2-0.2-0.4-0.3s-0.4-0.1-0.7-0.1c-0.4,0-0.7,0.1-1,0.3s-0.5,0.4-0.7,0.7s-0.3,0.7-0.4,1.1
	c-0.1,0.4-0.2,0.9-0.2,1.3c0,1.1,0,1.9,0,2.7c0,0.7,0,1.3,0,1.8s0,0.9,0,1.2c0,0.3,0,0.6,0.1,0.9c-0.3-0.1-0.6-0.1-0.9-0.1
	c-0.2,0-0.3,0-0.5,0c-0.1,0-0.3,0.1-0.5,0.1c0-0.6,0.1-1.4,0.1-2.3c0-0.9,0-2.1,0-3.5v-0.8c0-0.6,0-1.4,0-2.2s0-1.8-0.1-2.8
	c0.2,0,0.3,0.1,0.5,0.1c0.1,0,0.3,0,0.5,0c0.3,0,0.6,0,0.9-0.1c-0.1,0.6-0.1,1-0.1,1.4c0,0.3,0,0.7,0,1l0,0c0.4-0.9,0.9-1.5,1.4-2
	c0.5-0.4,1-0.7,1.5-0.7c0.1,0,0.2,0,0.3,0s0.2,0.1,0.4,0.1C190.1,6.7,190.1,7,190,7.4L190,7.4z M201,15.2c-0.3,0.8-0.7,1.4-1.2,1.9
	s-1.1,0.8-1.7,1c-0.6,0.2-1.3,0.3-1.9,0.3c-0.6,0-1.3-0.1-1.9-0.3c-0.6-0.2-1.2-0.6-1.7-1c-0.5-0.5-0.9-1.1-1.2-1.9
	c-0.3-0.8-0.5-1.7-0.5-2.8s0.2-2,0.5-2.8s0.7-1.4,1.2-1.9s1.1-0.8,1.7-1c0.6-0.2,1.3-0.3,1.9-0.3c0.6,0,1.3,0.1,1.9,0.3
	c0.6,0.2,1.2,0.6,1.7,1c0.5,0.5,0.9,1.1,1.2,1.9s0.5,1.7,0.5,2.8S201.3,14.5,201,15.2L201,15.2z M199.3,10.4
	c-0.1-0.6-0.3-1.2-0.6-1.7s-0.6-0.9-1.1-1.2c-0.4-0.3-1-0.4-1.6-0.4s-1.2,0.1-1.6,0.4c-0.4,0.3-0.8,0.7-1.1,1.2s-0.5,1.1-0.6,1.7
	c-0.1,0.6-0.2,1.3-0.2,2s0.1,1.3,0.2,2c0.1,0.6,0.3,1.2,0.6,1.7c0.3,0.5,0.6,0.9,1.1,1.2c0.4,0.3,1,0.4,1.6,0.4s1.2-0.1,1.6-0.4
	c0.4-0.3,0.8-0.7,1.1-1.2s0.5-1.1,0.6-1.7c0.1-0.6,0.2-1.3,0.2-2C199.5,11.7,199.5,11.1,199.3,10.4L199.3,10.4z M127.9,39.9
	c-0.3,0.8-0.6,1.4-1.1,1.9c-0.4,0.5-1,0.9-1.5,1.1c-0.6,0.3-1.2,0.4-1.7,0.4c-0.8,0-1.5-0.2-2.1-0.6c-0.6-0.4-1-1-1.4-1.8l0,0v1.5
	c0,0.6,0,1.2,0,1.8s0,1.3,0,1.9c0,0.6,0,1.2,0.1,1.8c0,0.6,0,1.1,0.1,1.5c-0.4-0.1-0.7-0.1-1-0.1s-0.6,0-1,0.1
	c0-0.4,0.1-0.9,0.1-1.5s0-1.2,0.1-1.8c0-0.6,0-1.3,0-1.9c0-0.6,0-1.2,0-1.8v-3.9c0-0.6,0-1.2,0-1.8s0-1.3,0-1.9c0-0.6,0-1.3-0.1-1.8
	c0-0.6,0-1.1-0.1-1.5c0.4,0.1,0.7,0.1,1,0.1s0.6,0,1-0.1c-0.1,0.4-0.1,0.8-0.1,1.2s0,0.8,0,1.2l0,0c0.1-0.3,0.3-0.5,0.5-0.8
	s0.4-0.6,0.7-0.9c0.3-0.3,0.7-0.5,1.1-0.7s0.9-0.3,1.5-0.3s1.1,0.1,1.7,0.4c0.5,0.2,1,0.6,1.4,1.1s0.8,1.1,1,1.9
	c0.3,0.8,0.4,1.7,0.4,2.7C128.3,38.3,128.2,39.2,127.9,39.9L127.9,39.9z M126.1,34.8c-0.2-0.6-0.4-1.1-0.7-1.5
	c-0.3-0.4-0.6-0.6-1-0.8c-0.4-0.1-0.7-0.2-1.1-0.2c-0.6,0-1.1,0.1-1.5,0.4c-0.4,0.3-0.8,0.6-1,1.1c-0.3,0.5-0.5,1-0.6,1.6
	s-0.2,1.3-0.2,2c0,1.7,0.3,2.9,0.8,3.8c0.5,0.9,1.3,1.3,2.4,1.3c0.5,0,1-0.1,1.4-0.4c0.4-0.3,0.7-0.6,1-1.1s0.4-1,0.6-1.7
	c0.1-0.6,0.2-1.3,0.2-2.1C126.4,36.2,126.3,35.4,126.1,34.8L126.1,34.8z M140.4,36.7c0,0.2,0,0.3,0,0.5c-0.8,0-1.6,0-2.4,0
	c-0.8,0-1.6,0-2.4,0c-0.5,0-1,0-1.4,0c-0.5,0-1,0-1.4,0c0,0.1,0,0.3,0,0.4c0,0.1,0,0.2,0,0.3c0,0.6,0.1,1.2,0.3,1.8s0.4,1,0.7,1.4
	s0.7,0.7,1.2,0.9s1,0.4,1.6,0.4c0.3,0,0.6,0,0.9-0.1c0.3-0.1,0.6-0.2,0.9-0.4c0.3-0.2,0.6-0.3,0.8-0.5c0.3-0.2,0.5-0.4,0.7-0.7
	l0.1,0.1l-0.1,1.2c-0.4,0.4-1,0.7-1.7,1s-1.3,0.5-2,0.5c-0.8,0-1.5-0.1-2.2-0.4c-0.7-0.3-1.2-0.7-1.7-1.2s-0.8-1.1-1.1-1.8
	s-0.4-1.5-0.4-2.3c0-2,0.4-3.5,1.3-4.7c0.9-1.1,2.1-1.7,3.8-1.7c0.8,0,1.4,0.1,2,0.4c0.6,0.3,1.1,0.6,1.4,1.1c0.4,0.4,0.7,1,0.9,1.6
	s0.3,1.2,0.3,1.9C140.4,36.4,140.4,36.5,140.4,36.7L140.4,36.7z M138.5,34.8c-0.1-0.5-0.2-0.9-0.4-1.4c-0.2-0.4-0.5-0.8-0.8-1
	c-0.4-0.3-0.8-0.4-1.4-0.4c-0.5,0-1,0.1-1.4,0.4s-0.7,0.6-0.9,1s-0.4,0.9-0.6,1.4c-0.1,0.5-0.2,1-0.2,1.4c0.5,0,0.9,0,1.4,0
	s1,0,1.4,0c0.5,0,1,0,1.5,0s1,0,1.5,0C138.6,35.8,138.6,35.3,138.5,34.8L138.5,34.8z M148.8,32.3c0,0.4,0,0.8,0,1.1l-0.2,0.1
	c-0.1-0.1-0.2-0.2-0.4-0.3s-0.4-0.1-0.7-0.1c-0.4,0-0.7,0.1-1,0.3s-0.5,0.4-0.7,0.7s-0.3,0.7-0.4,1.1c-0.1,0.4-0.2,0.9-0.2,1.3
	c0,1.1,0,1.9,0,2.7c0,0.7,0,1.3,0,1.8s0,0.9,0,1.2s0,0.6,0.1,0.9c-0.3-0.1-0.6-0.1-0.9-0.1c-0.2,0-0.3,0-0.5,0
	c-0.1,0-0.3,0.1-0.5,0.1c0-0.6,0.1-1.4,0.1-2.3c0-0.9,0-2.1,0-3.5v-0.8c0-0.6,0-1.4,0-2.2s0-1.8-0.1-2.8c0.2,0,0.3,0.1,0.5,0.1
	c0.1,0,0.3,0,0.5,0c0.3,0,0.6,0,0.9-0.1c-0.1,0.6-0.1,1-0.1,1.4c0,0.3,0,0.7,0,1l0,0c0.4-0.9,0.9-1.5,1.4-2c0.5-0.4,1-0.7,1.5-0.7
	c0.1,0,0.2,0,0.3,0s0.2,0.1,0.4,0.1C148.8,31.6,148.8,31.9,148.8,32.3L148.8,32.3z M160.8,28.1c-0.2,0.2-0.5,0.4-0.8,0.4
	s-0.6-0.1-0.8-0.4c-0.2-0.2-0.3-0.5-0.3-0.9c0-0.3,0.1-0.6,0.3-0.9c0.2-0.2,0.5-0.4,0.8-0.4s0.6,0.1,0.8,0.4
	c0.2,0.2,0.3,0.5,0.3,0.9S161,27.9,160.8,28.1L160.8,28.1z M159.1,33.7c0-0.8-0.1-1.6-0.1-2.3c0.4,0.1,0.7,0.1,1,0.1s0.6,0,1-0.1
	c-0.1,0.7-0.1,1.4-0.1,2.3c0,0.8,0,1.6,0,2.3v2.5c0,0.7,0,1.5,0,2.3s0.1,1.6,0.1,2.3c-0.4-0.1-0.7-0.1-1-0.1s-0.6,0-1,0.1
	c0.1-0.7,0.1-1.4,0.1-2.3c0-0.8,0-1.6,0-2.3V36C159.1,35.3,159.1,34.5,159.1,33.7L159.1,33.7z M181.7,39.5c-0.3,0.8-0.6,1.5-1.1,2
	c-0.4,0.6-1,1-1.6,1.3s-1.3,0.5-2,0.5s-1.3-0.2-1.9-0.5c-0.6-0.4-1-0.8-1.3-1.2c-0.3,0.2-0.5,0.5-0.8,0.7c-0.2,0.2-0.5,0.5-0.7,0.7
	H172c0-0.4,0.1-0.8,0.1-1.4c0-0.6,0-1.2,0.1-1.8c0-0.6,0-1.3,0-1.9c0-0.6,0-1.2,0-1.8v-4.4c0-0.6,0-1.2,0-1.8c0-0.6,0-1.3,0-1.9
	s0-1.2-0.1-1.8c0-0.6,0-1.1-0.1-1.5c0.4,0.1,0.7,0.1,1,0.1c0.2,0,0.3,0,0.5,0s0.4-0.1,0.6-0.1c0,0.3-0.1,0.8-0.1,1.5s0,1.5-0.1,2.4
	c0,0.9,0,1.8-0.1,2.7c0,0.9,0,1.7,0,2.5l0,0c0.5-0.9,1.1-1.5,1.7-1.9c0.6-0.4,1.3-0.6,2.1-0.6s1.4,0.2,2,0.5s1,0.7,1.4,1.3
	c0.4,0.5,0.6,1.1,0.8,1.8s0.3,1.4,0.3,2.2C182.1,37.9,182,38.7,181.7,39.5L181.7,39.5z M179.9,34.9c-0.2-0.6-0.4-1.1-0.7-1.4
	c-0.3-0.4-0.6-0.7-1-0.9s-0.7-0.3-1.1-0.3c-0.5,0-0.9,0.1-1.3,0.3c-0.4,0.2-0.8,0.5-1.1,0.9s-0.6,1-0.7,1.7
	c-0.2,0.7-0.3,1.5-0.3,2.5c0,1.6,0.3,2.8,0.8,3.7c0.5,0.8,1.3,1.2,2.4,1.2c0.5,0,0.9-0.1,1.3-0.4c0.4-0.3,0.7-0.7,1-1.2
	s0.5-1.1,0.7-1.8s0.2-1.5,0.2-2.3C180.2,36.1,180.1,35.5,179.9,34.9L179.9,34.9z M194.2,36.7c0,0.2,0,0.3,0,0.5c-0.8,0-1.6,0-2.4,0
	c-0.8,0-1.6,0-2.4,0c-0.5,0-1,0-1.4,0c-0.5,0-1,0-1.4,0c0,0.1,0,0.3,0,0.4c0,0.1,0,0.2,0,0.3c0,0.6,0.1,1.2,0.3,1.8s0.4,1,0.7,1.4
	s0.7,0.7,1.2,0.9s1,0.4,1.6,0.4c0.3,0,0.6,0,0.9-0.1c0.3-0.1,0.6-0.2,0.9-0.4c0.3-0.2,0.6-0.3,0.8-0.5c0.3-0.2,0.5-0.4,0.7-0.7
	l0.1,0.1l-0.1,1.2c-0.4,0.4-1,0.7-1.7,1s-1.3,0.5-2,0.5c-0.8,0-1.5-0.1-2.2-0.4c-0.7-0.3-1.2-0.7-1.7-1.2s-0.8-1.1-1.1-1.8
	s-0.4-1.5-0.4-2.3c0-2,0.4-3.5,1.3-4.7c0.9-1.1,2.1-1.7,3.8-1.7c0.8,0,1.4,0.1,2,0.4c0.6,0.3,1.1,0.6,1.4,1.1c0.4,0.4,0.7,1,0.9,1.6
	s0.3,1.2,0.3,1.9C194.2,36.4,194.2,36.5,194.2,36.7L194.2,36.7z M192.3,34.8c-0.1-0.5-0.2-0.9-0.4-1.4c-0.2-0.4-0.5-0.8-0.8-1
	c-0.4-0.3-0.8-0.4-1.4-0.4c-0.5,0-1,0.1-1.4,0.4s-0.7,0.6-0.9,1s-0.4,0.9-0.6,1.4c-0.1,0.5-0.2,1-0.2,1.4c0.5,0,0.9,0,1.4,0
	s1,0,1.4,0c0.5,0,1,0,1.5,0s1,0,1.5,0C192.4,35.8,192.4,35.3,192.3,34.8L192.3,34.8z M206.2,37.6c0,0.7,0,1.5,0,2.3
	c0,0.5,0,1.1,0,1.6s0,1,0,1.6c-0.2,0-0.3-0.1-0.5-0.1c-0.1,0-0.3,0-0.5,0s-0.3,0-0.5,0c-0.1,0-0.3,0.1-0.5,0.1
	c0-0.9,0.1-1.8,0.1-2.7s0.1-1.8,0.1-2.7v-1.5c0-1.2-0.2-2.1-0.7-2.7c-0.4-0.6-1-0.9-1.8-0.9c-1,0-1.8,0.3-2.3,1s-0.7,1.7-0.7,2.9
	v2.1c0,0.7,0,1.5,0,2.3s0.1,1.6,0.1,2.3c-0.4-0.1-0.7-0.1-1-0.1s-0.6,0-1,0.1c0.1-0.7,0.1-1.4,0.1-2.3c0-0.8,0-1.6,0-2.3V36
	c0-0.7,0-1.5,0-2.3s-0.1-1.6-0.1-2.3c0.4,0.1,0.7,0.1,1,0.1c0.2,0,0.5,0,0.9-0.1c0,0.7-0.1,1.3-0.1,1.9l0,0c0.4-0.7,0.9-1.2,1.5-1.6
	s1.3-0.6,2.1-0.6c0.4,0,0.8,0.1,1.2,0.2s0.8,0.4,1.1,0.7c0.3,0.3,0.6,0.7,0.8,1.3c0.2,0.5,0.3,1.2,0.3,2.1
	C206.3,36.2,206.2,36.9,206.2,37.6L206.2,37.6z M212.6,28.1c-0.2,0.2-0.5,0.4-0.8,0.4s-0.6-0.1-0.8-0.4c-0.2-0.2-0.3-0.5-0.3-0.9
	c0-0.3,0.1-0.6,0.3-0.9c0.2-0.2,0.5-0.4,0.8-0.4s0.6,0.1,0.8,0.4c0.2,0.2,0.3,0.5,0.3,0.9C212.9,27.6,212.8,27.9,212.6,28.1
	L212.6,28.1z M210.9,33.7c0-0.8-0.1-1.6-0.1-2.3c0.4,0.1,0.7,0.1,1,0.1s0.6,0,1-0.1c-0.1,0.7-0.1,1.4-0.1,2.3c0,0.8,0,1.6,0,2.3v2.5
	c0,0.7,0,1.5,0,2.3s0.1,1.6,0.1,2.3c-0.4-0.1-0.7-0.1-1-0.1s-0.6,0-1,0.1c0.1-0.7,0.1-1.4,0.1-2.3c0-0.8,0-1.6,0-2.3V36
	C211,35.3,211,34.5,210.9,33.7L210.9,33.7z M233,36.7c0,0.2,0,0.3,0,0.5c-0.8,0-1.6,0-2.4,0c-0.8,0-1.6,0-2.4,0c-0.5,0-1,0-1.4,0
	c-0.5,0-1,0-1.4,0c0,0.1,0,0.3,0,0.4c0,0.1,0,0.2,0,0.3c0,0.6,0.1,1.2,0.3,1.8s0.4,1,0.7,1.4s0.7,0.7,1.2,0.9s1,0.4,1.6,0.4
	c0.3,0,0.6,0,0.9-0.1c0.3-0.1,0.6-0.2,0.9-0.4c0.3-0.2,0.6-0.3,0.8-0.5c0.3-0.2,0.5-0.4,0.7-0.7l0.1,0.1l-0.1,1.2
	c-0.4,0.4-1,0.7-1.7,1s-1.3,0.5-2,0.5c-0.8,0-1.5-0.1-2.2-0.4c-0.7-0.3-1.2-0.7-1.7-1.2s-0.8-1.1-1.1-1.8s-0.4-1.5-0.4-2.3
	c0-2,0.4-3.5,1.3-4.7c0.9-1.1,2.1-1.7,3.8-1.7c0.8,0,1.4,0.1,2,0.4c0.6,0.3,1.1,0.6,1.4,1.1c0.4,0.4,0.7,1,0.9,1.6s0.3,1.2,0.3,1.9
	C233,36.4,233,36.5,233,36.7L233,36.7z M231.1,34.8c-0.1-0.5-0.2-0.9-0.4-1.4c-0.2-0.4-0.5-0.8-0.8-1c-0.4-0.3-0.8-0.4-1.4-0.4
	c-0.5,0-1,0.1-1.4,0.4s-0.7,0.6-0.9,1s-0.4,0.9-0.6,1.4c-0.1,0.5-0.2,1-0.2,1.4c0.5,0,0.9,0,1.4,0s1,0,1.4,0c0.5,0,1,0,1.5,0
	s1,0,1.5,0C231.2,35.8,231.1,35.3,231.1,34.8L231.1,34.8z M126.6,67.9c-0.2,0.1-0.5,0.1-0.8,0.1c-0.5,0-0.8-0.1-1.1-0.4
	c-0.3-0.3-0.4-0.6-0.4-1.1c-0.5,0.6-1.1,1-1.6,1.3s-1.1,0.4-1.9,0.4c-0.4,0-0.7-0.1-1.1-0.2s-0.7-0.3-0.9-0.6
	c-0.3-0.3-0.5-0.6-0.7-0.9c-0.2-0.4-0.3-0.8-0.3-1.3c0-1,0.3-1.7,0.8-2.3c0.6-0.5,1.3-0.9,2.3-1.1c0.8-0.1,1.4-0.3,1.9-0.4
	c0.4-0.1,0.8-0.2,1-0.3s0.3-0.2,0.4-0.4c0-0.2,0.1-0.4,0.1-0.6c0-0.4,0-0.8-0.1-1.2s-0.2-0.7-0.4-1c-0.2-0.3-0.4-0.5-0.8-0.7
	c-0.3-0.2-0.7-0.3-1.1-0.3c-0.6,0-1.1,0.1-1.6,0.4c-0.5,0.3-0.9,0.7-1.1,1.2H119v-1.3c0.7-0.6,1.3-0.9,1.8-1.1
	c0.6-0.2,1.1-0.3,1.7-0.3c0.5,0,1,0.1,1.5,0.3c0.4,0.2,0.8,0.4,1.1,0.7c0.3,0.3,0.6,0.7,0.7,1.1c0.2,0.4,0.3,0.9,0.3,1.5
	c0,0.9,0,1.8,0,2.8c0,0.9,0,1.9,0,2.9c0,0.2,0,0.4,0,0.6s0,0.4,0.1,0.6s0.1,0.3,0.3,0.4c0.1,0.1,0.3,0.2,0.5,0.2c0.1,0,0.2,0,0.2,0
	c0.1,0,0.2,0,0.2-0.1v0.5C127.1,67.7,126.9,67.8,126.6,67.9L126.6,67.9z M122.9,62.2c-0.5,0.1-1,0.2-1.5,0.4s-0.9,0.4-1.2,0.8
	c-0.3,0.3-0.5,0.9-0.5,1.5c0,0.8,0.2,1.3,0.6,1.7c0.4,0.4,0.8,0.6,1.3,0.6c0.6,0,1.1-0.2,1.5-0.5c0.5-0.3,0.8-0.7,1.1-1.2l0.1-3.6
	C123.9,62,123.5,62.1,122.9,62.2L122.9,62.2z M131.3,66.3c0.1,0.3,0.3,0.6,0.5,0.8c0.2,0.2,0.6,0.3,1,0.3c0.1,0,0.3,0,0.5,0
	s0.4-0.1,0.5-0.1v0.6c-0.3,0.1-0.5,0.2-0.8,0.3c-0.3,0.1-0.6,0.1-0.9,0.1c-0.9,0-1.6-0.3-2.1-0.8c-0.4-0.5-0.7-1.3-0.7-2.2
	c0-0.4,0-0.9,0-1.4s0-1.1,0-1.7c0-0.6,0-1.3,0.1-2c0-0.7,0-1.6,0-2.5c-0.2,0-0.5,0-0.7,0s-0.5,0-0.8,0c0-0.1,0-0.2,0-0.3
	s0-0.2,0-0.3s0-0.2,0-0.2c0-0.1,0-0.2,0-0.2c0.7,0,1.1,0.1,1.5,0.1c0-0.3,0-0.7,0-1.2s0-1-0.1-1.5l1.8-0.9h0.1
	c0,0.6-0.1,1.2-0.1,1.8s0,1.2-0.1,1.8c0.2,0,0.5,0,0.9,0s0.9,0,1.4-0.1c0,0.1,0,0.2,0,0.3s0,0.2,0,0.2c0,0.1,0,0.2,0,0.3
	s0,0.2,0,0.2c-0.4,0-0.8,0-1.3,0s-0.8,0-1.1,0c0,0.1,0,0.3,0,0.8s0,1,0,1.6s0,1.3,0,2s0,1.3,0,1.8s0,0.9,0,1.3
	C131.1,65.6,131.2,66,131.3,66.3L131.3,66.3z M137.2,66.3c0.1,0.3,0.3,0.6,0.5,0.8c0.2,0.2,0.6,0.3,1,0.3c0.1,0,0.3,0,0.5,0
	s0.4-0.1,0.5-0.1v0.6c-0.3,0.1-0.5,0.2-0.8,0.3c-0.3,0.1-0.6,0.1-0.9,0.1c-0.9,0-1.6-0.3-2.1-0.8c-0.4-0.5-0.7-1.3-0.7-2.2
	c0-0.4,0-0.9,0-1.4s0-1.1,0-1.7c0-0.6,0-1.3,0.1-2c0-0.7,0-1.6,0-2.5c-0.2,0-0.5,0-0.7,0s-0.5,0-0.8,0c0-0.1,0-0.2,0-0.3
	s0-0.2,0-0.3s0-0.2,0-0.2c0-0.1,0-0.2,0-0.2c0.7,0,1.1,0.1,1.5,0.1c0-0.3,0-0.7,0-1.2s0-1-0.1-1.5l1.8-0.9h0.1
	c0,0.6-0.1,1.2-0.1,1.8s0,1.2-0.1,1.8c0.2,0,0.5,0,0.9,0s0.9,0,1.4-0.1c0,0.1,0,0.2,0,0.3s0,0.2,0,0.2c0,0.1,0,0.2,0,0.3
	s0,0.2,0,0.2c-0.4,0-0.8,0-1.3,0s-0.8,0-1.1,0c0,0.1,0,0.3,0,0.8s0,1,0,1.6s0,1.3,0,2s0,1.3,0,1.8s0,0.9,0,1.3
	C137,65.6,137.1,66,137.2,66.3L137.2,66.3z M143.4,53c-0.2,0.2-0.5,0.4-0.8,0.4s-0.6-0.1-0.8-0.4c-0.2-0.2-0.3-0.5-0.3-0.9
	c0-0.3,0.1-0.6,0.3-0.9c0.2-0.2,0.5-0.4,0.8-0.4s0.6,0.1,0.8,0.4c0.2,0.2,0.3,0.5,0.3,0.9S143.6,52.8,143.4,53L143.4,53z
	 M141.7,58.6c0-0.8-0.1-1.6-0.1-2.3c0.4,0.1,0.7,0.1,1,0.1s0.6,0,1-0.1c-0.1,0.7-0.1,1.4-0.1,2.3c0,0.8,0,1.6,0,2.3v2.5
	c0,0.7,0,1.5,0,2.3s0.1,1.6,0.1,2.3c-0.4-0.1-0.7-0.1-1-0.1s-0.6,0-1,0.1c0.1-0.7,0.1-1.4,0.1-2.3c0-0.8,0-1.6,0-2.3v-2.5
	C141.7,60.2,141.7,59.4,141.7,58.6L141.7,58.6z M153.2,62.2c-0.8,1.9-1.5,3.9-2.1,5.8c-0.3-0.1-0.5-0.1-0.7-0.1s-0.4,0-0.7,0.1
	c-0.7-1.9-1.4-3.9-2-5.8c-0.7-1.9-1.4-3.9-2.2-5.8c0.2,0,0.4,0.1,0.6,0.1c0.2,0,0.4,0,0.6,0c0.2,0,0.3,0,0.5,0s0.3-0.1,0.5-0.1
	c0.5,1.6,1,3.2,1.5,4.7c0.5,1.6,1.1,3.2,1.8,4.8c0.3-0.7,0.6-1.4,0.9-2.2c0.3-0.8,0.6-1.6,0.9-2.4c0.3-0.8,0.6-1.7,0.8-2.5
	c0.3-0.8,0.5-1.6,0.8-2.4c0.3,0.1,0.5,0.1,0.7,0.1s0.4,0,0.7-0.1C154.8,58.3,154,60.3,153.2,62.2L153.2,62.2z M159.6,53
	c-0.2,0.2-0.5,0.4-0.8,0.4s-0.6-0.1-0.8-0.4c-0.2-0.2-0.3-0.5-0.3-0.9c0-0.3,0.1-0.6,0.3-0.9c0.2-0.2,0.5-0.4,0.8-0.4
	s0.6,0.1,0.8,0.4c0.2,0.2,0.3,0.5,0.3,0.9C160,52.5,159.9,52.8,159.6,53L159.6,53z M158,58.6c0-0.8-0.1-1.6-0.1-2.3
	c0.4,0.1,0.7,0.1,1,0.1s0.6,0,1-0.1c-0.1,0.7-0.1,1.4-0.1,2.3c0,0.8,0,1.6,0,2.3v2.5c0,0.7,0,1.5,0,2.3s0.1,1.6,0.1,2.3
	c-0.4-0.1-0.7-0.1-1-0.1s-0.6,0-1,0.1c0.1-0.7,0.1-1.4,0.1-2.3c0-0.8,0-1.6,0-2.3v-2.5C158,60.2,158,59.4,158,58.6L158,58.6z
	 M165.3,66.3c0.1,0.3,0.3,0.6,0.5,0.8c0.2,0.2,0.6,0.3,1,0.3c0.1,0,0.3,0,0.5,0s0.4-0.1,0.5-0.1v0.6c-0.3,0.1-0.5,0.2-0.8,0.3
	c-0.3,0.1-0.6,0.1-0.9,0.1c-0.9,0-1.6-0.3-2.1-0.8c-0.4-0.5-0.7-1.3-0.7-2.2c0-0.4,0-0.9,0-1.4s0-1.1,0-1.7c0-0.6,0-1.3,0.1-2
	c0-0.7,0-1.6,0-2.5c-0.2,0-0.5,0-0.7,0s-0.5,0-0.8,0c0-0.1,0-0.2,0-0.3s0-0.2,0-0.3s0-0.2,0-0.2c0-0.1,0-0.2,0-0.2
	c0.7,0,1.1,0.1,1.5,0.1c0-0.3,0-0.7,0-1.2s0-1-0.1-1.5l1.8-0.9h0.1c0,0.6-0.1,1.2-0.1,1.8s0,1.2-0.1,1.8c0.2,0,0.5,0,0.9,0
	s0.9,0,1.4-0.1c0,0.1,0,0.2,0,0.3s0,0.2,0,0.2c0,0.1,0,0.2,0,0.3s0,0.2,0,0.2c-0.4,0-0.8,0-1.3,0s-0.8,0-1.1,0c0,0.1,0,0.3,0,0.8
	s0,1,0,1.6s0,1.3,0,2s0,1.3,0,1.8s0,0.9,0,1.3C165.1,65.6,165.1,66,165.3,66.3L165.3,66.3z M177.2,67.9c-0.2,0.1-0.5,0.1-0.8,0.1
	c-0.5,0-0.8-0.1-1.1-0.4s-0.4-0.6-0.4-1.1c-0.5,0.6-1.1,1-1.6,1.3s-1.1,0.4-1.9,0.4c-0.4,0-0.7-0.1-1.1-0.2
	c-0.4-0.1-0.7-0.3-0.9-0.6c-0.3-0.3-0.5-0.6-0.7-0.9c-0.2-0.4-0.3-0.8-0.3-1.3c0-1,0.3-1.7,0.8-2.3c0.6-0.5,1.3-0.9,2.3-1.1
	c0.8-0.1,1.4-0.3,1.9-0.4c0.4-0.1,0.8-0.2,1-0.3s0.3-0.2,0.4-0.4c0-0.2,0.1-0.4,0.1-0.6c0-0.4,0-0.8-0.1-1.2s-0.2-0.7-0.4-1
	s-0.4-0.5-0.8-0.7c-0.3-0.2-0.7-0.3-1.1-0.3c-0.6,0-1.1,0.1-1.6,0.4c-0.5,0.3-0.9,0.7-1.1,1.2h-0.2v-1.3c0.7-0.6,1.3-0.9,1.8-1.1
	c0.6-0.2,1.1-0.3,1.7-0.3c0.5,0,1,0.1,1.5,0.3c0.4,0.2,0.8,0.4,1.1,0.7s0.6,0.7,0.7,1.1c0.2,0.4,0.3,0.9,0.3,1.5c0,0.9,0,1.8,0,2.8
	c0,0.9,0,1.9,0,2.9c0,0.2,0,0.4,0,0.6s0,0.4,0.1,0.6s0.1,0.3,0.3,0.4c0.1,0.1,0.3,0.2,0.5,0.2c0.1,0,0.2,0,0.2,0
	c0.1,0,0.2,0,0.2-0.1v0.5C177.7,67.7,177.5,67.8,177.2,67.9L177.2,67.9z M173.5,62.2c-0.5,0.1-1,0.2-1.5,0.4s-0.9,0.4-1.2,0.8
	c-0.3,0.3-0.5,0.9-0.5,1.5c0,0.8,0.2,1.3,0.6,1.7c0.4,0.4,0.8,0.6,1.3,0.6c0.6,0,1.1-0.2,1.5-0.5c0.5-0.3,0.8-0.7,1.1-1.2l0.1-3.6
	C174.5,62,174.1,62.1,173.5,62.2L173.5,62.2z M170.4,52c-0.2-0.1-0.4-0.3-0.5-0.5c-0.2-0.2-0.3-0.4-0.3-0.7s0.1-0.5,0.3-0.6
	s0.3-0.2,0.5-0.2s0.3,0.1,0.5,0.2c0.2,0.1,0.3,0.2,0.5,0.4l3.3,3.6h-0.9L170.4,52L170.4,52z M193.8,58.8h-0.2
	c-0.1-0.2-0.2-0.4-0.4-0.6c-0.2-0.2-0.4-0.4-0.6-0.6c-0.2-0.2-0.5-0.3-0.8-0.5c-0.3-0.1-0.6-0.2-1-0.2c-0.7,0-1.2,0.1-1.7,0.4
	c-0.5,0.3-0.9,0.6-1.2,1.1s-0.5,1-0.7,1.7c-0.1,0.6-0.2,1.3-0.2,2.1c0,1.7,0.3,2.9,1,3.8s1.6,1.3,2.8,1.3c0.3,0,0.6,0,0.9-0.1
	c0.3-0.1,0.6-0.2,0.9-0.4c0.3-0.2,0.6-0.3,0.8-0.5c0.3-0.2,0.5-0.4,0.7-0.7l0.1,0.1c-0.1,0.4-0.1,0.8-0.1,1.2c-0.4,0.4-1,0.7-1.7,1
	s-1.3,0.4-2,0.4c-0.6,0-1.3-0.1-1.9-0.3c-0.6-0.2-1.2-0.6-1.7-1.1s-0.9-1.1-1.2-1.9s-0.5-1.7-0.5-2.8s0.2-2,0.5-2.7
	c0.3-0.8,0.7-1.4,1.3-1.9c0.5-0.5,1.1-0.9,1.8-1.1c0.7-0.2,1.4-0.4,2.1-0.4c0.8,0,1.5,0.1,2.2,0.3c0.6,0.2,1.1,0.5,1.4,0.7
	c-0.1,0.2-0.2,0.5-0.3,0.8C194,58.2,193.9,58.5,193.8,58.8L193.8,58.8z M205.5,60c0,1.2,0,2.4,0,3.7c0,0.7,0,1.4,0,2.2
	c0,0.7,0,1.4,0.1,2.1c-0.3-0.1-0.6-0.1-0.9-0.1c-0.3,0-0.5,0-0.9,0.1c0-0.4,0-0.7,0-1c0-0.4,0-0.7,0-1l0,0c-0.4,0.8-0.9,1.3-1.5,1.7
	c-0.6,0.4-1.3,0.6-2,0.6c-1.2,0-2.1-0.3-2.7-1c-0.7-0.7-1-1.7-1-2.9c0-0.9,0-1.6,0-2.2c0-0.6,0-1.2,0-1.8s0-1.2,0-1.8
	c0-0.7,0-1.3,0-2c0.3,0.1,0.6,0.1,0.9,0.1c0.3,0,0.6,0,0.9-0.1c-0.1,1-0.1,2-0.2,3.2c0,1.2-0.1,2.4-0.1,3.6c0,0.8,0.1,1.5,0.2,1.9
	c0.1,0.4,0.3,0.8,0.5,1c0.2,0.3,0.5,0.5,0.8,0.6c0.3,0.2,0.7,0.3,1.1,0.3c0.6,0,1.1-0.1,1.5-0.5c0.4-0.3,0.7-0.7,0.9-1.1
	c0.1-0.3,0.2-0.5,0.3-0.7s0.1-0.5,0.1-0.8c0-0.3,0-0.8,0.1-1.3c0-0.6,0-1.3,0-2.3c0-0.7,0-1.3,0-2s0-1.4,0-1.9
	c0.2,0,0.3,0.1,0.5,0.1c0.1,0,0.3,0,0.5,0s0.3,0,0.5,0c0.1,0,0.3-0.1,0.4-0.1C205.5,57.6,205.5,58.9,205.5,60L205.5,60z M211,52.9
	c0,0.6,0,1.3,0,1.9c0,0.6,0,1.2,0,1.8V61c0,0.6,0,1.2,0,1.8s0,1.3,0,1.9s0,1.2,0.1,1.8c0,0.6,0,1.1,0.1,1.5c-0.4-0.1-0.7-0.1-1-0.1
	s-0.6,0-1,0.1c0-0.4,0.1-0.9,0.1-1.5s0-1.2,0.1-1.8c0-0.6,0-1.3,0-1.9c0-0.6,0-1.2,0-1.8v-4.4c0-0.6,0-1.2,0-1.8s0-1.3,0-1.9
	c0-0.6,0-1.2-0.1-1.8c0-0.6,0-1.1-0.1-1.5c0.4,0.1,0.7,0.1,1,0.1s0.6,0,1-0.1c0,0.4-0.1,0.9-0.1,1.5C211,51.6,211,52.2,211,52.9
	L211,52.9z M216.5,66.3c0.1,0.3,0.3,0.6,0.5,0.8c0.2,0.2,0.6,0.3,1,0.3c0.1,0,0.3,0,0.5,0s0.4-0.1,0.5-0.1v0.6
	c-0.3,0.1-0.5,0.2-0.8,0.3c-0.3,0.1-0.6,0.1-0.9,0.1c-0.9,0-1.6-0.3-2.1-0.8c-0.4-0.5-0.7-1.3-0.7-2.2c0-0.4,0-0.9,0-1.4
	s0-1.1,0-1.7c0-0.6,0-1.3,0.1-2c0-0.7,0-1.6,0-2.5c-0.2,0-0.5,0-0.7,0s-0.5,0-0.8,0c0-0.1,0-0.2,0-0.3s0-0.2,0-0.3s0-0.2,0-0.2
	c0-0.1,0-0.2,0-0.2c0.7,0,1.2,0.1,1.5,0.1c0-0.3,0-0.7,0-1.2s0-1-0.1-1.5l1.8-0.9h0.1c0,0.6-0.1,1.2-0.1,1.8s0,1.2-0.1,1.8
	c0.2,0,0.5,0,0.9,0s0.9,0,1.4-0.1c0,0.1,0,0.2,0,0.3s0,0.2,0,0.2c0,0.1,0,0.2,0,0.3s0,0.2,0,0.2c-0.4,0-0.8,0-1.3,0s-0.8,0-1.1,0
	c0,0.1,0,0.3,0,0.8s0,1,0,1.6s0,1.3,0,2s0,1.3,0,1.8s0,0.9,0,1.3C216.3,65.6,216.4,66,216.5,66.3L216.5,66.3z M229.3,60
	c0,1.2,0,2.4,0,3.7c0,0.7,0,1.4,0,2.2c0,0.7,0,1.4,0.1,2.1c-0.3-0.1-0.6-0.1-0.9-0.1c-0.3,0-0.5,0-0.9,0.1c0-0.4,0-0.7,0-1
	c0-0.4,0-0.7,0-1l0,0c-0.4,0.8-0.9,1.3-1.5,1.7c-0.6,0.4-1.3,0.6-2,0.6c-1.1,0-2.1-0.3-2.7-1c-0.7-0.7-1-1.7-1-2.9
	c0-0.9,0-1.6,0-2.2c0-0.6,0-1.2,0-1.8s0-1.2,0-1.8c0-0.7,0-1.3,0-2c0.3,0.1,0.6,0.1,0.9,0.1c0.3,0,0.6,0,0.9-0.1
	c-0.1,1-0.1,2-0.2,3.2c0,1.2-0.1,2.4-0.1,3.6c0,0.8,0.1,1.5,0.2,1.9c0.1,0.4,0.3,0.8,0.5,1c0.2,0.3,0.5,0.5,0.8,0.6
	c0.3,0.2,0.7,0.3,1.1,0.3c0.6,0,1.1-0.1,1.5-0.5c0.4-0.3,0.7-0.7,0.9-1.1c0.1-0.3,0.2-0.5,0.3-0.7s0.1-0.5,0.1-0.8
	c0-0.3,0-0.8,0.1-1.3c0-0.6,0-1.3,0-2.3c0-0.7,0-1.3,0-2s0-1.4,0-1.9c0.2,0,0.3,0.1,0.5,0.1c0.1,0,0.3,0,0.5,0s0.3,0,0.5,0
	c0.1,0,0.3-0.1,0.4-0.1C229.3,57.6,229.3,58.9,229.3,60L229.3,60z M237.7,57.2c0,0.4,0,0.8,0,1.1l-0.2,0.1c-0.1-0.1-0.2-0.2-0.4-0.3
	s-0.4-0.1-0.7-0.1c-0.4,0-0.7,0.1-1,0.3s-0.5,0.4-0.7,0.7s-0.3,0.7-0.4,1.1c-0.1,0.4-0.2,0.9-0.2,1.3c0,1.1,0,1.9,0,2.7
	c0,0.7,0,1.3,0,1.8s0,0.9,0,1.2c0,0.3,0,0.6,0.1,0.9c-0.3-0.1-0.6-0.1-0.9-0.1c-0.2,0-0.3,0-0.5,0c-0.1,0-0.3,0.1-0.5,0.1
	c0-0.6,0.1-1.4,0.1-2.3s0-2.1,0-3.5v-0.8c0-0.6,0-1.4,0-2.2s0-1.8-0.1-2.8c0.2,0,0.3,0.1,0.5,0.1c0.1,0,0.3,0,0.5,0
	c0.3,0,0.6,0,0.9-0.1c-0.1,0.6-0.1,1-0.1,1.4c0,0.3,0,0.7,0,1l0,0c0.4-0.9,0.9-1.5,1.4-2c0.5-0.4,1-0.7,1.5-0.7c0.1,0,0.2,0,0.3,0
	s0.2,0.1,0.4,0.1C237.8,56.5,237.8,56.8,237.7,57.2L237.7,57.2z M247.4,67.9c-0.2,0.1-0.5,0.1-0.8,0.1c-0.5,0-0.8-0.1-1.1-0.4
	s-0.4-0.6-0.4-1.1c-0.5,0.6-1.1,1-1.6,1.3s-1.2,0.4-1.9,0.4c-0.4,0-0.7-0.1-1.1-0.2c-0.4-0.1-0.7-0.3-0.9-0.6
	c-0.3-0.3-0.5-0.6-0.7-0.9c-0.2-0.4-0.3-0.8-0.3-1.3c0-1,0.3-1.7,0.8-2.3c0.6-0.5,1.3-0.9,2.3-1.1c0.8-0.1,1.4-0.3,1.9-0.4
	c0.4-0.1,0.8-0.2,1-0.3s0.3-0.2,0.4-0.4c0-0.2,0.1-0.4,0.1-0.6c0-0.4,0-0.8-0.1-1.2s-0.2-0.7-0.4-1s-0.4-0.5-0.8-0.7
	c-0.3-0.2-0.7-0.3-1.1-0.3c-0.6,0-1.1,0.1-1.6,0.4c-0.5,0.3-0.9,0.7-1.1,1.2h-0.2v-1.3c0.7-0.6,1.3-0.9,1.8-1.1
	c0.6-0.2,1.1-0.3,1.7-0.3c0.5,0,1,0.1,1.5,0.3c0.4,0.2,0.8,0.4,1.1,0.7s0.6,0.7,0.7,1.1c0.2,0.4,0.3,0.9,0.3,1.5c0,0.9,0,1.8,0,2.8
	c0,0.9,0,1.9,0,2.9c0,0.2,0,0.4,0,0.6s0,0.4,0.1,0.6s0.1,0.3,0.3,0.4c0.1,0.1,0.3,0.2,0.5,0.2c0.1,0,0.2,0,0.2,0
	c0.1,0,0.2,0,0.2-0.1v0.5C247.8,67.7,247.6,67.8,247.4,67.9L247.4,67.9z M243.7,62.2c-0.5,0.1-1,0.2-1.5,0.4s-0.9,0.4-1.2,0.8
	c-0.3,0.3-0.5,0.9-0.5,1.5c0,0.8,0.2,1.3,0.6,1.7c0.4,0.4,0.8,0.6,1.3,0.6c0.6,0,1.1-0.2,1.5-0.5c0.5-0.3,0.8-0.7,1.1-1.2l0.1-3.6
	C244.6,62,244.2,62.1,243.7,62.2L243.7,62.2z M252.4,52.9c0,0.6,0,1.3,0,1.9c0,0.6,0,1.2,0,1.8V61c0,0.6,0,1.2,0,1.8s0,1.3,0,1.9
	s0,1.2,0.1,1.8c0,0.6,0,1.1,0.1,1.5c-0.4-0.1-0.7-0.1-1-0.1s-0.6,0-1,0.1c0-0.4,0.1-0.9,0.1-1.5s0-1.2,0.1-1.8c0-0.6,0-1.3,0-1.9
	c0-0.6,0-1.2,0-1.8v-4.4c0-0.6,0-1.2,0-1.8s0-1.3,0-1.9c0-0.6,0-1.2-0.1-1.8c0-0.6,0-1.1-0.1-1.5c0.4,0.1,0.7,0.1,1,0.1s0.6,0,1-0.1
	c0,0.4-0.1,0.9-0.1,1.5C252.4,51.6,252.4,52.2,252.4,52.9L252.4,52.9z M258.2,53c-0.2,0.2-0.5,0.4-0.8,0.4s-0.6-0.1-0.8-0.4
	c-0.2-0.2-0.3-0.5-0.3-0.9c0-0.3,0.1-0.6,0.3-0.9c0.2-0.2,0.5-0.4,0.8-0.4s0.6,0.1,0.8,0.4c0.2,0.2,0.3,0.5,0.3,0.9
	S258.4,52.8,258.2,53L258.2,53z M256.6,58.6c0-0.8-0.1-1.6-0.1-2.3c0.4,0.1,0.7,0.1,1,0.1s0.6,0,1-0.1c-0.1,0.7-0.1,1.4-0.1,2.3
	c0,0.8,0,1.6,0,2.3v2.5c0,0.7,0,1.5,0,2.3s0.1,1.6,0.1,2.3c-0.4-0.1-0.7-0.1-1-0.1s-0.6,0-1,0.1c0.1-0.7,0.1-1.4,0.1-2.3
	c0-0.8,0-1.6,0-2.3v-2.5C256.6,60.2,256.6,59.4,256.6,58.6L256.6,58.6z M245.2,28c0,0.6,0,1.3,0,1.9s0,1.2,0,1.8v4.4
	c0,0.6,0,1.2,0,1.8s0,1.3,0,1.9c0,0.6,0,1.2,0.1,1.8c0,0.6,0,1.1,0.1,1.5c-0.4-0.1-0.7-0.1-1-0.1s-0.6,0-1,0.1
	c0-0.4,0.1-0.9,0.1-1.5s0-1.2,0.1-1.8c0-0.6,0-1.3,0-1.9c0-0.6,0-1.2,0-1.8v-4.4c0-0.6,0-1.2,0-1.8c0-0.6,0-1.3,0-1.9s0-1.2-0.1-1.8
	c0-0.6,0-1.1-0.1-1.5c0.4,0.1,0.7,0.1,1,0.1s0.6,0,1-0.1c0,0.4-0.1,0.9-0.1,1.5C245.3,26.7,245.3,27.3,245.2,28L245.2,28z
	 M258.6,36.7c0,0.2,0,0.3,0,0.5c-0.8,0-1.6,0-2.4,0c-0.8,0-1.6,0-2.4,0c-0.5,0-1,0-1.4,0c-0.5,0-1,0-1.4,0c0,0.1,0,0.3,0,0.4
	c0,0.1,0,0.2,0,0.3c0,0.6,0.1,1.2,0.3,1.8s0.4,1,0.7,1.4s0.7,0.7,1.2,0.9s1,0.4,1.6,0.4c0.3,0,0.6,0,0.9-0.1
	c0.3-0.1,0.6-0.2,0.9-0.4c0.3-0.2,0.6-0.3,0.8-0.5c0.3-0.2,0.5-0.4,0.7-0.7l0.1,0.1l-0.1,1.2c-0.4,0.4-1,0.7-1.7,1
	c-0.7,0.3-1.3,0.5-2,0.5c-0.8,0-1.5-0.1-2.2-0.4c-0.7-0.3-1.2-0.7-1.7-1.2s-0.8-1.1-1.1-1.8s-0.4-1.5-0.4-2.3c0-2,0.4-3.5,1.3-4.7
	c0.9-1.1,2.1-1.7,3.8-1.7c0.8,0,1.4,0.1,2,0.4c0.6,0.3,1.1,0.6,1.4,1.1c0.4,0.4,0.7,1,0.9,1.6c0.2,0.6,0.3,1.2,0.3,1.9
	C258.6,36.4,258.6,36.5,258.6,36.7L258.6,36.7z M256.7,34.8c-0.1-0.5-0.2-0.9-0.4-1.4c-0.2-0.4-0.5-0.8-0.8-1
	c-0.4-0.3-0.8-0.4-1.4-0.4c-0.5,0-1,0.1-1.4,0.4s-0.7,0.6-0.9,1s-0.4,0.9-0.6,1.4c-0.1,0.5-0.2,1-0.2,1.4c0.5,0,0.9,0,1.4,0
	s1,0,1.4,0c0.5,0,1,0,1.5,0s1,0,1.5,0C256.8,35.8,256.8,35.3,256.7,34.8L256.7,34.8z M163.6,81c-0.5,0-1,0.2-1.5,0.7
	c-0.5,0.4-1,1.1-1.4,2l0,0c0-0.3,0-0.6,0-1c0-0.3,0-0.8,0.1-1.4c-0.3,0.1-0.6,0.1-0.9,0.1c-0.2,0-0.3,0-0.5,0
	c-0.1,0-0.3-0.1-0.5-0.1c0,1.1,0.1,2,0.1,2.8s0,1.6,0,2.2v0.8c0,1.4,0,2.5,0,3.5c0,0.9,0,1.7-0.1,2.3c0.2,0,0.3-0.1,0.5-0.1
	c0.1,0,0.3,0,0.5,0c0.3,0,0.6,0,0.9,0.1c0-0.3,0-0.6-0.1-0.9c0-0.3,0-0.7,0-1.2s0-1.1,0-1.8c0-0.7,0-1.6,0-2.7
	c0-0.5,0.1-0.9,0.2-1.3c0.1-0.4,0.3-0.8,0.4-1.1c0.2-0.3,0.4-0.5,0.7-0.7s0.6-0.3,1-0.3c0.2,0,0.4,0,0.7,0.1
	c0.2,0.1,0.4,0.2,0.4,0.3l0.2-0.1c0-0.3,0-0.7,0-1.1s0.1-0.7,0.1-0.9c-0.1-0.1-0.3-0.1-0.4-0.1C163.8,81,163.7,81,163.6,81z
	 M144,82.4c-0.4-0.5-0.9-0.8-1.4-1.1c-0.5-0.2-1.1-0.4-1.7-0.4c-0.6,0-1.1,0.1-1.5,0.3c-0.4,0.2-0.8,0.4-1.1,0.7
	c-0.3,0.3-0.5,0.6-0.7,0.9s-0.4,0.6-0.5,0.8l0,0c0-0.4,0-0.8,0-1.2c0-0.4,0.1-0.8,0.1-1.2c-0.4,0.1-0.7,0.1-1,0.1s-0.6,0-1-0.1
	c0,0.4,0.1,0.9,0.1,1.5s0,1.2,0.1,1.8c0,0.6,0,1.3,0,1.9s0,1.2,0,1.8v3.9c0,0.6,0,1.2,0,1.8c0,0.6,0,1.3,0,1.9s0,1.2-0.1,1.8
	c0,0.6,0,1.1-0.1,1.5c0.4-0.1,0.7-0.1,1-0.1s0.6,0,1,0.1c0-0.4-0.1-0.9-0.1-1.5s0-1.2-0.1-1.8c0-0.6,0-1.3,0-1.9s0-1.2,0-1.8v-1.5
	l0,0c0.3,0.8,0.8,1.4,1.4,1.8c0.6,0.4,1.3,0.6,2.1,0.6c0.6,0,1.1-0.1,1.7-0.4c0.6-0.3,1.1-0.6,1.5-1.1s0.8-1.1,1.1-1.9
	s0.4-1.7,0.4-2.7s-0.1-1.9-0.4-2.7C144.7,83.5,144.4,82.9,144,82.4z M143.2,89c-0.1,0.6-0.3,1.2-0.6,1.7s-0.6,0.9-1,1.1
	c-0.4,0.3-0.9,0.4-1.4,0.4c-1.1,0-1.9-0.4-2.4-1.3s-0.8-2.1-0.8-3.8c0-0.7,0.1-1.4,0.2-2c0.1-0.6,0.3-1.2,0.6-1.6
	c0.3-0.5,0.6-0.8,1-1.1c0.4-0.3,0.9-0.4,1.5-0.4c0.4,0,0.7,0.1,1.1,0.2c0.4,0.1,0.7,0.4,1,0.8s0.5,0.9,0.7,1.5s0.3,1.4,0.3,2.4
	C143.4,87.7,143.4,88.4,143.2,89z M126.2,82.5c-0.4-0.4-0.9-0.8-1.4-1.1c-0.6-0.3-1.2-0.4-2-0.4c-1.6,0-2.9,0.6-3.8,1.7
	s-1.3,2.7-1.3,4.7c0,0.8,0.1,1.6,0.4,2.3c0.3,0.7,0.6,1.3,1.1,1.8s1,0.9,1.7,1.2c0.7,0.3,1.4,0.4,2.2,0.4c0.7,0,1.4-0.2,2-0.5
	c0.7-0.3,1.2-0.6,1.7-1l0.1-1.2l-0.1-0.1c-0.2,0.2-0.4,0.5-0.7,0.7c-0.3,0.2-0.5,0.4-0.8,0.5c-0.3,0.2-0.6,0.3-0.9,0.4
	s-0.6,0.1-0.9,0.1c-0.6,0-1.2-0.1-1.6-0.4c-0.5-0.2-0.9-0.6-1.2-0.9c-0.3-0.4-0.6-0.9-0.7-1.4c-0.2-0.6-0.3-1.1-0.3-1.8
	c0-0.1,0-0.2,0-0.3c0-0.1,0-0.2,0-0.4c0.5,0,1,0,1.4,0c0.5,0,1,0,1.4,0c0.8,0,1.6,0,2.4,0s1.6,0,2.4,0c0-0.2,0-0.3,0-0.5
	s0-0.3,0-0.5c0-0.7-0.1-1.3-0.3-1.9C126.9,83.4,126.6,82.9,126.2,82.5z M124.1,86c-0.5,0-1,0-1.5,0s-1,0-1.4,0c-0.5,0-1,0-1.4,0
	c0-0.4,0.1-0.9,0.2-1.4s0.3-0.9,0.6-1.4c0.2-0.4,0.6-0.8,0.9-1c0.4-0.3,0.8-0.4,1.4-0.4s1,0.1,1.4,0.4s0.6,0.6,0.8,1
	c0.2,0.4,0.3,0.9,0.4,1.4s0.1,0.9,0.1,1.4C125.1,86,124.6,86,124.1,86z M155.5,82.5c-0.4-0.4-0.9-0.8-1.4-1.1
	c-0.6-0.3-1.2-0.4-2-0.4c-1.6,0-2.9,0.6-3.8,1.7c-0.9,1.1-1.3,2.7-1.3,4.7c0,0.8,0.1,1.6,0.4,2.3c0.3,0.7,0.6,1.3,1.1,1.8
	s1,0.9,1.7,1.2c0.7,0.3,1.4,0.4,2.2,0.4c0.7,0,1.4-0.2,2-0.5c0.7-0.3,1.2-0.6,1.7-1l0.1-1.2l-0.1-0.1c-0.2,0.2-0.4,0.5-0.7,0.7
	s-0.5,0.4-0.8,0.5c-0.3,0.2-0.6,0.3-0.9,0.4c-0.3,0.1-0.6,0.1-0.9,0.1c-0.6,0-1.2-0.1-1.6-0.4c-0.5-0.2-0.9-0.6-1.2-0.9
	c-0.3-0.4-0.6-0.9-0.7-1.4c-0.2-0.6-0.3-1.1-0.3-1.8c0-0.1,0-0.2,0-0.3c0-0.1,0-0.2,0-0.4c0.5,0,1,0,1.4,0c0.5,0,1,0,1.4,0
	c0.8,0,1.6,0,2.4,0c0.8,0,1.6,0,2.4,0c0-0.2,0-0.3,0-0.5s0-0.3,0-0.5c0-0.7-0.1-1.3-0.3-1.9C156.2,83.4,155.9,82.9,155.5,82.5z
	 M153.4,86c-0.5,0-1,0-1.5,0s-1,0-1.4,0c-0.5,0-1,0-1.4,0c0-0.4,0.1-0.9,0.2-1.4c0.1-0.5,0.3-0.9,0.6-1.4c0.2-0.4,0.6-0.8,0.9-1
	c0.4-0.3,0.8-0.4,1.4-0.4c0.6,0,1,0.1,1.4,0.4s0.6,0.6,0.8,1s0.3,0.9,0.4,1.4s0.1,0.9,0.1,1.4C154.4,86,153.9,86,153.4,86z
	 M174.5,83.5c0-0.8,0.1-1.6,0.1-2.3c-0.4,0.1-0.7,0.1-1,0.1s-0.6,0-1-0.1c0.1,0.7,0.1,1.4,0.1,2.3c0,0.8,0,1.6,0,2.3v2.5
	c0,0.7,0,1.5,0,2.3s-0.1,1.6-0.1,2.3c0.4-0.1,0.7-0.1,1-0.1s0.6,0,1,0.1c-0.1-0.7-0.1-1.4-0.1-2.3c0-0.8,0-1.6,0-2.3v-2.5
	C174.5,85.1,174.5,84.3,174.5,83.5z M173.7,75.8c-0.3,0-0.6,0.1-0.8,0.4s-0.3,0.5-0.3,0.9s0.1,0.6,0.3,0.9s0.5,0.4,0.8,0.4
	s0.6-0.1,0.8-0.4s0.3-0.5,0.3-0.9s-0.1-0.6-0.3-0.9S174,75.8,173.7,75.8z M180.6,79.7c0-0.6,0-1.3,0-1.9s0-1.2,0.1-1.8
	c0-0.6,0-1.1,0.1-1.5c-0.4,0.1-0.7,0.1-1,0.1s-0.6,0-1-0.1c0,0.4,0.1,0.9,0.1,1.5s0,1.2,0.1,1.8c0,0.6,0,1.3,0,1.9s0,1.2,0,1.8v4.4
	c0,0.6,0,1.2,0,1.8c0,0.6,0,1.3,0,1.9s0,1.2-0.1,1.8c0,0.6,0,1.1-0.1,1.5c0.4-0.1,0.7-0.1,1-0.1s0.6,0,1,0.1c0-0.4-0.1-0.9-0.1-1.5
	s0-1.2-0.1-1.8c0-0.6,0-1.3,0-1.9s0-1.2,0-1.8v-4.4C180.6,80.9,180.6,80.3,180.6,79.7z M258.5,84.2c-0.3-0.8-0.7-1.4-1.2-1.9
	s-1.1-0.8-1.7-1c-0.6-0.2-1.3-0.3-1.9-0.3c-0.6,0-1.3,0.1-1.9,0.3c-0.6,0.2-1.2,0.6-1.7,1c-0.5,0.5-0.9,1.1-1.2,1.9
	s-0.5,1.7-0.5,2.8c0,1.1,0.2,2,0.5,2.8s0.7,1.4,1.2,1.9s1.1,0.8,1.7,1c0.6,0.2,1.3,0.3,1.9,0.3c0.6,0,1.3-0.1,1.9-0.3
	c0.6-0.2,1.2-0.6,1.7-1c0.5-0.5,0.9-1.1,1.2-1.9c0.3-0.8,0.5-1.7,0.5-2.8C259,86,258.8,85,258.5,84.2z M256.8,89
	c-0.1,0.6-0.3,1.2-0.6,1.7c-0.3,0.5-0.6,0.9-1.1,1.2c-0.4,0.3-1,0.4-1.6,0.4s-1.2-0.1-1.6-0.4c-0.4-0.3-0.8-0.7-1.1-1.2
	s-0.5-1.1-0.6-1.7s-0.2-1.3-0.2-2s0.1-1.3,0.2-2c0.1-0.6,0.3-1.2,0.6-1.7s0.6-0.9,1.1-1.2c0.4-0.3,1-0.4,1.6-0.4s1.2,0.1,1.6,0.4
	c0.4,0.3,0.8,0.7,1.1,1.2c0.3,0.5,0.5,1.1,0.6,1.7s0.2,1.3,0.2,2S257,88.4,256.8,89z M218.4,83.5c0-0.8,0.1-1.6,0.1-2.3
	c-0.4,0.1-0.7,0.1-1,0.1s-0.6,0-1-0.1c0.1,0.7,0.1,1.4,0.1,2.3c0,0.8,0,1.6,0,2.3v2.5c0,0.7,0,1.5,0,2.3s-0.1,1.6-0.1,2.3
	c0.4-0.1,0.7-0.1,1-0.1s0.6,0,1,0.1c-0.1-0.7-0.1-1.4-0.1-2.3c0-0.8,0-1.6,0-2.3v-2.5C218.4,85.1,218.4,84.3,218.4,83.5z
	 M217.5,75.8c-0.3,0-0.6,0.1-0.8,0.4c-0.2,0.2-0.3,0.5-0.3,0.9s0.1,0.6,0.3,0.9c0.2,0.2,0.5,0.4,0.8,0.4s0.6-0.1,0.8-0.4
	c0.2-0.2,0.3-0.5,0.3-0.9s-0.1-0.6-0.3-0.9S217.8,75.8,217.5,75.8z M226.9,86.8c-0.4-0.2-0.8-0.4-1.3-0.5s-0.9-0.3-1.3-0.4
	c-0.4-0.2-0.7-0.4-1-0.7c-0.3-0.3-0.4-0.7-0.4-1.2c0-0.4,0.1-0.7,0.2-0.9c0.1-0.3,0.3-0.5,0.4-0.6c0.2-0.2,0.4-0.3,0.6-0.4
	c0.2-0.1,0.4-0.1,0.7-0.1c0.5,0,0.9,0.2,1.3,0.5c0.3,0.3,0.6,0.7,0.7,1h0.3c0-0.1,0-0.2,0.1-0.4c0-0.1,0.1-0.3,0.1-0.5
	c0.1-0.2,0.1-0.3,0.2-0.5c0.1-0.2,0.1-0.3,0.2-0.4c-0.3-0.1-0.7-0.3-1.1-0.4c-0.4-0.2-0.8-0.2-1.4-0.2c-0.6,0-1.1,0.1-1.6,0.3
	c-0.5,0.2-0.8,0.4-1.2,0.8c-0.3,0.3-0.5,0.7-0.7,1.2c-0.2,0.4-0.2,0.9-0.2,1.5c0,0.7,0.1,1.2,0.4,1.6c0.3,0.4,0.6,0.7,1,0.9
	c0.4,0.2,0.8,0.4,1.3,0.5s0.9,0.3,1.3,0.4c0.4,0.2,0.7,0.4,1,0.7c0.3,0.3,0.4,0.7,0.4,1.2c0,0.4-0.1,0.7-0.2,0.9
	c-0.1,0.3-0.3,0.5-0.5,0.7s-0.4,0.3-0.7,0.4s-0.5,0.1-0.8,0.1s-0.6-0.1-0.9-0.2c-0.3-0.1-0.5-0.3-0.7-0.4c-0.2-0.2-0.4-0.4-0.6-0.5
	c-0.2-0.2-0.3-0.4-0.3-0.5h-0.3c0,0.2,0,0.5-0.1,0.9s-0.2,0.7-0.3,0.9c0.3,0.2,0.7,0.4,1.1,0.5c0.5,0.2,1,0.3,1.7,0.3
	c0.6,0,1.2-0.1,1.7-0.3c0.5-0.2,0.9-0.5,1.2-0.9s0.6-0.8,0.8-1.2c0.2-0.5,0.3-0.9,0.3-1.4c0-0.7-0.1-1.2-0.4-1.6
	C227.6,87.3,227.3,87,226.9,86.8z M213.5,81c-0.5,0-1,0.2-1.5,0.7c-0.5,0.4-1,1.1-1.4,2l0,0c0-0.3,0-0.6,0-1c0-0.3,0-0.8,0.1-1.4
	c-0.3,0.1-0.6,0.1-0.9,0.1c-0.2,0-0.3,0-0.5,0c-0.1,0-0.3-0.1-0.5-0.1c0,1.1,0.1,2,0.1,2.8s0,1.6,0,2.2v0.8c0,1.4,0,2.5,0,3.5
	c0,0.9,0,1.7-0.1,2.3c0.2,0,0.3-0.1,0.5-0.1c0.1,0,0.3,0,0.5,0c0.3,0,0.6,0,0.9,0.1c0-0.3,0-0.6-0.1-0.9c0-0.3,0-0.7,0-1.2
	s0-1.1,0-1.8c0-0.7,0-1.6,0-2.7c0-0.5,0.1-0.9,0.2-1.3c0.1-0.4,0.3-0.8,0.4-1.1c0.2-0.3,0.4-0.5,0.7-0.7s0.6-0.3,1-0.3
	c0.2,0,0.4,0,0.7,0.1c0.2,0.1,0.4,0.2,0.4,0.3l0.2-0.1c0-0.3,0-0.7,0-1.1s0.1-0.7,0.1-0.9c-0.1-0.1-0.3-0.1-0.4-0.1
	C213.8,81,213.6,81,213.5,81z M194,92.3c-0.4,0-0.8-0.1-1-0.3c-0.2-0.2-0.4-0.5-0.5-0.8s-0.2-0.7-0.2-1.2c0-0.4,0-0.9,0-1.3
	c0-0.5,0-1.1,0-1.8c0-0.7,0-1.3,0-2c0-0.6,0-1.2,0-1.6c0-0.5,0-0.7,0-0.8c0.3,0,0.6,0,1.1,0s0.9,0,1.3,0c0-0.1,0-0.2,0-0.2
	c0-0.1,0-0.2,0-0.3c0-0.1,0-0.2,0-0.2c0-0.1,0-0.2,0-0.3c-0.5,0-1,0.1-1.4,0.1s-0.7,0-0.9,0c0-0.6,0.1-1.2,0.1-1.8
	c0-0.6,0.1-1.2,0.1-1.8h-0.1l-1.8,0.9c0,0.5,0,1,0.1,1.5c0,0.5,0,0.9,0,1.2c-0.3,0-0.8,0-1.5-0.1c0,0.1,0,0.2,0,0.2
	c0,0.1,0,0.2,0,0.2c0,0.1,0,0.2,0,0.3c0,0.1,0,0.2,0,0.3c0.3,0,0.6,0,0.8,0c0.3,0,0.5,0,0.7,0c0,0.9,0,1.7,0,2.5c0,0.7,0,1.4-0.1,2
	c0,0.6,0,1.2,0,1.7s0,1,0,1.4c0,1,0.2,1.7,0.7,2.2c0.4,0.5,1.1,0.8,2.1,0.8c0.3,0,0.6,0,0.9-0.1c0.3-0.1,0.6-0.2,0.8-0.3v-0.6
	c-0.1,0-0.3,0.1-0.5,0.1C194.3,92.3,194.1,92.3,194,92.3z M205.5,81.2c-0.1,0-0.3,0.1-0.4,0.1c-0.1,0-0.3,0-0.5,0s-0.3,0-0.5,0
	c-0.1,0-0.3-0.1-0.5-0.1c0,0.6,0,1.2,0,1.9c0,0.7,0,1.4,0,2c0,1,0,1.7,0,2.3c0,0.6,0,1-0.1,1.3c0,0.3-0.1,0.6-0.1,0.8
	c-0.1,0.2-0.2,0.4-0.3,0.7c-0.2,0.4-0.5,0.8-0.9,1.1c-0.4,0.3-0.9,0.4-1.5,0.4c-0.4,0-0.8-0.1-1.1-0.3c-0.3-0.2-0.6-0.4-0.8-0.6
	s-0.4-0.6-0.5-1s-0.2-1.1-0.2-1.9c0-1.2,0-2.4,0.1-3.6c0-1.2,0.1-2.2,0.2-3.2c-0.3,0.1-0.6,0.1-0.9,0.1c-0.3,0-0.6,0-0.9-0.1
	c0,0.7,0,1.4,0,2c0,0.7,0,1.3,0,1.8c0,0.6,0,1.2,0,1.8c0,0.6,0,1.3,0,2.2c0,1.3,0.3,2.2,1,2.9c0.7,0.7,1.6,1,2.7,1
	c0.7,0,1.4-0.2,2-0.6s1.1-1,1.5-1.7l0,0c0,0.3,0,0.7,0,1s0,0.7,0,1c0.3-0.1,0.6-0.1,0.9-0.1c0.3,0,0.5,0,0.9,0.1
	c0-0.7-0.1-1.4-0.1-2.1s0-1.4,0-2.2c0-1.3,0-2.5,0-3.7C205.4,83.7,205.5,82.5,205.5,81.2z M245,81.9c-0.3-0.3-0.7-0.5-1.1-0.7
	c-0.4-0.1-0.9-0.2-1.3-0.2c-0.8,0-1.5,0.2-2.1,0.6s-1.1,1-1.4,1.8l0,0c-0.1-0.3-0.2-0.7-0.4-1s-0.5-0.6-0.7-0.8
	c-0.3-0.2-0.6-0.4-1-0.5s-0.7-0.2-1.1-0.2c-1.4,0-2.5,0.7-3.3,2.2l0,0c0-0.6,0-1.3,0.1-1.9c-0.4,0.1-0.7,0.1-0.9,0.1
	c-0.3,0-0.6,0-1-0.1c0.1,0.7,0.1,1.4,0.1,2.3c0,0.8,0,1.6,0,2.3v2.5c0,0.7,0,1.5,0,2.3s-0.1,1.6-0.1,2.3c0.4-0.1,0.7-0.1,1-0.1
	s0.6,0,1,0.1c-0.1-0.7-0.1-1.4-0.1-2.3c0-0.8,0-1.6,0-2.3v-2.1c0-1.3,0.2-2.2,0.7-2.9c0.5-0.7,1.2-1,2.1-1c0.4,0,0.7,0.1,1.1,0.3
	c0.3,0.2,0.6,0.5,0.8,0.8c0.1,0.2,0.2,0.4,0.2,0.5c0.1,0.2,0.1,0.4,0.1,0.6c0,0.3,0,0.6,0,1s0,1,0,1.8c0,0.9,0,1.8,0,2.7
	c0,0.9-0.1,1.9-0.2,2.8c0.4-0.1,0.7-0.1,1-0.1s0.6,0,1,0.1c0-0.4,0-0.7,0-1s0-0.6,0-0.9s0-0.6,0-0.9s0-0.6,0-1c0-1.2,0-2.1,0-2.7
	c0-0.7,0-1.2,0.1-1.5c0-0.4,0.1-0.6,0.2-0.8c0.1-0.2,0.2-0.4,0.3-0.5c0.2-0.3,0.5-0.6,0.9-0.8c0.4-0.2,0.8-0.3,1.3-0.3
	c0.4,0,0.8,0.1,1.1,0.2c0.3,0.2,0.5,0.4,0.7,0.6c0.2,0.3,0.3,0.6,0.4,0.9c0.1,0.4,0.1,0.7,0.1,1.1c0,2.2,0,3.9-0.1,5.1
	s-0.1,2.1-0.1,2.5c0.3-0.1,0.7-0.1,1-0.1s0.6,0,1,0.1c0-0.5,0-1-0.1-1.4c0-0.4,0-0.8,0-1.3c0-0.7,0-1.3,0-1.9c0-0.5,0-1,0-1.5
	c0-0.4,0-0.8,0-1.1c0-0.3,0-0.6,0-0.9c0-0.7-0.1-1.3-0.3-1.8C245.5,82.6,245.3,82.2,245,81.9z"/>
<g>
	<path class="st0" d="M13.6,90.7c0.1,0,0.1-0.1,0-0.2s-0.3-0.1-0.4-0.2c-1.3-0.3-2.5-0.8-3.7-1.2l-4.9-1.7l-3.7-1.3
		C0.6,86,0.3,85.9,0,85.8v9.7c0.3-0.1,0.6-0.2,1-0.3l3.7-1.3c2.8-1,5.6-2.1,8.5-3C13.3,90.9,13.5,90.8,13.6,90.7z"/>
	<path class="st0" d="M75.5,34.5c-0.1,0.1-0.1,0.3-0.1,0.5c0,0.1,0.1,0.2,0.2,0.3c0-0.2,0-0.2,0.1-0.2c0.5-0.2,0.9-0.5,1.2-0.9
		c0.1-0.1,0.1-0.3,0-0.4c-0.1-0.1-0.2-0.1-0.3-0.1C76.1,33.8,75.7,34,75.5,34.5z"/>
	<path class="st0" d="M7,62.8c0.2,0,0.4,0,0.5,0s0.2-0.1,0.3-0.3c0-0.2,0-0.3,0-0.5v-1.6c0-0.6,0-1.2,0-1.9c0-0.6-0.2-1.2-0.5-1.7
		C7,56.4,6.5,56,6,55.9c-1.1-0.3-2.3,0.3-2.7,1.4c-0.2,0.5-0.3,1-0.3,1.5c0,1.1,0,2.1,0,3.2c0,0.8,0,0.8,0.8,0.8
		C3.8,62.8,7,62.8,7,62.8z"/>
	<path class="st0" d="M51.6,37.6c0.1,0.1,0.2,0.2,0.3,0.3s0.2,0,0.3-0.1c0,0,0,0,0-0.1c0,0,0-0.1,0-0.2c0.1-0.2,0.1-0.3,0-0.5
		c-0.3-1-0.9-1.9-1.7-2.6c-0.2-0.2-0.4-0.3-0.7-0.4c-0.1,0-0.3,0-0.5,0c-0.1,0-0.2,0-0.3,0c-0.2,0.1-0.2,0.3-0.2,0.5
		c0,0.1,0.1,0.1,0.1,0.1c0.1,0.1,0.3,0.2,0.5,0.3c0.8,0.5,1.5,1.2,1.9,2.1C51.4,37.2,51.5,37.4,51.6,37.6z"/>
	<path class="st0" d="M11.5,62.8h1.8c0.6,0,1.2,0,1.9,0s0.7-0.1,0.8-0.8s0-1.2,0-1.7c0-0.7,0-1.4-0.1-2.1c-0.1-0.7-0.3-1.3-0.6-2
		c-0.3-0.6-0.8-1-1.5-1.1c-1.2-0.3-2.4,0.4-2.7,1.5c0,0.1-0.1,0.2-0.1,0.3c-0.2,0.6-0.2,1.2-0.3,1.8c0,1.1,0,2.2,0,3.3
		c0,0.2,0,0.3,0,0.5s0.1,0.3,0.3,0.3H11.5z"/>
	<path class="st0" d="M5.2,42.1l5.4,2l0.3,0.1c0.2,0,0.3,0,0.4-0.3c0-0.2,0-0.3,0-0.5v-1.6c0-0.6,0-1.2,0-1.9c0-0.5-0.1-0.5-0.6-0.4
		l-0.3,0.1l-2.6,0.9l-2.5,1c-0.1,0-0.2,0.1-0.3,0.2c0,0-0.1,0.1,0,0.2C5,42,5.1,42.1,5.2,42.1z"/>
	<path class="st0" d="M44.9,39.9c-0.5,0-0.8,0.3-0.9,0.8v0.1c0,0.5,0.3,0.9,0.8,0.9s0.9-0.3,0.9-0.8c0,0,0,0,0-0.1
		C45.8,40.4,45.4,40,44.9,39.9L44.9,39.9z"/>
	<path class="st0" d="M77.1,56.7c0,0.3,0.2,0.6,0.5,0.7c0.3,0.1,0.5,0.2,0.8,0.3c0.6,0.2,1.2,0.2,1.8,0.1c0.6-0.1,1.2-0.2,1.8-0.3
		c0.6-0.1,1.2,0,1.8,0.3c0.6,0.4,1.2,0.4,1.8,0.2c0.3-0.1,0.6-0.2,0.9-0.3c0.7-0.2,1.4-0.7,1.9-1.2c0.2-0.2,0.4-0.5,0.4-0.9
		c0-0.2,0-0.4,0-0.6c0-0.9,0-0.9,0.8-1.2c1.2-0.5,2.3-1.3,3.2-2.3c0.5-0.5,0.7-1.2,0.7-1.9c0-0.5-0.1-1-0.3-1.5
		c-0.3-1-1.1-1.7-2.1-1.8s-1.9-0.1-2.8,0.1c-1.3,0.3-2.6,0.9-3.7,1.7c-0.9,0.7-1.9,1.6-2.7,2.2c-0.8,0.6-1.6,1.3-2.4,2
		c-0.6,0.5-1.4,0.8-2.3,0.8l-0.7,0.1c-0.4-0.1-0.6-0.3-0.7-0.7c0-0.1,0-0.3,0-0.5c0-0.4,0.1-0.8,0.1-1.2c0-0.2,0-0.5,0-0.7
		c0-0.1-0.1-0.2-0.1-0.3c-0.2-0.5-0.7-0.7-1.2-0.5c-0.2,0-0.4,0.1-0.6,0.2c-0.2,0.1-0.4,0-0.6-0.1l-0.3-0.2
		c-0.4-0.3-0.9-0.3-1.4-0.2c-0.2,0-0.4,0.2-0.4,0.5c0,0.1,0.1,0.2,0.1,0.3c0.3,0.8,0.7,1.6,1.2,2.3c0.6,0.8,1.3,1.6,1.9,2.4
		c0.1,0.2,0.3,0.3,0.5,0.5c0.5,0.4,0.9,0.4,1.3,0c0.1-0.1,0.2-0.2,0.3-0.3c0.1,0,0.2-0.1,0.3-0.1H77c0.2,0,0.3,0.2,0.3,0.4
		s0,0.4-0.1,0.5C77.1,55.9,77.1,56.3,77.1,56.7z M85.2,51.5c0.1,0,0.1-0.1,0.2-0.1c0.1-0.1,0.3-0.1,0.4,0c0.2,0.1,0.2,0.3,0.2,0.4
		c0,0.2-0.1,0.4-0.3,0.4c-0.4,0.5-0.8,0.8-1.3,1.2c-0.1,0.1-0.2,0.1-0.3,0.1H84c-0.2-0.1-0.3-0.2-0.2-0.4c0-0.1,0.1-0.1,0.1-0.2
		C84.3,52.4,84.7,51.9,85.2,51.5z M80.3,52.9c0.1-0.2,0.2-0.3,0.3-0.4c0.7-0.7,1.3-1.3,2-1.9c0.3-0.3,0.6-0.5,1-0.6
		c0.1-0.1,0.2-0.1,0.3-0.1c0.1,0,0.1,0,0.2,0c0.2,0,0.4,0.3,0.3,0.6s-0.3,0.5-0.5,0.7L81.5,53l-0.3,0.2c-0.2,0.1-0.3,0.1-0.5,0.1
		c-0.1,0-0.2,0-0.2,0.1c-0.1,0-0.1,0-0.1,0C80.3,53.3,80.2,53.1,80.3,52.9z"/>
	<path class="st0" d="M82.4,20.7c-0.2,0-0.3,0.1-0.4,0.3c-0.4,0.6-0.8,1.3-1.1,2c-0.1,0.1-0.1,0.3-0.1,0.5c-0.1,0.2,0.1,0.5,0.3,0.6
		c0,0,0,0,0.1,0c0.2,0.1,0.4,0,0.6-0.1c0.7-0.5,1.1-1.4,1.1-2.2c-0.1-0.3-0.1-0.5-0.2-0.7C82.7,20.9,82.6,20.7,82.4,20.7z"/>
	<path class="st0" d="M49.7,40.7c0.6,0,1.1-0.5,1.1-1.1c0.2,0.1,0.2,0,0.2-0.1c0-0.2-0.2-0.4-0.4-0.5s-0.5-0.2-0.8-0.3
		c-0.6-0.2-1.2-0.5-1.8-0.8c-1-0.7-1.8-1.7-2-2.9c0-0.5,0-1,0-1.5c0-0.2,0-0.4-0.1-0.6c0-0.1-0.2-0.1-0.3-0.1c0,0,0,0-0.1,0
		c-0.1,0.1-0.1,0.2-0.2,0.3c-0.1,0.2-0.2,0.5-0.3,0.7c-0.2,0.6-0.5,1.2-0.9,1.7c-0.1,0.1-0.2,0.3-0.3,0.4c-0.2,0.3-0.2,0.8,0.1,1
		c0.5,0.5,1,1,1.6,1.5c0.8,0.7,1.7,1.4,2.7,1.9C48.7,40.5,49.2,40.7,49.7,40.7z"/>
	<path class="st0" d="M66.4,36.4c-0.2,0-0.3,0-0.4,0.1c-0.4,0.2-0.9,0.5-1.3,0.7c-0.2,0.1-0.4,0.3-0.6,0.4c-0.2,0.2-0.4,0.5-0.4,0.8
		c0,0.2,0.1,0.4,0.4,0.5h0.1c0.1-0.1,0.2-0.1,0.2-0.1c0.6-0.4,1.2-0.8,1.7-1.2c0.2-0.1,0.3-0.3,0.5-0.5c0.1-0.1,0.1-0.2,0.2-0.3
		c0.1-0.2,0-0.4-0.2-0.4C66.6,36.4,66.5,36.4,66.4,36.4z"/>
	<path class="st0" d="M73.4,17.9l-0.1,0.3c-0.1,0.3,0.1,0.6,0.4,0.7c0.1,0,0.2,0,0.3,0c0.4,0,0.8-0.4,0.7-0.8
		c-0.1-0.4-0.4-0.6-0.7-0.7C73.7,17.4,73.5,17.6,73.4,17.9z"/>
</g>
<path class="st0" d="M2.9,0v4.6c0,0.9,0,0.9,0.9,0.9h13.8c0.2,0,0.5,0,0.7,0s0.3,0.1,0.3,0.3c0,0.1,0,0.2,0,0.3c0,0.7,0,1.3,0,1.9
	c0,0.6-0.2,0.7-0.7,0.7H4H3.3C3.1,8.8,3,8.9,3,9C2.9,9.2,2.9,9.4,2.9,9.7v3.9c0,0.9-0.1,0.9-0.9,0.9H1c-0.3,0-0.7,0-1,0.1v6.1
	c0-0.2,0-0.3,0-0.5c0-0.7,0.1-1.3,0.3-2c0-0.1,0.1-0.3,0.1-0.4c0.1-0.4,0.2-0.5,0.6-0.5h1.1c0.1,0,0.3,0,0.5,0C3,17.4,3,17.5,3,17.7
	s-0.1,0.4-0.1,0.6c-0.3,1.3-0.4,2.7-0.3,4c0,1.2,0.4,2.4,1,3.5c0.7,1.4,1.9,2.4,3.4,2.8c1.4,0.5,2.9,0.5,4.4,0.1
	c1.9-0.4,3.3-1.8,3.9-3.6c0.5-1.5,0.7-3.1,0.5-4.6c-0.1-1-0.2-1.9-0.4-2.9c0-0.1,0-0.3,0-0.4s0.1-0.2,0.2-0.2c0.1,0,0.1,0,0.2,0h1.8
	c0.3,0,0.3,0,0.5,0.5s0.2,1,0.3,1.5c0.4,2.3,0.3,4.6-0.2,6.9c-0.3,1.2-0.8,2.4-1.5,3.5c-1,1.6-2.7,2.8-4.6,3.2
	c-1,0.3-2.1,0.4-3.1,0.3c-2-0.2-4-0.9-5.5-2.2c-1-1-1.9-2.1-2.4-3.4c-0.5-1.1-0.8-2.2-0.9-3.4c0-0.3-0.1-0.7-0.1-1
	c0-0.2,0-0.4-0.1-0.5v18c0.4-0.1,0.8-0.2,1.1-0.4l5-2l11.6-4.7c1-0.3,1-0.4,1,0.7c0,0.6,0,1.2,0,1.8c0.1,0.4-0.2,0.8-0.6,0.9
	C17,37.1,16,37.5,15,37.9s-0.9,0.4-0.9,1.4c0,1.8,0,3.5,0,5.2c0,0.1,0,0.3,0,0.4c0,0.3,0.2,0.7,0.6,0.8c1.1,0.4,2.2,0.9,3.3,1.3
	c0.8,0.3,0.8,0.2,0.8,1.2c0,0.6,0,1.2,0,1.8c0,0.2,0,0.3,0,0.5v0.1c-0.1,0.1-0.2,0.1-0.3,0.1l-0.4-0.2l-6-2.4l-8.8-3.5
	c-0.8-0.3-1.5-0.6-2.2-0.9c-0.4-0.2-0.7-0.3-1.1-0.5v15.7c0-0.2,0-1,0.1-1.3c0.1-0.8,0.3-1.5,0.6-2.2c0.4-1.3,1.6-2.3,2.9-2.8
	C5.1,52,6.9,52.3,8,53.4c0.2,0.2,0.4,0.4,0.5,0.6c0.1,0.1,0,0.1,0.2,0.3s0.3,0.1,0.4,0c0.1-0.1,0.2-0.3,0.2-0.4
	c0.2-0.4,0.4-0.8,0.7-1.2c0.6-0.8,1.6-1.4,2.6-1.4c1.2-0.1,2.4,0.2,3.3,1c1,0.8,1.8,2,2.1,3.2c0.3,1,0.5,1.9,0.5,2.9
	c0.1,2.2,0.1,4.5,0.1,6.7c0,0.2,0,0.4,0,0.6c0,0.1,0,0.1,0,0.1c0,0.2-0.1,0.3-0.3,0.3s-0.5,0-0.7,0H1.1H0v3.3v1.1v0.6v0.7v9.1
	c0.4,0,0.9,0,1.3,0h17c0.4,0,0.5,0.1,0.5,0.5c0,0.2,0,0.4,0,0.6c0,0.6,0.1,1.3,0,1.7c-0.1,0.4-0.1,0.5-0.6,0.5c-0.2,0-0.4,0-0.6,0
	h-12c-0.1,0-0.2,0-0.3,0.1c-0.1,0.1,0.1,0.2,0.2,0.2l3.2,1.2l9.4,3.4l0.3,0.1c0.3,0.1,0.4,0.4,0.4,0.6c0,0.4,0,0.9,0,1.3
	c0,0.3-0.1,0.5-0.4,0.6c-0.4,0.2-0.9,0.3-1.3,0.5L5.7,96.4c-0.2,0.1-0.3,0.1-0.4,0.2v0.1l0.1,0.1c0.3,0,0.5,0,0.7,0h12.2
	c0.5,0,0.6,0,0.6,0.6v2.8h73.2c0-0.2,0.1-0.5,0.2-0.7c0.7-1.3,1.1-2.7,1.2-4.2c0.1-1,0.1-2-0.1-3c-0.1-0.8-0.1-1.6-0.1-2.4
	c0-0.5,0.2-1,0.6-1.3s0.8-0.6,1.2-0.8l4-2.2c0.7-0.4,1.3-0.9,1.9-1.5c1.1-1.2,1.8-2.7,2.1-4.3c0.1-0.3,0.1-0.7,0-1.1
	c-0.1-0.2-0.2-0.5-0.4-0.6c-0.2-0.1-0.4-0.1-0.5,0.2c-0.1,0.3-0.2,0.6-0.3,0.9c-0.3,1.2-1.1,2.2-2.2,2.7c-1.1,0.6-2.5,0.9-3.8,0.8
	c-1.1,0-2.1-0.7-2.4-1.8c-0.5-1.4-0.6-3-0.3-4.4c0-0.1,0.1-0.2,0.1-0.3c0.4-0.9,1.5-1.4,2.4-1c0.6,0.2,1,0.7,1.2,1.2
	c0.1,0.2,0.1,0.3,0.2,0.5c0.3,0.6,0.9,0.9,1.5,0.7c0.4-0.1,0.8-0.3,1.2-0.5l0.7-0.3c0.4-0.2,0.9-0.2,1.3,0c0.1,0.1,0.3,0.2,0.4,0.2
	s0.2,0,0.3,0c0.1-0.1,0.1-0.2,0-0.3c-0.1-0.1-0.2-0.3-0.4-0.4c-0.3-0.2-0.5-0.5-0.6-0.8c-0.1-0.4,0-0.9,0.3-1.2l0.2-0.2
	c0.1-0.1,0.2-0.4,0.3-0.6c0.1-0.6,0-1.2-0.3-1.7c-0.2-0.3-0.5-0.6-0.7-0.9c-0.4-0.4-0.4-1,0-1.5c0-0.1,0.1-0.2,0.2-0.3
	c0.2-0.2,0.3-0.4,0.4-0.6c0.3-0.5,0.3-1.2,0-1.7l-0.2-0.4c0-0.1-0.1-0.1-0.1-0.2c-0.2-0.6,0.1-1.1,0.6-1.3l1.3-0.4
	c0.2-0.1,0.5-0.2,0.7-0.3c0.8-0.4,1.2-1.2,1.1-2.1c0,0,0-0.1-0.1-0.2c-0.1-0.2-0.3-0.2-0.5-0.1c-0.7,0.4-1.4,0.6-2.2,0.7
	c-0.9,0.1-1.7,0.4-2.5,0.8L98.7,64c-0.5,0.3-1,0.6-1.6,0.8c-0.4,0.2-1,0.1-1.3-0.3c-0.3-0.2-0.4-0.4-0.6-0.6
	c-0.2-0.3-0.4-0.4-0.7-0.5c-0.2,0-0.4,0-0.5,0.1c0,0.1-0.1,0.1-0.1,0.1c-0.4,0.3-0.4,0.9,0,1.3c0.2,0.2,0.4,0.4,0.6,0.5
	c0.5,0.3,1,0.7,1.4,1.1c0.3,0.4,0.7,0.6,1.2,0.6h0.5c0.3,0,0.7,0.1,1,0.2s0.5,0.3,0.5,0.6c0,0.3,0,0.7-0.2,1
	c-0.3,0.6-0.8,1.2-1.3,1.6c-0.7,0.6-1.6,1-2.6,1c-0.7,0-1.4,0.2-1.9,0.6c-0.4,0.3-0.9,0.6-1.4,0.7s-1,0-1.4-0.3
	c-0.2-0.1-0.3-0.3-0.4-0.4c-0.6-0.7-1.4-1.1-2.3-1.1c-0.4,0-0.7-0.1-1.1-0.2c-3-1.1-6.1-2.1-9.2-3.2c-1-0.4-2.1-0.9-3.1-1.3
	c-0.3-0.2-0.6-0.3-0.9-0.5c-0.8-0.5-1.4-1.3-1.7-2.2c-0.4-1.5-0.6-3-0.5-4.5c0-0.2,0-0.3,0.1-0.5c0.1-0.3,0.4-0.5,0.7-0.4
	c0.1,0,0.3,0,0.4,0.1l0.5,0.2c0.3,0.1,0.5,0.1,0.7,0c0.6-0.2,1.2-0.3,1.9-0.3c0.2,0,0.3,0,0.5,0H76c0-0.1,0.1-0.2,0-0.3l-0.1-0.1
	l-2.1-2.5c-0.2-0.3-0.6-0.4-0.9-0.4c-1,0.1-2,0-3-0.3c-0.1,0-0.3-0.1-0.4-0.1c-0.1-0.1-0.2-0.2-0.2-0.3s0-0.2,0.1-0.2
	c0.2,0,0.4-0.1,0.6-0.2c0.6-0.2,1-0.7,1-1.3c0-0.3,0-0.5,0-0.8c0-0.4-0.2-0.8-0.4-1.2c-0.2-0.4-0.4-0.8-0.6-1.2
	c-0.2-0.3-0.3-0.7-0.4-1.1c-0.1-0.2,0-0.4,0.2-0.4c0.3-0.1,0.7-0.2,1-0.1l1.2,0.2c0.4,0.1,0.9-0.1,1.2-0.4c0.2-0.1,0.4-0.3,0.6-0.4
	c0.5-0.3,1.1-0.7,1.6-1.1c1.3-0.9,2.5-1.8,3.7-2.8c1.6-1.2,3-2.7,4.2-4.3c0.4-0.5,0.6-1,0.8-1.5c0.2-0.8,0.6-1.5,1.2-2l1-1
	c0.4-0.4,0.7-1,0.8-1.6c0.1-0.6,0.1-1.3-0.1-1.9c0-0.2-0.2-0.4-0.4-0.5c-0.3-0.2-0.8-0.2-1.1,0.1c-0.5,0.4-0.8,0.9-1,1.4
	c-0.2,0.8-0.7,1.4-1.4,1.9c-0.1,0.1-0.2,0.1-0.3,0.2c-0.6,0.6-1.3,1.2-2.1,1.7c-0.1,0-0.3,0.2-0.4,0.3c-0.2,0.2-0.2,0.5,0,0.7
	c0.1,0.1,0.3,0.2,0.4,0.4s0.1,0.3-0.1,0.5c-0.1,0.2-0.2,0.2-0.4,0.2c-0.2,0-0.3-0.1-0.5-0.1c-0.4-0.1-0.8-0.3-1.2-0.4
	s-0.8,0-1.1,0.2c-0.2,0.1-0.3,0.2-0.5,0.3c-0.6,0.5-1.3,0.7-2.1,0.8c-0.1,0-0.1,0-0.2,0c-0.3,0-0.4,0.1-0.3,0.5s0,0.5-0.4,0.6
	c-0.6,0.2-1.3,0.2-1.9,0.1c-0.7-0.2-1.4,0-2,0.3c-0.3,0.1-0.6,0.3-0.9,0.4c-0.1,0-0.3,0.1-0.5,0.1c-0.2,0.1-0.5-0.1-0.6-0.3
	c0-0.2-0.1-0.3-0.2-0.5s-0.2-0.3-0.3-0.5c-0.3-0.3-0.8-0.4-1.2-0.1c-0.3,0.3-0.6,0.7-0.7,1.1c-0.1,0.3,0,0.6,0.3,0.7
	c0.1,0.1,0.3,0.2,0.5,0.3c0.3,0.2,0.6,0.3,0.9,0.5c0.5,0.5,1.1,0.7,1.8,0.9c0.2,0,0.4,0.1,0.6,0.2c0.1,0.1,0.2,0.2,0.2,0.3
	s-0.1,0.2-0.2,0.2s-0.2,0-0.3,0c-0.8,0.1-1.6-0.2-2.2-0.7c-0.3-0.4-0.9-0.4-1.3-0.2c-0.6,0.3-1.4,0.5-2.1,0.5c-0.2,0-0.3,0-0.5,0
	c-0.3,0-0.6,0.4-0.5,0.7c0,0.3,0.1,0.6,0.4,0.8c0.2,0.3,0.5,0.5,0.8,0.7c0.2,0.2,0.4,0.5,0.3,0.8c0,0.4-0.2,0.9-0.5,1.2
	c-0.1,0.1-0.3,0.2-0.4,0.4c0,0-0.1,0.1-0.1,0.2c-0.1,0.4,0.1,0.9,0.5,1c0.1,0.1,0.3,0.1,0.5,0.1c0.4,0,0.7-0.1,1.1-0.3
	c0.5-0.2,1.1-0.5,1.6-0.6c0.8-0.2,1.6,0.1,2.2,0.7c0.3,0.4,0.6,0.9,0.7,1.4c0.4,0.7,0.2,1.6-0.5,2c-0.7,0.6-1.3,1.3-1.8,2
	c-0.3,0.4-0.7,0.6-1.2,0.6c-0.3,0-0.5,0-0.7,0.1s-0.4,0.2-0.6,0.4c-0.4,0.4-0.3,0.6,0,0.9l0.1,0.1c0.3,0.2,0.4,0.7,0.2,1
	c-0.1,0.3-0.4,0.6-0.7,0.7c-1.5,0.8-3.3,1-5,0.7c-1.1-0.2-2.2-0.7-3.1-1.3c-0.2-0.2-0.4-0.3-0.5-0.5c-0.2-0.1-0.2-0.3-0.1-0.5
	s0.3-0.3,0.5-0.2c0.2,0,0.3,0,0.4,0.1c0.4,0.1,0.7,0.3,1.1,0.3c0.6,0,1.1,0.1,1.7,0.1c0.5,0,0.9,0,1.4-0.1c0.4,0,0.7-0.3,0.8-0.7
	c0.1-0.5,0.4-1.1,0.7-1.6c0.1-0.2,0.3-0.4,0.4-0.6c0.2-0.4,0.3-0.8,0.3-1.3c0-0.3-0.3-0.6-0.6-0.6c-0.3-0.1-0.7-0.1-1,0
	c-0.4,0.1-0.8,0.2-1.2,0.3c-0.8,0.2-1.7,0.3-2.6,0.3h-0.7c-1,0-1.9-0.2-2.8-0.5c-0.3-0.1-0.6-0.2-0.8-0.4c-1-0.8-1.7-1.8-2.1-2.9
	c-0.3-1.1-1.2-1.9-2.2-2.2c-0.4-0.1-0.9-0.3-1.4-0.5c-1.5-0.6-2.6-1.7-3.1-3.2c0-0.2-0.1-0.3-0.2-0.4c-0.2-0.1-0.4-0.1-0.5,0.1
	c-0.3,0.4-0.4,0.9-0.3,1.4c0,0.4,0.2,0.7,0.5,1s0.4,0.8,0.2,1.3c-0.3,0.7-0.7,1.4-1.3,2c-0.4,0.4-0.9,0.4-1.3,0.1l-0.2-0.2
	c-0.3-0.2-0.6-0.3-0.9-0.2l-0.3,0.1c-0.4,0.1-0.8-0.1-0.9-0.4c-0.1-0.2-0.1-0.4-0.2-0.6c-0.1-0.6-0.2-1.2-0.3-1.8
	c-0.1-1-0.1-2,0.1-3c0.1-0.9,0.7-1.6,1.5-2c0.2-0.2,0.5-0.3,0.7-0.5c0.4-0.2,0.6-0.7,0.4-1.2c-0.1-0.3-0.2-0.6-0.2-0.9
	c-0.2-0.7,0.1-1.4,0.6-1.8c0.4-0.3,0.5-0.7,0.5-1.1c0-0.3,0-0.7,0-1.1c0-0.4,0.2-0.8,0.5-1c0.4-0.3,0.8-0.4,1.3-0.5
	c0.4,0,0.8-0.3,1-0.7c0.2-0.4,0.5-0.7,0.9-1s0.9-0.3,1.3-0.2h0.8c0.2,0.1,0.5,0.1,0.7,0.1c0.3,0,0.6-0.2,0.7-0.5
	c0.1-0.2,0.2-0.5,0.2-0.8c0.1-0.5,0.2-0.9,0.2-1.4s0.4-0.8,0.8-1c0.2,0,0.4-0.1,0.6-0.1c0.4,0,0.8,0,1.1,0.1
	c0.6,0.1,1.2,0.1,1.7-0.1c0.1,0,0.3-0.1,0.4-0.1c0.3-0.1,0.5,0.1,0.6,0.3c0.1,0.2,0.2,0.3,0.2,0.5c0.1,0.2,0.1,0.5,0.1,0.7
	c0.1,0.7,0.3,1.3,0.7,1.9c0.3,0.4,0.4,0.9,0.4,1.4c0,0.6,0,1.1-0.1,1.7c-0.1,0.2-0.1,0.5-0.1,0.7c-0.1,0.3,0.1,0.6,0.3,0.8
	c0.1,0.1,0.3,0.2,0.4,0.3c1,0.5,1.9,1.2,2.8,1.8c0.7,0.5,1.7,0.4,2.4-0.1c0.2-0.2,0.5-0.4,0.8-0.6s0.6-0.4,1-0.4
	c0.5,0,1-0.1,1.5-0.1c0.8,0,1.5-0.3,2.1-0.9c0.5-0.5,1.2-0.9,1.9-1.1c0.4-0.1,0.7-0.3,1.1-0.4c0.6-0.3,1.1-0.7,1.5-1.3
	c0.3-0.4,0.7-0.8,1.2-1.1c0.6-0.4,1.1-0.7,1.7-1.1c0.7-0.4,1.2-1,1.6-1.7c0,0,0.1-0.1,0.1-0.2c0.2-0.5,0-1-0.5-1.2
	c-0.1-0.1-0.3-0.1-0.4-0.2s-0.3-0.1-0.4-0.2l-0.1-0.1c-0.1-0.1,0-0.2,0.1-0.3c0.2-0.1,0.4-0.2,0.6-0.2s0.3-0.1,0.5-0.1
	c0.5-0.1,0.6-0.3,0.6-0.8c0-0.2,0-0.4,0-0.5c-0.1-0.4-0.1-0.7-0.1-1.1c-0.1-0.4,0.1-0.8,0.3-1.1l0.6-0.9c0.2-0.3,0.4-0.6,0.6-1
	s0.2-0.9,0.1-1.4c0-0.3-0.2-0.5-0.4-0.6c-0.1,0-0.1,0-0.1,0c-0.2-0.1-0.5,0-0.6,0.2s-0.1,0.4-0.2,0.6c-0.2,0.4-0.3,0.9-0.5,1.4
	c-0.2,0.3-0.4,0.6-0.7,0.9c-0.2,0.3-0.6,0.4-0.9,0.2c-0.5-0.2-0.9-0.2-1.4-0.1c-0.3,0-0.5,0-0.8,0.1c-0.5,0.2-1.1,0.1-1.6-0.3
	c-0.8-0.5-1.4-1.1-1.9-1.9c-0.3-0.4-0.8-0.7-1.3-0.8l-0.7-0.1c-0.6-0.2-1.2-0.2-1.8-0.2c-1.1,0-2.1,0.3-3,0.8
	c-0.4,0.2-0.8,0.4-1.2,0.6s-0.8,0.3-1.3,0.3c-0.3,0.1-0.6-0.2-0.7-0.5c-0.2-0.7-0.2-1.5,0.2-2.2c0.3-0.6,0.7-1,1.2-1.4
	c0.5-0.3,1-0.6,1.5-0.8c1.6-0.5,3.2-0.6,4.8-0.4c0.7,0.1,1.5,0.1,2.2,0.1c0.4,0,0.7-0.2,0.9-0.5c0.1-0.3,0.2-0.5,0.4-0.7
	c0.6-0.9,1.7-1.5,2.8-1.6c1-0.1,1.9-0.3,2.8-0.6s1.8-0.3,2.7,0l0.9,0.3c0.6,0.2,1.3,0.2,2,0.1l1.3-0.2c0.9-0.2,1.9,0.2,2.4,1v0.4
	c0.1,0.2,0.2,0.5,0.2,0.7c0,1.1-0.7,2.1-1.8,2.3l-0.6,0.1c-0.2,0-0.3,0-0.5,0.1c-0.3,0-0.6,0.3-0.6,0.6c-0.1,0.3,0.1,0.6,0.4,0.8
	c0.2,0.2,0.5,0.3,0.7,0.3c0.4,0,0.9,0.1,1.3,0.1c0.5,0,0.9,0.2,1.2,0.6c0.2,0.2,0.3,0.5,0.2,0.8c-0.1,0.5-0.3,0.9-0.6,1.2
	c-0.1,0.1-0.3,0.3-0.4,0.4c-0.2,0.2-0.3,0.6-0.1,0.8c0.4,0.6,0.6,1.2,0.6,1.9c0,0.1,0,0.2,0,0.3c0,0.6,0.3,1,0.8,1.2
	c0.4,0.2,0.8,0.4,1.2,0.6c1.2,0.6,2.3,1.4,3.4,2.1c0.3,0.1,0.4,0.3,0.6,0.5c0.1,0.2,0.2,0.4,0.2,0.6c0,0.1,0,0.1,0,0.2
	c-0.1,0.3-0.4,0.4-0.6,0.3c-0.4-0.1-0.8-0.2-1.1-0.4c-0.3-0.2-0.7-0.3-1-0.4c-0.2,0-0.4,0-0.5,0c-0.5,0.1-0.7,0.6-0.6,1.1
	c0,0.1,0.1,0.2,0.1,0.3c0.2,0.5,0.3,1,0.4,1.5c0.2,1,0.6,2,1.2,2.8c1,1.4,2,2.8,3,4.3c1.2,1.8,1.9,3.9,1.9,6c0,0.6,0.1,1.2,0.2,2
	s0.2,1.5,0.2,2.3c0.1,0.7,0.3,1.4,0.7,2c0.7,1,1.5,1.9,2.3,2.9c0.5,0.5,0.9,1,1.4,1.5c0.2,0.2,0.4,0.3,0.6,0.4h0.1
	c0.1-0.1,0.1-0.1,0.1-0.2c0-0.2-0.2-0.4-0.3-0.5c-0.3-0.3-0.5-0.6-0.7-0.9v-0.1c-0.1-0.2,0-0.5,0.3-0.6c0.4-0.2,0.8-0.3,1.2-0.2
	c0.7,0.1,1.4,0.3,2,0.6l3.4,1.4c1,0.4,2,0.9,3,1.4c0.3,0.2,0.7,0.3,1.1,0.4c0.2,0.1,0.3,0.1,0.5,0.1s0.4,0,0.4-0.3s0-0.6,0-0.9V1
	c0-0.3,0-0.7,0-1H2.9z M96.7,73.9c0.4-0.6,1-1,1.6-1.3c0-0.1,0-0.1,0.1-0.1c0.4-0.1,0.7,0.1,0.8,0.5c0.1,0.2,0.1,0.3,0,0.5
	c-0.5,0.7-1.2,1.1-2,1.2c-0.3,0.1-0.5-0.1-0.5-0.2C96.6,74.3,96.6,74.1,96.7,73.9z M3.5,72.5L3.5,72.5c0,0-0.1,0.1-0.2,0.1
	c-0.3,0.2-0.6,0.3-1,0.3c-0.8,0-1.5-0.5-1.8-1.1l0,0l0,0c-0.2-0.3-0.2-0.6-0.2-1c0-0.8,0.5-1.5,1.2-1.9l0,0c0.1,0,0.2-0.1,0.3-0.1
	h0.1c0.1,0,0.2,0,0.3-0.1l0,0c0.1,0,0.1,0,0.2,0c1.2,0,2.1,0.9,2.1,2.1C4.4,71.5,4.1,72.1,3.5,72.5z M19.1,75.5
	c-0.1,0.8-0.8,1.4-1.6,1.3c-0.4,0-0.9-0.1-1.3-0.2l-4.3-1.3l-2.4-0.7c-0.2-0.1-0.5-0.2-0.7-0.2c-0.4-0.1-0.9,0.2-1,0.6
	c-0.1,0.2-0.2,0.4-0.2,0.6c0,0.1-0.1,0.3-0.1,0.4s-0.1,0.2-0.2,0.2s-0.2,0-0.2-0.1C7,76,7,75.9,7,75.9c-0.2-1.7-0.4-3.4-0.6-5.1
	c0-0.1,0-0.2,0-0.3c0-0.1,0-0.1,0-0.1c0-0.1,0.1-0.2,0.2-0.2s0.3,0.1,0.4,0.1l2,0.6l6,1.9c0.4,0.1,0.9,0.2,1.4,0.3
	c0.2,0.1,0.5,0,0.7-0.2c0.3-0.3,0.3-0.7,0-0.9c-0.2-0.3-0.5-0.6-0.8-0.9c-0.3-0.2-0.5-0.5-0.8-0.7c-0.1-0.1-0.2-0.2-0.2-0.3
	c-0.1-0.1,0-0.2,0.1-0.3c0.1-0.1,0.2-0.1,0.3,0c0.3,0.2,0.6,0.4,0.8,0.6c0.5,0.5,1,1,1.5,1.5c0.7,0.8,1.1,1.8,1.1,2.9
	C19.1,75.1,19.1,75.4,19.1,75.5z M28.5,82.2c-0.3,0.1-0.7,0.1-1-0.1c-0.6-0.3-1.1-0.7-1.4-1.3c-0.4-0.6-0.6-1.3-0.7-2.1
	c-0.1-0.9-0.1-1.9,0.1-2.8c0.1-0.1,0.1-0.2,0.1-0.3c0.1-0.4,0.4-0.6,0.8-0.6c0.5,0,0.9,0.5,0.8,1c0,0.2,0,0.5-0.1,0.7
	c-0.1,0.6,0,1.3,0.3,1.8c0.3,0.4,0.5,0.9,0.5,1.4c0.1,0.3,0.2,0.6,0.4,0.9s0.4,0.5,0.5,0.8v0.1C28.9,81.9,28.7,82.1,28.5,82.2z
	 M31.9,70.7c-0.8-0.3-1.7-0.4-2.5-0.2l-1.1,0.2c-0.1,0.1-0.3,0.1-0.5,0.1s-0.4-0.2-0.5-0.4c0-0.3,0-0.4,0.3-0.6
	c0.5-0.3,1-0.4,1.6-0.3c0.4,0,0.8-0.2,1.1-0.5l0.3-0.4c0.2-0.2,0.5-0.2,0.7-0.1c0.6,0.3,1,0.7,1.2,1.3c0.1,0.1,0.1,0.3,0.1,0.4
	C32.6,70.7,32.3,70.9,31.9,70.7z M29.5,67.7c0.2-0.2,0.4-0.3,0.6-0.2c0.2,0.1,0.3,0.3,0.3,0.5c0.1,0.2,0,0.4-0.2,0.5
	c0,0-0.1,0.1-0.2,0.1c0,0-0.1,0-0.2,0c-0.3-0.1-0.4-0.3-0.4-0.5C29.3,67.9,29.4,67.8,29.5,67.7z M34.8,70.7c-0.1,0.6-0.5,1.1-1,1.4
	c-0.1,0-0.2,0-0.3-0.1s-0.1-0.2,0-0.3c0.2-0.4,0.4-0.8,0.7-1.1c0.1-0.1,0.2-0.1,0.3-0.2c0,0,0,0,0.1,0
	C34.7,70.4,34.8,70.5,34.8,70.7L34.8,70.7z M46.8,67c-0.3,0-0.5-0.1-0.8-0.2c-0.4-0.2-0.7-0.4-1-0.7c-0.5-0.5-1.1-0.7-1.7-0.8
	c-0.3,0-0.6-0.2-0.7-0.4v-0.1c-0.1-0.1,0-0.3,0.2-0.3s0.5,0,0.8,0c0.8,0,1.6,0.2,2.5,0.6c0.3,0.1,0.6,0.3,0.9,0.6
	c0.1,0.1,0.2,0.2,0.3,0.4c0.1,0.1,0.1,0.1,0.1,0.2C47.4,66.6,47.2,67,46.8,67z M55.9,70.6c0.2-0.2,0.4-0.4,0.6-0.6
	c0.6-0.5,1.3-0.8,2.1-1c0.3-0.1,0.6-0.1,0.8,0c0.7,0,1.3-0.1,1.7-0.2l0.5-0.3c0.3-0.1,0.5-0.2,0.8-0.1c0.1,0,0.2,0,0.3,0.1
	c0.6,0.3,0.8,1,0.5,1.5c-0.1,0.4-0.5,0.7-0.9,0.8c-0.2,0-0.3,0-0.5-0.1c-0.1-0.1-0.3-0.3-0.5-0.4c-0.3-0.2-0.6-0.3-1-0.3h-0.7
	c-0.5,0-0.9,0.1-1.3,0.4c-0.4,0.2-0.8,0.5-1.3,0.8c-0.2,0.1-0.3,0.1-0.5,0.2s-0.5,0-0.6-0.2C55.8,71,55.8,70.8,55.9,70.6z
	 M57.4,77.2c0.1,0.1,0.3,0.1,0.4,0.2c0.5,0.2,1.1,0.3,1.6,0.1c0.2-0.1,0.5-0.1,0.8-0.2h0.1c0.1,0.1,0.1,0.2,0.1,0.3
	c-0.1,0.2-0.2,0.4-0.4,0.5c0,0-0.1,0.1-0.2,0.1c-1,0.3-2,0.7-3,1c-0.2,0.1-0.5,0.1-0.8,0.2c-0.1,0-0.3,0-0.5,0
	c-0.5-0.1-0.9-0.2-1.3,0l-0.8-0.2c-0.3-0.1-0.7,0-0.9,0.2c-0.6,0.5-1.5,0.8-2.3,0.7c-0.3,0-0.6,0-0.9-0.1c-0.6-0.1-1.1-0.5-1.3-1
	c-0.1-0.1-0.1-0.1-0.1-0.2c-0.1-0.3,0.2-0.6,0.5-0.7c0.5-0.1,0.9-0.1,1.4-0.2c0.2,0,0.3,0,0.5-0.1c0.4-0.2,0.9-0.2,1.3-0.1
	c0.5,0.1,1,0.1,1.5,0c0.2-0.1,0.3-0.1,0.5-0.2c0.2-0.2,0.5-0.2,0.8-0.2c0.4,0,0.8-0.1,1.2-0.2C56.2,76.9,56.8,76.9,57.4,77.2z
	 M49.9,50.3c0-0.1,0.2-0.2,0.3-0.2c0.2,0,0.4,0.1,0.4,0.3c0.1,0.1,0.1,0.3,0,0.4c-0.1,0.2-0.3,0.2-0.5,0.1c-0.1,0-0.1-0.1-0.2-0.2
	C49.8,50.6,49.8,50.4,49.9,50.3z M48.4,54.3c0.1-0.1,0.3-0.1,0.4-0.1c0.2,0,0.4,0.1,0.5,0.2c0.2,0.1,0.3,0.3,0.2,0.5
	c-0.1,0.1-0.2,0.3-0.4,0.3s-0.4,0-0.5-0.2c-0.1-0.1-0.2-0.2-0.2-0.3C48.3,54.6,48.3,54.4,48.4,54.3z M47.7,51.6
	c0.1,0.2,0.1,0.4-0.1,0.5c-0.5,0.2-0.9,0.2-1.2-0.3v-0.1c0-0.1,0.1-0.3,0.3-0.3h0.2C47.1,51.4,47.3,51.5,47.7,51.6L47.7,51.6z
	 M45.5,48.7c0.2-0.2,0.5-0.2,0.8-0.2c0.2,0,0.5,0,0.7,0.2c0.1,0,0.1,0,0.2,0.1c0.2,0.2,0.2,0.6,0,0.8c-0.1,0.1-0.1,0.2-0.2,0.2
	c-0.4,0.2-0.8,0.3-1.3,0.2c-0.2-0.1-0.5-0.2-0.5-0.5C45.1,49.2,45.2,48.9,45.5,48.7z M39.6,57.4c0.4,0,0.6-0.1,1.1-0.1
	s0.6-0.1,0.7-0.5c0.2-0.6,0.3-1.3,0.5-1.9c0-0.1,0.1-0.3,0.1-0.4c0.1-0.1,0.1-0.2,0.2-0.3c0.3-0.3,0.7-0.3,0.9,0
	c0.1,0.2,0.3,0.4,0.3,0.7c0,0.1-0.1,0.2-0.2,0.3c-0.1,0.1-0.2,0.2-0.3,0.3s-0.1,0.2,0,0.3c0.3,0.2,0.6,0.3,1,0.3
	c0.5,0,0.9,0,1.4-0.1c0.9-0.1,1.8-0.1,2.7,0c0.5,0.1,1,0,1.5-0.1c0.2,0,0.3-0.1,0.5-0.1c0.4,0,0.9,0.1,1.1,0.5
	c0.5,0.8,1.4,1.2,2.3,1.3l0.9,0.1c0.2,0,0.5,0,0.7,0.1c0.1,0,0.1,0.1,0.2,0.1c0.2,0.2,0.2,0.4,0.1,0.6c-0.1,0.1-0.2,0.2-0.3,0.3
	c-1.1,0.9-2.6,1.2-4,0.8c-0.4-0.1-0.7-0.2-1-0.4s-0.6-0.4-0.9-0.6c-0.9-0.7-2.1-0.9-3.3-0.6c-0.6,0.2-1.2,0.3-1.7,0.5
	c-0.2,0.1-0.5,0.2-0.7,0.2c-0.3,0.1-0.7,0.1-1,0c-0.6-0.2-1.2-0.2-1.7,0.1c-0.6,0.4-1,1-1.2,1.7c-0.1,0.7-0.1,1.4,0.1,2
	c0.3,0.9,0.7,1.8,1.3,2.6c0.1,0.1,0.2,0.3,0.3,0.5c0.1,0.3-0.1,0.6-0.4,0.5c-0.2-0.1-0.4-0.1-0.6-0.2c-0.7-0.3-1.4-0.7-2.1-1.1
	c-0.9-0.5-1.7-1.2-2.4-2.1c-0.3-0.3-0.7-0.7-1-1c-0.8-0.7-1.9-1-3-0.8c-0.2,0.1-0.4,0.2-0.5,0.3c-0.1,0-0.1,0.1-0.2,0.2
	c-0.2,0.3-0.1,0.7,0.2,0.9c0.3,0.3,0.6,0.5,0.9,0.7c0.2,0.2,0.3,0.4,0.3,0.7c0,0.2-0.2,0.4-0.4,0.4c-0.1,0-0.3,0-0.5,0h-1.7
	c-0.1,0-0.3,0-0.5,0c-0.4,0-0.7,0.3-0.7,0.6c-0.1,0.1-0.1,0.3-0.1,0.4c0,0.2-0.2,0.3-0.4,0.3c-0.2,0-0.3-0.2-0.3-0.4
	c0-0.1,0-0.3,0.1-0.4c0.4-0.8,0.7-1.6,0.9-2.4c0.1-0.2,0.2-0.4,0.3-0.5c0.7-0.9,1.5-1.6,2.5-2c0.4-0.2,0.7-0.3,1.1-0.3
	c0.8,0,1.6-0.3,2.3-0.7c0.4-0.2,0.8-0.4,1.2-0.6c0.9-0.5,1.8-0.8,2.8-0.7C39,57.4,39.6,57.4,39.6,57.4z M39.3,54.8
	c0.1,0.4,0,0.6-0.4,0.8c-0.7,0.4-1.7,0.3-2.3-0.3c-0.4-0.4-0.7-0.8-1-1.2c-0.4-0.7-0.8-1.5-1-2.3c-0.1-0.4,0-0.9,0.2-1.2l0.1-0.2
	c0.3-0.4,0.2-0.9-0.1-1.3c-0.1-0.1-0.2-0.2-0.3-0.4c-0.2-0.3-0.2-0.7,0-1c0.2-0.5,0.5-0.9,0.9-1.3c0.5-0.5,1-1,1.5-1.5l0.3-0.2
	c0.1-0.1,0.2-0.1,0.3-0.1c0.3,0,0.6,0.2,0.6,0.5s0,0.6,0,0.9c-0.1,0.9,0.1,1.7,0.5,2.6c0.1,0.2,0.2,0.4,0.3,0.7c0,0.1,0,0.2,0,0.3
	c-0.1,0.3-0.4,0.4-0.6,0.3c-0.1,0-0.3-0.1-0.5-0.2h-0.1c-0.3-0.1-0.5,0-0.6,0.3C37,50.2,37,50.4,37,50.6c0,0.7,0.3,1.4,0.8,2
	c0.3,0.3,0.7,0.7,1,1.1C39,54,39.2,54.4,39.3,54.8z M62.1,23.1c0.4-0.4,0.9-0.7,1.5-0.7c0.1,0,0.2,0,0.3,0c0.6,0,1.2-0.1,1.9-0.5
	c0.1-0.1,0.3-0.2,0.5-0.3c0.2-0.1,0.5-0.1,0.6,0.1c0.2,0.2,0.3,0.5,0.2,0.7c-0.1,0.2-0.2,0.3-0.4,0.3c-0.6,0.1-1.1,0.2-1.6,0.3
	c-0.6,0.1-1.1,0.3-1.5,0.7c-0.2,0.2-0.5,0.4-0.8,0.4c-0.3,0.1-0.6-0.1-0.7-0.3C61.9,23.6,61.9,23.3,62.1,23.1z M60.3,29.4
	c0.1-0.1,0.2-0.2,0.3-0.3c0.2-0.2,0.5-0.3,0.7-0.3c0.6,0,1.2-0.2,1.7-0.5c0.6-0.3,1.3-0.5,2-0.6c0.9-0.2,1.8-0.4,2.6-0.7
	c0.5-0.2,1-0.4,1.5-0.7s1.1-0.3,1.6,0c0.2,0.1,0.4,0.3,0.4,0.5c0,0.1,0,0.1,0,0.2c0,0.3-0.2,0.6-0.5,0.6c-0.3,0.1-0.5,0.2-0.7,0.4
	c-0.1,0.1-0.3,0.2-0.4,0.2c-0.4,0.2-0.8,0.3-1.3,0.3c-0.6,0-1.1,0.3-1.5,0.7c-0.1,0.1-0.3,0.2-0.4,0.3c-0.2,0.1-0.5,0.2-0.7,0.2
	c-0.2-0.1-0.4,0-0.6-0.1s-0.5-0.2-0.8-0.3c-0.4-0.2-0.9-0.2-1.2,0.1c-0.4,0.3-0.9,0.5-1.5,0.6c-0.3,0.1-0.5,0.1-0.8,0.1
	c0,0-0.1-0.1-0.2-0.1C60.3,29.9,60.2,29.6,60.3,29.4z M58.1,24.4c0.2,0.2,0.3,0.3,0.5,0.5c0.2,0.3,0.4,0.6,0.3,1
	c0,0.2-0.2,0.4-0.5,0.4c-0.7,0.1-1.3-0.4-1.4-1.1c0-0.1,0-0.3,0-0.4c0-0.2,0-0.3-0.1-0.5c-0.1-0.3-0.4-0.5-0.7-0.4
	c-0.1,0-0.2,0.1-0.3,0.1c-0.3,0.1-0.7,0.1-1,0c-0.6-0.1-1.1-0.1-1.7-0.1c-0.4-0.1-0.7,0.2-0.8,0.6c-0.2,0.9-0.8,1.5-1.6,1.9
	c-0.2,0.1-0.5,0.2-0.8,0.2c-0.2,0-0.3,0-0.4-0.2c-0.1-0.2-0.1-0.5,0.1-0.7c0.1-0.2,0.3-0.3,0.5-0.4s0.5-0.1,0.7-0.2
	c0.2,0,0.3,0,0.5-0.1l0.1-0.1c0.2-0.2,0.2-0.4,0.1-0.6c-0.1-0.1-0.1-0.2-0.2-0.3c-0.2-0.2-0.2-0.5,0-0.7c0.2-0.3,0.5-0.6,0.9-0.7
	c0.2-0.1,0.5-0.1,0.7-0.2c0.5-0.2,1-0.4,1.5-0.7c0.2-0.2,0.4-0.3,0.7-0.3H56c0.8,0,1.6-0.1,2.5,0c0.1-0.1,0.3-0.1,0.4,0
	c0.1,0.2,0.1,0.4,0,0.6c-0.1,0.1-0.2,0.2-0.3,0.3c-0.2,0.2-0.4,0.3-0.5,0.5C57.6,23.3,57.7,24,58.1,24.4z M92.3,30.8
	C92.2,31,92,31,91.8,31c-0.1-0.1-0.3-0.1-0.4-0.2c-0.2,0-0.2-0.2-0.2-0.3c0-0.2,0.1-0.3,0.3-0.3h0.1c0.2,0,0.4,0,0.7,0.2
	C92.4,30.5,92.4,30.7,92.3,30.8z"/>
</svg>
