<?xml version="1.0" encoding="utf-8"?>
<!-- Generator: Adobe Illustrator 24.3.0, SVG Export Plug-In . SVG Version: 6.00 Build 0)  -->
<svg version="1.1" id="Livello_1" xmlns="http://www.w3.org/2000/svg" xmlns:xlink="http://www.w3.org/1999/xlink" x="0px" y="0px"
	 viewBox="0 0 931.5 296.2" style="enable-background:new 0 0 931.5 296.2;" xml:space="preserve">
<style type="text/css">
	.st0{fill:#3A8DDE;stroke:#3A8DDE;stroke-width:0.88;stroke-miterlimit:10;}
	.st1{fill:#3A8DDE;stroke:#3A8DDE;stroke-width:0.95;stroke-miterlimit:10;}
	.st2{fill:#3A8DDE;stroke:#3A8DDE;stroke-width:0.28;stroke-miterlimit:10;}
	.st3{fill:#003DA6;}
</style>
<g id="Livello_2_1_">
	<g id="font">
		<path class="st0" d="M172.8,61.8c0,0,7.9-1.1,8.9-17.2s2.2-29.4,4.4-33.9s5.5-8.5,10.7-9.6c6.1-1.4,12.4-0.6,17.9,2.3
			c7,3.4,12.6,9,17.8,20.8s7.8,25.8,8.8,34.4s2.1,18.9,2.3,26.4s0.8,13.5,1.2,17s0.7,3.7,2,4.9s3.7,1.2,6.4,1.2s11.7-0.4,13.9-0.4
			s7.7,0.1,11.1,2.5c3.3,2.3,5.5,6,5.9,10c0.5,3.4-1.6,10.8-4,14.8c-2.8,4.6-5.9,9-9.2,13.3c-1.8,2.2-7,12.4-8.2,15.4
			s-3.4,7.9-1.2,16.5c1.4,5.8,4.2,11.1,8.2,15.6c1.4,1.4,16.7,13.9,21.6,17.5s16.9,12.7,20.1,15.6s8.1,6.8,10.4,11.5
			c1.7,3.1,2,6.7,0.8,10c-0.7,2-4.4,7.1-13.3,9.3c-7.5,1.8-23,1.8-28.1,1.4s-42.4-4.8-59-9.2c0,0,24.3,4.5,58.5,5.1
			c16.8,0.3,27.3-2.6,30.6-4.2s4.5-3.7,4.8-5.7s-1-5.6-4.4-8.6s-19.3-15.4-24.6-18.9s-19.1-14.1-22.1-16.8s-10.7-11.8-12.4-21.7
			s0.8-21.6,4.6-28.1c2.4-4.1,11.3-17.5,13.1-19.9s4.2-7,4.5-9.3s0-5.5-3.7-6.4s-6.7-0.7-10.4-0.3s-9.8,0.6-13.5-0.4
			c-3.8-0.9-7.1-3.3-9.3-6.6c-2-3.3-2.9-9.8-2.7-12.8s-1-18.9-1.1-25.8c-0.1-4.8-3-28.3-5.9-38S217.6,7.6,205.9,6
			c-8.2-1.1-11.5,0.7-14.1,3.1c0,0-3.4,2.7-4.5,9.8s-1.6,12.6-2.3,19.6s-1.9,20.4-10.5,23.1L172.8,61.8z"/>
		<path class="st1" d="M116.6,255.1c-30.4-12.6-50.3-42.3-50.3-75.3c0-45.1,36.8-81.6,82.3-81.6h1.9l-0.9,0.1
			c-42,4.1-74.9,40-74.9,83.7c-0.1,30,15.7,57.7,41.5,72.9L116.6,255.1z"/>
		<path class="st1" d="M150.5,98.3c44.6,1,80.4,37.2,80.4,81.6c0,45.1-36.9,81.6-82.3,81.6c-11,0-21.9-2.2-32-6.4l-0.3-0.1
			c12.5,7.3,26.8,11.2,41.3,11.2c45.8,0,82.9-37.7,82.9-84.1S203.4,98,157.6,98c-2.7,0-5.3,0.1-8,0.4L150.5,98.3z"/>
		<path class="st2" d="M140.2,59c0,0-7.2-2.6-16.1-22.7c0,0-6.3-15.9-15-16c-5.6,0-8.4,5-8.4,5s-6.7,10-17.3,37.5
			c-5,12.9-10.6,25.7-12.7,28.8s-4.4,7.6-10.9,1.3S47.7,76.8,36.2,76.4c-4.7-0.2-14.1,5-18.3,10.4s-7,10.2-10.2,19.2
			c-3.8,10.5,1.1,20.4,2.9,23c1.7,2.6,16.7,23.8,18.4,30.6s1.7,9.6,1.1,11.6s-1,5.6-7.9,6.8s-15.4,1.6-19.5,7.7s-2.3,15.4-1.6,19.5
			s4.2,20.6,16.9,38.4c5.1,7.2,14.9,10.8,24.5,1.9c1.8-1.7,4.1-4.2,5.6-4.3c1.8-0.1,3.7,2.2,4.8,3.6c2.3,3.1,9.5,11.9,20.9,32.3
			c2.6,4.6,12.6,21.4,21.3,18.4c9-3.1,9.6-15.3,9.7-19.2s-0.1-12.7-0.1-12.7l-2.1,15c0,0-1.2,7.3-4,10.7c-2.2,2.6-6.2,5.5-11,0.2
			c-5.6-6.2-10.3-15.5-12.6-20.2s-11.7-21.7-16-26.9s-10.3-12.1-18.9-4.1c-2.7,2.5-5.9,5.6-9.7,4.8s-7.5-5.6-9.3-8.4
			S8.7,212.3,8.7,195.4c0-2.4,0.8-7.2,7-7.7s11.1-1.4,14.4-2.9s7.8-4.6,9.3-13.8s-3.4-19.6-7.2-25.7s-12.5-19.7-14.1-22.5
			s-6-9.8,1.2-22.7c2.2-4,7.1-10.3,12.1-13.5c1.6-1.1,6.7-3.2,11.3,0.3s7.4,7.4,9.4,9.4s8.9,10.8,18.2,6.6
			c6.7-3,11.4-17.8,11.4-17.8s12-32.9,14.6-39.5s7.5-17.4,8.8-18.8s5.5-5.5,10.2,0.7c3.1,4.3,6,8.7,8.6,13.4
			C125.1,43,130.9,54.4,140.2,59z"/>
		<path class="st3" d="M84,185.6c0.4-4.2,1.7-8.3,3.7-12.1c2.2-4.3,5.3-8.2,9-11.4c4.2-3.6,9-6.4,14.1-8.4
			c6.1-2.3,12.6-3.5,19.2-3.4c8.3,0,14.3,1.8,18.2,5.3c3.9,3.5,5.5,8.7,4.9,15.4c-0.4,4.8-1.8,9.4-4.2,13.6
			c-2.4,4.3-5.6,8.1-9.4,11.3c-4.1,3.4-8.7,6-13.6,7.9c-5.5,2-11.2,3.1-17.1,3c-8.1,0-14.4-1.8-18.9-5.4
			C85.3,197.8,83.4,192.5,84,185.6z M125.6,156.9c-3,0-6.1,0.4-8.9,1.5c-2.5,0.9-4.8,2.3-6.8,4c-1.9,1.7-3.5,3.6-4.9,5.7
			c-1.3,2.1-2.5,4.3-3.4,6.7c-0.9,2.2-1.5,4.5-2,6.9c-0.4,2.1-0.7,4.3-0.8,6.4c-0.3,3.5,0.9,6.9,3.4,9.4c2.5,2.5,6,3.7,10.5,3.7
			c3.5,0,6.9-0.9,9.9-2.8c3-1.8,5.7-4.2,7.8-7c2.3-3,4-6.3,5.3-9.8c1.3-3.7,2.1-7.5,2.3-11.3c0.2-4.1-0.6-7.3-2.6-9.8
			C133.4,158.2,130.1,156.9,125.6,156.9L125.6,156.9z"/>
		<path class="st3" d="M173.8,190.5L162.6,226h30.6l-3.2,10.6h-43.6l9.4-30.6l5.1-15.8c1.9,0.4,3.8,0.6,5.7,0.7
			C169,190.9,171.4,190.8,173.8,190.5z"/>
		<path class="st3" d="M171.6,175.6c-2.1,0-4.1-0.4-6.1-1l4.2-13.4h13.2l-4.3,13.5C176.4,175.4,174,175.7,171.6,175.6z"/>
		<path class="st3" d="M206.4,139.3c-3.6-3.3-9.3-5.4-16.9-5.4l-10.1,0.2h-19.5l-6.3,20.5c3,4.2,4.4,10.4,3.9,16.2
			c-0.4,5.1-1.8,10.1-4.2,14.7c-2.3,4.6-5.5,8.8-9.4,12.2c-1.6,1.4-3.2,2.8-5,4l-2.2,7.1h12.9l7.6-24.6c4.1,1.6,8.4,2.4,12.8,2.3
			c5.4,0.1,10.7-0.9,15.7-2.8c4.6-1.7,8.8-4.2,12.6-7.3c3.5-2.9,6.5-6.4,8.7-10.4c2.2-3.9,3.5-8.1,3.9-12.5
			C211.5,147.3,210,142.6,206.4,139.3z M197.1,152.9c-0.2,3.6-0.9,7.1-2.1,10.4c-1.6,3.8-3.8,7.3-6.7,10.3
			c-4.1,3.9-9.4,6.2-15.1,6.4c-6.2,0.2-11.2-1.9-13.1-4.7l0.1-0.7l10.6-33.9h14.7c4.2,0,7.2,0.8,9.1,3.1S197.3,149.2,197.1,152.9
			L197.1,152.9z"/>
		<path class="st3" d="M299,168.1c0-16.5,10.1-27.4,26.9-27.4c16.3,0,27.1,12,27.1,27.4s-11,27.4-26.5,27.4
			c-15.1,0-26.3-10.8-27.4-24.6C299.1,170,299,169.1,299,168.1z M345.7,170.3c0-16.3-7.8-26.8-19.5-26.8c-12.6,0-20,7.6-20,20.4
			c0,18.5,7.4,28.6,21.5,28.6C339,192.5,345.7,183.7,345.7,170.3z"/>
		<path class="st3" d="M378.9,180.7c1.7,2.1,3.2,4.3,4.7,6.6c1.6,2.6,2.7,3.6,3.9,3.9c0.3,0.1,0.5,0.1,0.8,0.1
			c1.1,0,2.1-0.5,2.9-1.3c0.1-0.1,0.2-0.2,0.3-0.2c0.2,0,0.4,0.2,0.4,0.4c0,0,0,0,0,0v0.1c-0.3,2.1-2.8,3.6-5.1,3.6h-0.3
			c-4-0.2-5.8-2.4-7.6-5l-3-4.3c-0.4-0.6-1.4-2-2.9-4.1c-0.7-1.2-1.7-2.2-2.8-3.1c-0.7-0.5-2.2-0.5-4.2-0.5h-0.9v10.4
			c0,3.9,0.1,4.4,2.8,4.6l2.6,0.2c0.4,0,0.5,0.8,0.5,1.3v0.2c0,0.3-0.2,0.4-0.6,0.4s-0.6,0-1,0l-4.8-0.2c-1.7,0-5.2-0.1-5.4-0.1
			c-1.5,0.1-2.6,0.1-2.8,0.1c-0.5,0-0.6-0.3-0.6-0.7s0.3-1,0.6-1h1.5c2.2,0,2.3-0.7,2.3-2.4v-25.8c0-2.4-1.8-2.7-3.8-2.7h-0.3
			c-0.9,0-0.9-0.5-0.9-1v-0.1c0-0.5,0.2-0.8,1-0.8h2c0,0,2.1,0,3.6,0c1.7,0,3.3-0.2,5-0.4c1.1-0.1,2-0.1,3-0.1c7,0,12,3.7,12,8.9
			c0,4.1-2.1,7-7.9,8.6C375.8,177.5,377.4,179,378.9,180.7z M367.8,175.3c5.7,0,8.9-2.3,8.9-6.9c0-2.6-1.3-4.9-3.6-6.2
			c-1.6-1-2.9-1.4-6.4-1.4c-0.8,0-1.6,0.3-1.6,2v12.5H367.8z"/>
		<path class="st3" d="M392.6,160.6V160c0-0.3,0.1-0.7,1.2-0.7c1.7,0,3.7,0.2,5.7,0.3h0.5c1.4,0,2.8-0.2,5-0.2c5.5,0,8,0.5,11.1,1.8
			c6.9,2.9,11,8.5,11,15.1c0,9.3-8.4,17.3-19.2,17.3h-4.1c-2.5,0-3.6-0.2-4.2-0.2h-1.8c-1.4,0-2.8,0.1-4.3,0.3h-0.2
			c-0.6,0-0.7-0.3-0.8-0.7c0-0.2,0-0.3,0-0.4s0.1-0.4,0.7-0.5c0.9,0,1.9-0.2,2.8-0.6c1-0.9,1.5-2.2,1.4-3.5v-24.6
			c0-1.6-0.7-2.3-2.2-2.3l-2-0.1C392.6,161.1,392.6,160.9,392.6,160.6z M406.6,192.1c9.7,0,15.5-5.7,15.5-15.2s-6.7-15.8-16.6-15.8
			c-0.9,0-1.8,0.2-2.7,0.6c-1,0.5-1.1,1.6-1.1,7.4v17.4c0,1.2,0,2.3,0.2,3.5C402.1,191.1,403.9,192.1,406.6,192.1z"/>
		<path class="st3" d="M431.1,193.6c-0.5,0-1,0.1-1.5,0.2h-0.2c-0.4,0-0.6-0.1-0.6-0.6v-0.6c0-0.4,0.3-0.6,0.8-0.6
			c0.8-0.1,1.7-0.2,2.5-0.4c0.9-0.1,1.6-0.5,1.6-1.6v-27.1c0-0.6-0.2-1.2-0.5-1.6c-0.5-0.6-2.5-0.9-3.1-0.9s-0.6,0-0.6-0.6v-0.6
			c0-0.4,0.2-0.5,0.5-0.5s0.5,0,0.8,0c0.9,0,3.9,0.4,5.2,0.4s3.2-0.2,4-0.2c0.5,0,1.3-0.3,2.3-0.3c0.3,0,0.4,0.5,0.4,0.9
			c0,0.3,0,0.5-0.2,0.7c-0.6,0.2-1.3,0.3-1.9,0.3c-0.5,0.1-1.6,0.4-2,1c-0.2,0.5-0.3,1-0.2,1.5v27.9c0,0.9,0.6,0.9,2.1,1
			c0.5,0.1,1.1,0.2,1.6,0.3c0.4,0.1,0.5,0.4,0.5,0.8v0.3c0,0.4-0.1,0.8-0.5,0.8h-0.2c-0.4,0-1-0.3-1.7-0.4c-1.5-0.1-3-0.2-4.5-0.2
			C434.5,193.4,432.5,193.5,431.1,193.6z"/>
		<path class="st3" d="M454.7,168.1c0,0-0.7,8.5-0.8,11.8c0,2.4-0.2,5.6-0.2,6.3c0,2.5,0.6,4.2,1.5,5.2c0.5,0.5,2,0.8,3.5,1.1
			l0.4,0.1c0.6,0.1,0.7,0.3,0.7,0.9c0,0.3-0.3,0.9-0.6,0.9c-2.2-0.2-5.9-0.6-6.8-0.6c-1.8,0-3.7,0.2-5.5,0.5h-0.2
			c-0.7,0-0.9-0.7-0.9-1.1c0-0.1,0-0.3,0-0.4c1.1-0.4,2.2-0.7,3.4-1c1.3-0.6,1.9-2.8,2.3-11.7l0.7-14.8c-0.8-1.2-2.6-3.5-4.7-4
			c-1.3-0.4-2-0.3-2.5-0.5c-0.2-0.1-0.3-0.3-0.3-0.6c0-0.1,0-0.2,0-0.4c0-0.5,0-0.6,0.3-0.6h8.2l8.5,10.1
			c3.5,4.2,12.1,14.3,14.4,16.3c0.3,0.2,0.5,0.5,0.7,0.5s0.2-0.1,0.2-0.4c0-0.1,0-0.2-0.1-0.4v-20.7c0-0.9-0.2-1.8-0.6-2.6
			c-0.8-0.8-1.9-1.2-3-1.3c-1.3-0.1-1.4-0.2-1.4-0.9c0-0.8,0.3-0.9,1-0.9c4,0.2,4,0.3,5,0.3h0.4c1,0,3.2-0.4,4.6-0.4
			c0.4-0.1,0.7,0,1.1,0.2c0.3,0.1,0.3,0.3,0.3,0.5v0.2c0,0.6-0.3,0.7-0.9,0.7c-0.8,0.1-1.6,0.3-2.3,0.7c-1.4,0.8-1.4,1.2-1.4,3v29.5
			c0,0.7-0.4,1.3-1,1.3c-0.5-0.1-0.9-0.3-1.2-0.6l-5.4-6L454.7,168.1z"/>
		<path class="st3" d="M495.7,172.8h6c1.6,0,2.5-0.1,3.3-0.1c0.9,0,1.2-0.9,1.2-1.4c0-1,0.1-2.3,0.1-2.3c0-0.8,0.3-0.9,0.9-0.9
			c0.8,0,1.1,0.1,1.1,0.7c0,1.5-0.2,1.6-0.2,4.6v2.4c0,0.8,0.2,3,0.2,4.1c0,0.6-0.6,0.7-1.2,0.7s-0.8-0.7-0.8-2.2c0-1.1,0-2.1,0-2.4
			c0-0.8-0.7-0.8-1.4-0.8h-9.1v13c0,0.9,0.1,1.9,0.5,2.8c0,0,2.7,0.3,5.6,0.3c2.2,0.1,4.4-0.1,6.5-0.6c0.9-0.4,1.6-1.4,2.3-2.7
			l0.2-0.4c0.1-0.1,0.2-0.3,0.2-0.3c1-1.6,1.4-2.3,1.9-2.3h0.2c0.3,0,0.5,0.1,0.5,0.5c0,0.1,0,0.2,0,0.3l-1.7,6.9
			c-0.2,0.9-0.5,1.1-1.2,1.1h-23.5c-0.7,0-1,0-1-0.4c0-0.8,0.1-1,0.6-1.1l0.7-0.1c0.8-0.1,1.7-0.2,2.5-0.4c0.9-0.3,1.3-1.8,1.3-4.9
			v-22.9c0-0.7-0.1-1.4-0.3-2c-0.4-0.7-1.2-1.1-2-1.1h-2.3c-0.5,0-0.8-0.3-0.8-0.9v-0.1c0-0.5,0.4-0.7,0.7-0.7h22.8
			c0.7,0,1.4,0.2,1.5,1.1c0.3,2.2,0.8,6.4,0.8,6.7c0,0.5-0.2,0.8-0.6,0.8s-0.5-0.4-1.2-1.5l-2-3.5c-0.5-0.8-1.2-1-2.8-1H497
			c-1.2,0-1.3,0.1-1.3,0.7L495.7,172.8z"/>
		<path class="st3" d="M525.9,168.4V168c0-0.3,0.1-0.5,0.9-0.5c1.3,0,2.8,0.2,4.3,0.2h0.3c1,0,2.1-0.2,3.8-0.2c4.1,0,6,0.4,8.4,1.4
			c5.2,2.2,8.3,6.5,8.3,11.4c0,7.1-6.4,13.1-14.5,13.1h-3c-1.8,0-2.7-0.1-3.2-0.1h-1.4c-1.1,0-2.1,0.1-3.2,0.2h-0.2
			c-0.5,0-0.5-0.2-0.6-0.5c0-0.1,0-0.2,0-0.3s0.1-0.3,0.5-0.4c0.7,0,1.4-0.2,2.1-0.4c0.8-0.6,1.2-1.6,1.1-2.6v-18.6
			c0-1.2-0.5-1.7-1.6-1.8l-1.5-0.1C525.9,168.8,525.9,168.7,525.9,168.4z M536.4,192.2c7.3,0,11.7-4.3,11.7-11.5s-5.1-12-12.6-12
			c-0.7,0-1.4,0.1-2,0.4c-0.7,0.4-0.9,1.2-0.9,5.6v13.2c0,0.9,0,1.8,0.1,2.6C533.1,191.5,534.4,192.2,536.4,192.2z"/>
		<path class="st3" d="M560.1,177.6h4.5c1.2,0,1.9-0.1,2.5-0.1s0.9-0.7,0.9-1.1c0-0.7,0.1-1.7,0.1-1.7c0-0.6,0.3-0.7,0.7-0.7
			c0.6,0,0.8,0.1,0.8,0.5c0,1.1-0.1,1.2-0.1,3.5v1.9c0,0.6,0.2,2.3,0.2,3.1c0,0.4-0.5,0.5-0.9,0.5c-0.5,0-0.6-0.5-0.6-1.7
			c0-0.9,0-1.6,0-1.9c0-0.6-0.5-0.6-1.1-0.6h-6.9v9.8c0,0.7,0.1,1.4,0.4,2.1c0,0,2,0.2,4.2,0.2c1.7,0,3.3-0.1,5-0.4
			c0.7-0.3,1.2-1.1,1.8-2l0.2-0.3c0.1-0.1,0.1-0.2,0.1-0.3c0.8-1.2,1.1-1.7,1.4-1.7h0.2c0.2,0,0.3,0.1,0.4,0.3c0,0,0,0,0,0.1
			c0,0.1,0,0.2,0,0.2l-1.3,5.2c-0.2,0.7-0.4,0.8-0.9,0.8h-17.8c-0.5,0-0.8,0-0.8-0.3c0-0.6,0.1-0.8,0.5-0.8l0.5-0.1
			c0.6,0,1.3-0.2,1.9-0.3c0.7-0.3,1-1.4,1-3.7v-17.4c0-0.5,0-1-0.2-1.5c-0.3-0.5-0.9-0.8-1.5-0.9h-1.7c-0.3,0-0.6-0.2-0.6-0.7v-0.1
			c0-0.4,0.3-0.5,0.5-0.5h17.3c0.5,0,1,0.2,1.2,0.9c0.2,1.6,0.6,4.8,0.6,5s-0.1,0.6-0.4,0.6s-0.4-0.3-0.9-1.1l-1.5-2.6
			c-0.4-0.6-0.9-0.7-2.1-0.7h-6.3c-0.9,0-1,0.1-1,0.5L560.1,177.6z"/>
		<path class="st3" d="M598,181.6c1,0,4-0.1,4-0.1c0.5,0,0.5,0.4,0.5,0.8s-0.7,0.6-1.2,0.7c-1.2,0.2-1.5,0.6-1.5,1.2v6.4
			c0,0.7,0,1.2-0.4,1.2l0,0c-0.5,0-1-1.2-1.3-1.2H598c-0.4,0.2-0.4,0.3-1,0.8c-2.1,1.6-4.7,2.5-7.3,2.5c-9,0-13.8-5.9-13.8-13.9
			c0-8.2,5.1-14,12.9-14c2,0,6.3,0.6,9.1,3.5h0.1c0.4,0,0.5-1.4,0.9-2.2c0.2-0.3,0.4-0.4,0.7-0.4c0.3,0,0.6,0.4,0.6,0.8v0.1
			c0,0.6-0.1,2.1-0.1,2.9v4.5c0,0.6,0,1.2-0.2,1.2c-0.2,0-0.4,0.1-0.6,0.1c-0.3,0-0.5-0.1-0.5-0.3c-0.1-0.6-0.2-1.1-0.4-1.7
			c-1-2.5-2.8-4.6-5.1-6c-1.4-0.9-3-1.3-4.7-1.4c-5.4,0-8.6,4.7-8.7,12.4v0.2c0,7.8,4.1,12.6,9.7,12.6h0.7c3.2,0,6.1-2.6,6.1-3.6
			v-4.6c0-0.6-0.4-0.9-1.1-0.9h-2.6c-0.5,0-0.5-0.2-0.5-0.6V182c0-0.3,0.1-0.5,0.6-0.5L598,181.6z"/>
		<path class="st3" d="M622.6,187.4c0.4-0.6,0.5-0.7,0.7-0.7c0.3,0,0.5,0.2,0.6,0.5v0.1c-0.2,0.9-1,3.7-1.3,5.2
			c-0.2,0.8-0.6,0.9-1.4,1h-17.3c-0.4,0-0.5-0.5-0.5-0.8c0-0.3,0.2-0.5,0.4-0.5c0,0,0,0,0,0c1.6,0,3.1-0.6,3.1-1.5V170
			c0-0.5-0.6-1-1.7-1.1c-0.5,0-1.3-0.2-1.7-0.2c-0.2,0-0.3-0.2-0.3-0.4v-0.4c0-0.2,0.1-0.5,0.4-0.5h0.4c0.9,0,2.1,0.2,3.7,0.2h0.8
			c2.9,0,5.1-0.3,5.5-0.3s0.4,0.2,0.4,0.5s-0.1,0.6-0.4,0.7c-1.2,0.2-2.3,0.5-3.5,0.9c-0.4,0.1-0.4,0.5-0.4,1.2v19.1
			c0,1.7,0.5,1.7,2.7,1.7h7.7L622.6,187.4z"/>
		<path class="st3" d="M627.6,193.4c-0.4,0-0.8,0.1-1.1,0.2h-0.1c-0.3,0-0.4-0.1-0.5-0.4v-0.5c0-0.3,0.2-0.4,0.6-0.5
			c0.6-0.1,1.3-0.1,1.9-0.3c0.7-0.1,1.2-0.4,1.2-1.2v-20.5c0-0.4-0.1-0.9-0.4-1.2c-0.7-0.4-1.5-0.7-2.4-0.7c-0.4-0.1-0.5,0-0.5-0.5
			v-0.5c0-0.3,0.2-0.4,0.4-0.4s0.4,0,0.6,0c0.7,0,2.9,0.3,4,0.3s2.4-0.2,3-0.2c0.3,0,1-0.2,1.7-0.2c0.2,0,0.3,0.4,0.3,0.7
			c0,0.2,0,0.4-0.1,0.5c-0.5,0.1-1,0.2-1.5,0.2c-0.3,0.1-1.2,0.3-1.5,0.7c-0.1,0.3-0.2,0.7-0.2,1.1v21c0,0.7,0.5,0.6,1.6,0.8
			c0.4,0.1,0.8,0.2,1.2,0.3c0.3,0.1,0.3,0.3,0.3,0.6v0.2c0,0.4,0,0.6-0.4,0.6h-0.2c-0.3,0-0.8-0.2-1.3-0.3c-1.3-0.1-2.1-0.1-3.4-0.1
			C630.1,193.2,628.6,193.3,627.6,193.4z"/>
		<path class="st3" d="M659.8,186.9c0.1,1,0.3,2.1,0.8,3c0.8,1,1.6,1,3.3,1.2s2.5,0.3,3.6,0.5c0.3,0,0.6,0.3,0.6,0.7c0,0,0,0,0,0
			c0,0.3-0.1,0.6-0.2,0.8c-0.2,0.5,0,0.8-0.6,0.8H667c-3.2-0.4-6.3-0.5-9.5-0.5h-2.7c-3.7,0-5.5,0.3-8,0.4c-0.3,0-0.5-0.2-0.6-0.4
			V192c0-0.4,0.7-0.5,2-0.6c3.7-0.3,5.5-1.2,5.5-3.6v-36.5c0-5.5-0.2-4.9-0.7-5.5c-0.7-0.8-2.7-0.8-5.2-0.8c-1,0-1.2-1.2-1.2-1.6
			v-0.2c0-0.6,1-0.7,1.6-0.7s3.1-0.1,5.8-0.1h3.2c1,0,5.5-0.4,6.3-0.4h4.8c9.8,0,16.9,5.8,17.3,12.9c0.1,0.7,0.1,1.4,0.1,2.2
			c-0.2,8.9-8.5,12.9-21.2,12.9h-4.7V186.9z M661.8,168.2c10.1,0,17.3-2.4,17.3-9.2c0-0.4,0-0.9-0.1-1.3l-0.1-0.6
			c-0.2-6.5-4.8-12.6-13.7-12.6H660v23.7H661.8z"/>
		<path class="st3" d="M688.6,190.2c-0.1,0.1-0.3,0.2-0.5,0.2c-0.3,0-0.6-0.3-0.6-0.6c0,0,0,0,0,0l1.2-7.4c0.1-1,0.2-1.7,0.8-1.7
			c0.1,0,0.2,0,0.3,0.1c0.5,0.1,0.5,0.4,0.5,1.3c0,0,0,1.2,0,1.5c0,1.9,0.7,3.8,1.9,5.3c0.9,1.3,3.9,3.3,6.1,3.3
			c4.1,0,7.5-3.1,7.5-7.9c0-3.2-2.7-5.5-6.3-6.6l-2.3-0.8c-7.3-2.3-9.7-4.8-9.7-9.8c-0.2-4.6,3.4-8.5,8-8.6c0.2,0,0.4,0,0.7,0
			c2.4,0.1,4.8,0.8,6.8,2.1c0.1,0.1,0.2,0.1,0.4,0.1c0.4,0,0.7-0.4,0.9-0.9s0.3-1,0.5-1l0.3-0.1c0.4,0,0.7,0.2,0.7,0.6c0,0,0,0,0,0
			v0.1c-0.1,0.8-0.4,3.2-0.4,4c0,1.6,0.1,3.1,0.4,4.6v0c0,0.4-0.6,0.6-1,0.6h-0.2c-0.3-0.1-0.6-0.8-0.8-1.6
			c-0.9-3.4-4.5-6.9-7.9-6.9c-2.8,0-4.8,2.3-4.8,5.5s1.5,4.6,6.1,5.9c8.6,2.5,12.3,5.3,12.3,11c0,6.9-4.8,11.5-11.3,11.5
			c-2.5,0.1-4.9-0.7-6.8-2.2l-2.3-2.1L688.6,190.2z"/>
		<path class="st3" d="M714.8,193.3c-0.5,0-1,0.1-1.5,0.2h-0.2c-0.4,0-0.6-0.1-0.6-0.6l-0.1-0.6c0-0.4,0.3-0.6,0.8-0.6
			c0.8-0.1,1.7-0.2,2.5-0.4c0.9-0.1,1.6-0.5,1.6-1.6v-27.1c0-0.6-0.2-1.2-0.5-1.6c-0.5-0.6-2.5-0.9-3.1-0.9c-0.5-0.1-0.6,0-0.6-0.6
			V159c0-0.4,0.2-0.5,0.5-0.5s0.5,0,0.8,0c0.9,0,3.9,0.4,5.2,0.4s3.2-0.2,4-0.2c0.5,0,1.3-0.3,2.3-0.3c0.3,0,0.4,0.5,0.4,0.9
			c0,0.2,0,0.5-0.2,0.7c-0.6,0.2-1.3,0.3-2,0.3c-0.5,0.1-1.6,0.4-2,1c-0.2,0.5-0.3,1-0.2,1.5v27.8c0,0.9,0.6,0.9,2.1,1
			c0.5,0.1,1.1,0.2,1.6,0.4c0.4,0.1,0.5,0.4,0.5,0.8v0.3c0,0.5,0,0.8-0.5,0.8h-0.2c-0.4-0.1-1-0.3-1.7-0.4c-1.7-0.1-2.8-0.2-4.5-0.2
			C718.1,193.2,716.1,193.2,714.8,193.3z"/>
		<path class="st3" d="M750.1,192.4c5.9-0.2,10.4-5.3,11.5-10.5c0.2-0.6,0.5-0.9,0.8-0.9h0.1l0.7,0.1c0.2,0.1,0.4,0.1,0.4,0.5
			c0,0.3-0.1,0.7-0.2,1l-1.3,7.8c0,0.3-0.1,0.7-0.3,1c-0.3,0.4-0.3,0.4-0.5,0.4s-0.4,0-0.5-0.2l-1-1.3c-0.6,0.6-1.3,1.1-2,1.6
			c-3.1,1.6-6.6,2.5-10.1,2.5c-11.5,0-18.5-6.8-18.5-17.7s6.8-18.9,17.3-18.9c3.8,0,7.6,1,10.8,3.1c0.4,0.3,0.8,0.5,1.3,0.7
			c0.1,0,0.3-0.5,0.3-1.1v-1.2c0-0.4,0.1-0.8,0.4-0.8s1.2-0.1,1.5-0.1s0.4,0.1,0.4,0.3c0.2,1.9,0.5,7.9,0.5,9.9
			c0,0.6,0.1,1.3,0.1,1.9s0,1.1-0.3,1.2c-0.3,0.1-0.7,0.2-1.1,0.2c-0.3,0-0.5-0.3-0.6-0.6c-1-6.5-6.5-11.4-13.1-11.6
			c-8,0-12.5,6.4-12.5,17.3c0,9.4,5.2,15.6,13.1,15.6L750.1,192.4z"/>
		<path class="st3" d="M765.2,176c0-11.3,6.9-18.7,18.4-18.7c11.1,0,18.5,8.2,18.5,18.8s-7.5,18.7-18.1,18.7
			c-10.3,0-18-7.4-18.8-16.8C765.2,177.3,765.2,176.7,765.2,176z M797.1,177.5c0-11.1-5.3-18.3-13.3-18.3c-8.6,0-13.6,5.2-13.6,14
			c0,12.7,5.1,19.5,14.7,19.5C792.5,192.6,797.1,186.6,797.1,177.5L797.1,177.5z"/>
		<path class="st3" d="M829.4,185.5c0.5-0.8,0.6-1,0.9-1c0.4,0,0.7,0.2,0.8,0.6v0.2c-0.3,1.1-1.3,4.9-1.7,6.9
			c-0.2,1-0.8,1.2-1.8,1.3h-22.9c-0.6,0-0.7-0.7-0.7-1c0-0.4,0.2-0.7,0.6-0.7c0,0,0,0,0,0c2.2,0,4-0.8,4-2v-27.2
			c0-0.7-0.8-1.3-2.3-1.5c-0.7-0.1-1.7-0.3-2.3-0.3c-0.2-0.1-0.4-0.3-0.3-0.5l0-0.6c0-0.3,0.2-0.6,0.5-0.6h0.6
			c1.1,0,2.8,0.3,4.8,0.3h1.1c3.8,0,6.8-0.4,7.3-0.4s0.6,0.3,0.6,0.7s-0.2,0.8-0.6,0.9c-1.6,0.3-3.1,0.7-4.6,1.2
			c-0.6,0.2-0.6,0.6-0.6,1.5v25.2c0,2.3,0.6,2.3,3.5,2.3h10.2L829.4,185.5z"/>
		<path class="st3" d="M832.7,176c0-11.3,6.9-18.7,18.4-18.7c11.1,0,18.5,8.2,18.5,18.8s-7.5,18.7-18.1,18.7
			c-10.3,0-18-7.4-18.8-16.8C832.7,177.3,832.6,176.7,832.7,176z M864.5,177.5c0-11.1-5.3-18.3-13.3-18.3c-8.6,0-13.6,5.2-13.6,14
			c0,12.7,5.1,19.5,14.7,19.5C860,192.6,864.5,186.6,864.5,177.5L864.5,177.5z"/>
		<path class="st3" d="M901.8,177.8c1.3,0,5.3-0.2,5.3-0.2c0.6,0,0.6,0.5,0.6,1s-0.9,0.8-1.5,0.9c-1.5,0.3-2,0.8-2,1.6v8.5
			c0,0.9,0,1.5-0.5,1.5h0c-0.6,0-1.3-1.5-1.7-1.5h-0.1c-0.5,0.3-0.5,0.4-1.3,1.1c-2.8,2.1-6.2,3.2-9.7,3.3
			c-11.9,0-18.3-7.8-18.3-18.4c0-10.8,6.8-18.4,17-18.4c2.7,0,8.3,0.8,12,4.6h0.1c0.5,0,0.6-1.8,1.1-2.9c0.2-0.3,0.6-0.5,1-0.5
			c0.5,0.1,0.8,0.5,0.8,1v0.1c0,0.8-0.2,2.8-0.2,3.9v6c0,0.8-0.1,1.5-0.3,1.6c-0.3,0.1-0.5,0.1-0.8,0.1c-0.4,0-0.7-0.1-0.7-0.4
			c-0.1-0.8-0.3-1.5-0.5-2.2c-1.3-3.3-3.7-6.1-6.8-7.9c-1.9-1.1-4-1.8-6.2-1.8c-7.2,0-11.4,6.2-11.5,16.4v0.3
			c0,10.3,5.4,16.6,12.8,16.6h0.9c4.2,0,8.1-3.4,8.1-4.8v-6.1c0-0.8-0.5-1.2-1.5-1.2h-3.5c-0.6,0-0.6-0.3-0.6-0.7v-0.9
			c0-0.4,0.2-0.6,0.8-0.6L901.8,177.8z"/>
		<path class="st3" d="M911.1,193.3c-0.5,0-1,0.1-1.5,0.2h-0.2c-0.4,0-0.6-0.1-0.6-0.6l0-0.6c0-0.4,0.3-0.6,0.8-0.6
			c0.8-0.1,1.7-0.2,2.5-0.4c0.9-0.1,1.6-0.5,1.6-1.6v-27.1c0-0.6-0.2-1.2-0.5-1.6c-0.5-0.6-2.5-0.9-3.1-0.9s-0.6,0-0.6-0.6V159
			c0-0.4,0.2-0.5,0.5-0.5s0.5,0,0.8,0c0.9,0,3.9,0.4,5.2,0.4s3.2-0.2,4-0.2c0.5,0,1.3-0.3,2.3-0.3c0.3,0,0.3,0.5,0.3,0.9
			c0,0.2,0,0.5-0.2,0.7c-0.6,0.2-1.3,0.3-1.9,0.3c-0.5,0.1-1.6,0.4-2,1c-0.2,0.5-0.3,1-0.2,1.5v27.8c0,0.9,0.6,0.9,2.2,1
			c0.5,0.1,1.1,0.2,1.6,0.4c0.4,0.1,0.5,0.4,0.5,0.8v0.3c0,0.5,0,0.8-0.5,0.8h-0.2c-0.4-0.1-1-0.3-1.7-0.4c-1.7-0.1-2.8-0.2-4.5-0.2
			C914.4,193.2,912.5,193.2,911.1,193.3z"/>
		<path class="st3" d="M352.8,226.9v-0.4c0-0.3,0.1-0.5,0.9-0.5c1.3,0,2.8,0.1,4.3,0.2h0.3c1,0,2.1-0.1,3.8-0.1c4.1,0,6,0.4,8.4,1.4
			c5.2,2.2,8.4,6.4,8.4,11.4c0,7.1-6.4,13.1-14.5,13.1h-3.1c-1.9,0-2.7-0.1-3.2-0.1h-1.4c-1.1,0-2.1,0.1-3.2,0.2h-0.1
			c-0.5,0-0.5-0.2-0.6-0.5c0-0.1,0-0.2,0-0.3s0.1-0.3,0.5-0.4c0.7,0,1.4-0.2,2.1-0.4c0.8-0.7,1.2-1.6,1.1-2.6v-18.6
			c0-1.2-0.5-1.7-1.6-1.8l-1.5-0.1C352.9,227.3,352.8,227.2,352.8,226.9z M363.4,250.8c7.3,0,11.7-4.3,11.7-11.5s-5.1-12-12.6-12
			c-0.7,0-1.4,0.1-2,0.4c-0.7,0.4-0.9,1.2-0.9,5.6v13.2c0,0.9,0,1.8,0.1,2.6C360,249.9,361.4,250.7,363.4,250.8L363.4,250.8z"/>
		<path class="st3" d="M387,236.1h4.5c1.2,0,1.9-0.1,2.5-0.1s0.9-0.7,0.9-1.1c0-0.7,0.1-1.7,0.1-1.7c0-0.6,0.3-0.6,0.7-0.6
			c0.6,0,0.8,0.1,0.8,0.5c0,1.1-0.1,1.2-0.1,3.5v1.9c0,0.6,0.1,2.3,0.1,3.1c0,0.4-0.5,0.5-0.9,0.5s-0.6-0.5-0.6-1.7
			c0-0.9,0-1.6,0-1.9c0-0.6-0.5-0.6-1.1-0.6H387v9.8c0,0.7,0.1,1.4,0.4,2.1c0,0,2,0.2,4.2,0.2c1.7,0,3.3-0.1,5-0.4
			c0.7-0.3,1.2-1.1,1.8-2.1l0.2-0.3c0.1-0.1,0.1-0.2,0.1-0.3c0.8-1.2,1.1-1.7,1.4-1.7h0.2c0.2,0,0.4,0.1,0.4,0.4c0,0.1,0,0.2,0,0.2
			l-1.3,5.2c-0.1,0.7-0.4,0.8-0.9,0.8h-17.8c-0.5,0-0.8,0-0.8-0.3c0-0.6,0.1-0.8,0.5-0.8l0.5-0.1c0.6-0.1,1.3-0.2,1.9-0.3
			c0.7-0.3,1-1.4,1-3.7v-17.3c0-0.5,0-1-0.2-1.5c-0.3-0.5-0.9-0.9-1.5-0.9h-1.7c-0.4,0-0.6-0.2-0.6-0.7v-0.1c0-0.4,0.3-0.5,0.5-0.5
			h17.3c0.5,0,1,0.1,1.2,0.9c0.2,1.6,0.6,4.8,0.6,5c0,0.4-0.1,0.6-0.4,0.6s-0.4-0.3-0.9-1.1l-1.5-2.6c-0.4-0.6-0.9-0.7-2.1-0.7H388
			c-0.9,0-1,0.1-1,0.5V236.1z"/>
		<path class="st3" d="M422.1,245.9c0.4-0.6,0.5-0.7,0.7-0.7c0.3,0,0.5,0.2,0.6,0.5v0.1c-0.2,0.9-1,3.7-1.3,5.2
			c-0.1,0.8-0.6,0.9-1.4,1h-17.3c-0.4,0-0.5-0.5-0.5-0.8c0-0.3,0.2-0.5,0.4-0.5c0,0,0,0,0,0c1.6,0,3-0.6,3-1.6v-20.6
			c0-0.5-0.6-1-1.7-1.1c-0.5,0-1.3-0.2-1.7-0.2c-0.2,0-0.3-0.2-0.3-0.4v-0.4c0-0.2,0.1-0.4,0.4-0.5c0,0,0,0,0,0h0.4
			c0.9,0,2.1,0.2,3.7,0.2h0.8c2.9,0,5.1-0.3,5.5-0.3s0.4,0.2,0.4,0.5c0,0.3-0.1,0.6-0.4,0.7c-1.2,0.2-2.3,0.5-3.5,0.9
			c-0.4,0.2-0.4,0.5-0.4,1.2v19.1c0,1.7,0.5,1.7,2.7,1.7h7.7L422.1,245.9z"/>
		<path class="st3" d="M445,245.9c0.4-0.6,0.5-0.7,0.7-0.7c0.3,0,0.5,0.2,0.6,0.5v0.1c-0.2,0.9-1,3.7-1.3,5.2
			c-0.2,0.8-0.6,0.9-1.4,1h-17.3c-0.4,0-0.5-0.5-0.5-0.8c0-0.3,0.2-0.5,0.4-0.5c0,0,0,0,0,0c1.6,0,3.1-0.6,3.1-1.6v-20.6
			c0-0.5-0.6-1-1.7-1.1c-0.5,0-1.3-0.2-1.7-0.2c-0.2,0-0.3-0.2-0.3-0.4v-0.4c0-0.2,0.1-0.4,0.4-0.5c0,0,0,0,0,0h0.4
			c0.9,0,2.1,0.2,3.7,0.2h0.8c2.9,0,5.1-0.3,5.5-0.3s0.4,0.2,0.4,0.5s-0.1,0.6-0.4,0.7c-1.2,0.2-2.3,0.5-3.5,0.9
			c-0.4,0.2-0.4,0.5-0.4,1.2v19.1c0,1.7,0.5,1.7,2.7,1.7h7.7L445,245.9z"/>
		<path class="st3" d="M457.3,240.6l-0.7,1.4c-1.5,3-2.6,6.3-2.6,7.4v0.1c0,0.8,0.6,1.4,2.8,1.6c0.3,0,0.4,0.2,0.4,0.4
			c0,0.1,0,0.2-0.1,0.3c-0.1,0.3-0.1,0.6-0.5,0.6s-2.4-0.4-4.8-0.4c-1.2,0-2.4,0.1-3.3,0.1h-0.6c-0.2,0-0.3-0.2-0.3-0.6
			c0-0.5,0.3-0.6,0.6-0.6c1.4-0.1,2.5-1,3.8-3.3c0.7-1.3,1.5-3.1,2.4-5.1c0.4-0.8,6.3-12.4,7.1-13.8c1-1.9,1.9-3.5,2.3-3.5
			s0.5,0.2,1,1c1.5,2.7,4.7,9.9,9.2,22c0.9,2.3,1.2,2.4,3.3,2.7c0.4,0.1,0.6,0.2,0.6,0.5v0.4c0,0.2-0.1,0.4-0.5,0.4
			c-1.1,0-3-0.3-4.4-0.3c-1.9,0-4.5,0.3-5.1,0.4l0,0c-0.4,0-0.4-0.6-0.4-1s0.9-0.4,1.6-0.5s1.5-0.6,1.5-1.2
			c-0.1-0.6-0.2-1.2-0.5-1.8l-2.8-7.2L457.3,240.6z M466.3,238.5c0,0-0.5-1.5-0.6-1.8l-1.7-4.3c-0.3-0.9-0.7-1.7-1.1-2.5
			c-0.5,0.6-0.9,1.2-1.2,1.9l-3.4,6.7H466.3z"/>
		<path class="st3" d="M524.5,240.3c0.8-1.2,0.9-1.4,1.3-1.4c0.5-0.1,1,0.3,1.1,0.9c0,0,0,0,0,0v0.2c-0.4,1.6-1.9,7.1-2.5,10.1
			c-0.3,1.5-1.2,1.8-2.6,1.9h-33.5c-0.8,0-1-1-1-1.5c0-0.5,0.4-0.9,0.9-1c3.1,0,5.9-1.2,5.9-3v-39.8c0-1.1-1.1-1.9-3.3-2.2
			c-1-0.1-2.5-0.4-3.4-0.4c-0.3-0.1-0.6-0.4-0.5-0.8l0.1-0.8c0-0.4,0.2-0.9,0.7-0.9h0.8c1.6,0,4.1,0.4,7.1,0.4h1.6
			c5.5,0,10-0.6,10.6-0.6s0.8,0.4,0.8,1s-0.3,1.2-0.8,1.3c-2.3,0.4-4.5,1-6.7,1.7c-0.8,0.3-0.8,0.9-0.8,2.2v36.9
			c0,3.4,0.9,3.4,5.2,3.4h15L524.5,240.3z"/>
		<path class="st3" d="M529.9,234.5c0-11.3,6.9-18.7,18.4-18.7c11.1,0,18.5,8.2,18.5,18.8s-7.5,18.7-18.1,18.7
			c-10.3,0-18-7.4-18.8-16.8C529.9,235.8,529.9,235.1,529.9,234.5z M561.7,235.9c0-11.1-5.3-18.3-13.3-18.3
			c-8.6,0-13.6,5.2-13.6,13.9c0,12.7,5.1,19.5,14.7,19.5C557.2,251.1,561.7,245.1,561.7,235.9z"/>
		<path class="st3" d="M576.8,240.2c0,4,0,7.8,0.9,8.9c0.7,0.9,2.4,1.3,3.9,1.3c0.4,0,0.4,0.2,0.5,0.9v0.1c0,0.4-0.2,0.6-0.9,0.6
			h-0.4c-0.9,0-4-0.2-4.7-0.2c-0.3,0-1.3,0-2.8,0c-2,0-2.7,0.1-4.2,0.1c-0.7,0-0.7-0.2-0.7-0.7v-0.3c0-0.3,0-0.5,0.6-0.6
			c1.4-0.3,3.4-0.1,4.2-1.2c1-1.3,1.4-9.5,1.4-11c0-5.8,0.2-12.8,0.2-12.8c-0.1-2-0.7-3.8-1.9-5.4c-0.6-0.6-2.5-1.1-4.5-1.1
			c-0.2,0-0.3-0.3-0.3-0.5v-0.4c0-0.3,0-0.7,0.3-0.7h8.8l15.2,28c1.2-2.3,5.1-10.6,6.1-12.7c3.8-7.9,5.9-12.3,7.4-15.2h8.1
			c0.3,0,0.4,0.4,0.4,0.8s-0.2,1-0.5,1c-0.9,0-2,0.1-2.9,0.1c-0.9,0.3-1.5,1.1-1.4,2v24.6c0,0.9,0.1,2.8,0.7,3.2
			c0.9,0.4,1.8,0.6,2.8,0.7c1.1,0.1,1.6,0.1,1.6,0.5v0.4c0,0.4,0,1.2-0.3,1.2c0,0-5.4-0.3-6.6-0.3c-2.4,0-5.5,0.3-6,0.3
			c-0.9,0-1-0.3-1-0.8V251c0-0.4,0.2-0.5,0.6-0.6l2.5-0.3c0.8-0.2,1.4-0.9,1.4-1.7v-23.8l-13.1,27.4c-0.1,0.3-0.4,0.5-0.7,0.6
			c-0.4,0-0.7-0.2-0.9-0.6l-13.5-25.4L576.8,240.2z"/>
		<path class="st3" d="M646.2,241.8c-0.1,3.4-1.8,6.5-4.7,8.2c-2.6,1.5-5.5,2.2-8.5,2.1h-2.1c-2.2-0.1-3.7-0.2-4.7-0.3
			c-0.8-0.1-1.6-0.1-2.1-0.1h-1.4c-1.1,0-2.2,0.1-3.3,0.3c-0.2,0-0.3,0.1-0.5,0.1c-0.6,0-0.7-0.3-0.7-0.7l0-0.4v-0.2
			c0-0.3,0.1-0.4,0.5-0.5l1.4-0.2c1.3-0.2,3.1-0.5,3.1-3.3v-26.2c0-1.1-1.4-1.6-3.1-1.7l-1-0.1c-0.2,0-0.4-0.5-0.4-0.9
			s0.1-0.8,0.4-0.8h0.5c1.2,0,2.7,0.1,3.6,0.1l3.7-0.1c1.1-0.1,3.7-0.3,5-0.3c7.5,0,12,2.9,12,8c0,3.6-1.8,6.3-5.7,7.8
			C642.9,233.7,646.2,236.9,646.2,241.8z M627.2,232.1c0,0,0.9,0,1.5,0h4.2c3.2,0.1,5.9-2.4,6-5.6c0-0.2,0-0.4,0-0.6
			c-0.1-3.9-3.2-7-7-7.1c-0.4,0-0.8-0.1-1.3-0.1c-1.6,0-3.5,0.2-3.5,1.3v0.6L627.2,232.1z M632.2,250.6c5.5,0,9.1-3,9.1-7.9
			c0-5.4-4.3-8.8-10.5-8.8h-3.7v12.6C627.2,249.6,628.5,250.6,632.2,250.6L632.2,250.6z"/>
		<path class="st3" d="M659.3,236.9l-0.9,1.8c-1.9,3.9-3.4,8.4-3.4,9.8v0.1c0,1.1,0.8,1.8,3.7,2c0.4,0.1,0.5,0.3,0.5,0.5
			c0,0.1,0,0.3-0.1,0.4c-0.2,0.4-0.2,0.8-0.7,0.8c-2.1-0.3-4.2-0.5-6.3-0.5c-1.5,0-3.1,0.1-4.4,0.1l-0.8,0.1c-0.3,0-0.4-0.3-0.4-0.8
			c0-0.7,0.4-0.8,0.8-0.8c1.8-0.1,3.3-1.3,5-4.3c1-1.7,2-4.1,3.2-6.7c0.5-1,8.4-16.4,9.3-18.3c1.3-2.5,2.5-4.6,3-4.6
			s0.7,0.3,1.3,1.4c2,3.6,6.2,13.1,12.2,29.1c1.2,3.1,1.6,3.1,4.4,3.5c0.6,0.1,0.8,0.3,0.8,0.6v0.6c0,0.3-0.1,0.5-0.7,0.5
			c-1.5,0-4-0.4-5.8-0.4c-2.5,0-5.9,0.5-6.8,0.5l0,0c-0.5,0-0.5-0.8-0.5-1.3c0-0.4,1.2-0.5,2.1-0.6s2-0.8,2-1.6
			c-0.1-0.8-0.3-1.6-0.6-2.4l-3.8-9.5H659.3z M671.3,234.1c0,0-0.7-1.9-0.8-2.4l-2.3-5.7c-0.4-1.2-0.9-2.3-1.5-3.3
			c-0.7,0.7-1.2,1.6-1.6,2.5l-4.5,8.9L671.3,234.1z"/>
		<path class="st3" d="M711.3,238.9c1.7,2.1,3.2,4.3,4.7,6.6c1.6,2.6,2.7,3.6,3.9,3.9c0.3,0.1,0.5,0.1,0.8,0.1
			c1.1,0,2.1-0.5,2.9-1.3c0.1-0.1,0.2-0.2,0.3-0.2c0.2,0,0.4,0.2,0.4,0.4c0,0,0,0,0,0v0.1c-0.3,2.1-2.8,3.6-5.1,3.6h-0.2
			c-4-0.2-5.8-2.5-7.6-5.1l-3-4.3c-0.4-0.6-1.4-2-2.9-4.1c-0.7-1.2-1.7-2.2-2.8-3.1c-0.7-0.5-2.2-0.5-4.2-0.5h-0.9v10.4
			c0,3.9,0.1,4.4,2.8,4.6l2.6,0.1c0.4,0,0.5,0.8,0.5,1.3v0.2c0,0.3-0.2,0.4-0.6,0.4s-0.6-0.1-1-0.1l-4.8-0.2
			c-1.7-0.1-5.2-0.1-5.4-0.1c-1.5,0-2.6,0-2.8,0c-0.5,0-0.6-0.3-0.6-0.7s0.3-1,0.6-1h1.5c2.2-0.1,2.3-0.7,2.3-2.4v-25.7
			c0-2.4-1.8-2.7-3.8-2.7h-0.3c-0.9,0-0.9-0.5-0.9-1v-0.1c0-0.5,0.2-0.8,1-0.8h1.9c0,0,2.2,0,3.6,0c1.8,0,3.3-0.3,5-0.4
			c1.1-0.1,2-0.1,3-0.1c7,0,12,3.7,12,8.9c0,4.1-2.1,6.9-7.9,8.6C708.2,235.7,709.8,237.3,711.3,238.9z M700.2,233.6
			c5.7,0,8.9-2.3,8.9-6.9c0-2.6-1.3-4.9-3.6-6.2c-1.6-1-2.9-1.4-6.4-1.4c-0.8,0-1.6,0.3-1.6,2.1v12.4L700.2,233.6z"/>
		<path class="st3" d="M725,218.8v-0.5c0-0.4,0.1-0.7,1.2-0.7c1.7,0,3.7,0.2,5.7,0.3h0.5c1.4,0,2.8-0.2,5-0.2c5.5,0,8,0.5,11.1,1.8
			c6.9,2.9,11,8.5,11,15.1c0,9.4-8.4,17.3-19.2,17.3h-4.1c-2.5,0-3.6-0.2-4.2-0.2h-1.8c-1.4,0-2.8,0.1-4.3,0.3h-0.2
			c-0.6,0-0.7-0.3-0.8-0.7c0-0.1-0.1-0.3-0.1-0.4s0.1-0.4,0.7-0.5c0.9,0,1.9-0.2,2.8-0.6c1-0.9,1.5-2.2,1.4-3.5v-24.6
			c0-1.6-0.7-2.3-2.2-2.4l-2-0.1C725,219.4,725,219.2,725,218.8z M739,250.4c9.7,0,15.5-5.7,15.5-15.2s-6.7-15.8-16.6-15.8
			c-0.9,0-1.8,0.2-2.7,0.6c-1,0.5-1.1,1.6-1.1,7.4v17.4c0,1.2,0,2.3,0.2,3.5C734.5,249.3,736.3,250.4,739,250.4L739,250.4z"/>
		<path class="st3" d="M763.5,251.8c-0.5,0-1,0.1-1.5,0.2h-0.2c-0.4,0-0.6-0.1-0.6-0.6v-0.6c0-0.4,0.3-0.6,0.8-0.6
			c0.8-0.1,1.7-0.2,2.5-0.4c0.9-0.1,1.6-0.5,1.6-1.6v-27.1c0-0.6-0.2-1.2-0.5-1.6c-0.5-0.6-2.5-0.9-3.1-0.9s-0.6-0.1-0.6-0.6v-0.6
			c0-0.4,0.2-0.5,0.5-0.5s0.5,0.1,0.8,0.1c0.9,0,3.9,0.4,5.2,0.4s3.2-0.2,4-0.2c0.5,0,1.3-0.3,2.3-0.3c0.3,0,0.4,0.5,0.4,0.9
			c0,0.2,0,0.5-0.2,0.7c-0.6,0.2-1.3,0.3-1.9,0.3c-0.5,0.1-1.6,0.4-2,1c-0.2,0.5-0.3,1-0.2,1.5v27.8c0,0.9,0.6,0.9,2.2,1
			c0.5,0.1,1.1,0.2,1.6,0.4c0.4,0.1,0.5,0.4,0.5,0.8v0.3c0,0.5,0,0.8-0.5,0.8h-0.2c-0.4-0.1-1-0.3-1.7-0.4c-1.5-0.1-3-0.2-4.5-0.2
			C766.9,251.7,764.9,251.7,763.5,251.8z"/>
		<path class="st3" d="M790.9,236.9l-0.9,1.8c-2,3.9-3.4,8.4-3.4,9.8v0.1c0,1.1,0.8,1.8,3.7,2c0.4,0.1,0.5,0.3,0.5,0.5
			c0,0.1,0,0.3-0.1,0.4c-0.2,0.4-0.2,0.8-0.7,0.8c-2.1-0.3-4.2-0.5-6.3-0.5c-1.5,0-3.1,0.1-4.4,0.1l-0.8,0.1c-0.3,0-0.4-0.3-0.4-0.8
			c0-0.7,0.4-0.8,0.8-0.8c1.8-0.1,3.3-1.3,5-4.3c1-1.7,2-4.1,3.2-6.7c0.5-1,8.4-16.4,9.4-18.3c1.3-2.5,2.5-4.6,3-4.6
			s0.7,0.3,1.3,1.4c1.9,3.6,6.2,13.1,12.2,29.1c1.2,3.1,1.6,3.1,4.4,3.5c0.6,0.1,0.8,0.3,0.8,0.6l0,0.6c0,0.3-0.1,0.5-0.7,0.5
			c-1.5,0-4-0.4-5.8-0.4c-2.5,0-5.9,0.5-6.7,0.5h0c-0.5,0-0.5-0.8-0.5-1.3c0-0.4,1.2-0.5,2.1-0.6s2-0.8,2-1.6
			c-0.1-0.8-0.3-1.6-0.6-2.4l-3.8-9.5H790.9z M802.8,234.1c0,0-0.7-1.9-0.8-2.4l-2.2-5.7c-0.4-1.1-0.9-2.3-1.5-3.3
			c-0.7,0.7-1.2,1.6-1.6,2.5l-4.5,8.9L802.8,234.1z"/>
	</g>
</g>
</svg>
