<?xml version="1.0" encoding="UTF-8" standalone="no"?>
<svg
   xmlns:dc="http://purl.org/dc/elements/1.1/"
   xmlns:cc="http://creativecommons.org/ns#"
   xmlns:rdf="http://www.w3.org/1999/02/22-rdf-syntax-ns#"
   xmlns:svg="http://www.w3.org/2000/svg"
   xmlns="http://www.w3.org/2000/svg"
   xmlns:sodipodi="http://sodipodi.sourceforge.net/DTD/sodipodi-0.dtd"
   xmlns:inkscape="http://www.inkscape.org/namespaces/inkscape"
   inkscape:version="1.0beta2 (2b71d25, 2019-12-03)"
   sodipodi:docname="regione-piemonte.svg"
   id="svg847"
   version="1.1"
   viewBox="0 0 192.756 192.756"
   height="2500"
   width="2500">
  <metadata
     id="metadata853">
    <rdf:RDF>
      <cc:Work
         rdf:about="">
        <dc:format>image/svg+xml</dc:format>
        <dc:type
           rdf:resource="http://purl.org/dc/dcmitype/StillImage" />
      </cc:Work>
    </rdf:RDF>
  </metadata>
  <defs
     id="defs851" />
  <sodipodi:namedview
     inkscape:current-layer="svg847"
     inkscape:window-maximized="0"
     inkscape:window-y="25"
     inkscape:window-x="0"
     inkscape:cy="992.89529"
     inkscape:cx="1149.5231"
     inkscape:zoom="0.16303172"
     showgrid="false"
     id="namedview849"
     inkscape:window-height="711"
     inkscape:window-width="1340"
     inkscape:pageshadow="2"
     inkscape:pageopacity="0"
     guidetolerance="10"
     gridtolerance="10"
     objecttolerance="10"
     borderopacity="1"
     inkscape:document-rotation="0"
     bordercolor="#666666"
     pagecolor="#ffffff" />
  <path
     d="m 70.062,111.336 v 5.701 c 0,1.233 0.109,1.997 0.322,2.298 0.293,0.423 0.735,0.635 1.331,0.635 h 0.6 v 0.535 h -6.713 v -0.535 h 0.59 c 0.663,0 1.137,-0.271 1.421,-0.81 0.154,-0.301 0.231,-1.005 0.231,-2.123 v -12.646 c 0,-1.234 -0.103,-1.998 -0.312,-2.297 -0.299,-0.423 -0.748,-0.636 -1.34,-0.636 h -0.59 v -0.533 h 5.743 c 1.401,0 2.505,0.183 3.314,0.547 0.808,0.357 1.49,0.963 2.045,1.82 0.554,0.856 0.832,1.873 0.832,3.046 0,1.6 -0.424,2.898 -1.271,3.898 -0.839,0.999 -2.027,1.5 -3.568,1.5 -0.377,0 -0.785,-0.032 -1.225,-0.101 -0.438,-0.066 -0.91,-0.164 -1.41,-0.299 z m 0,-0.823 c 0.408,0.098 0.771,0.168 1.086,0.216 0.316,0.05 0.585,0.072 0.809,0.072 0.801,0 1.489,-0.387 2.065,-1.154 0.587,-0.78 0.879,-1.788 0.879,-3.016 a 6.54,6.54 0 0 0 -0.414,-2.356 c -0.278,-0.73 -0.669,-1.275 -1.179,-1.633 a 2.896,2.896 0 0 0 -1.732,-0.547 c -0.394,0 -0.899,0.092 -1.514,0.274 z m 15.606,9.457 v 0.535 h -6.713 v -0.535 h 0.555 c 0.648,0 1.118,-0.234 1.409,-0.709 0.184,-0.307 0.277,-1.049 0.277,-2.224 v -12.646 c 0,-0.992 -0.048,-1.646 -0.151,-1.966 a 1.224,1.224 0 0 0 -0.472,-0.619 1.847,1.847 0 0 0 -1.063,-0.348 h -0.555 v -0.533 h 6.713 v 0.533 h -0.566 c -0.64,0 -1.106,0.235 -1.397,0.708 -0.194,0.309 -0.29,1.049 -0.29,2.225 v 12.646 c 0,0.991 0.05,1.646 0.151,1.965 0.077,0.24 0.237,0.447 0.485,0.621 a 1.8,1.8 0 0 0 1.051,0.347 z m 5.519,-17.976 v 7.738 h 3.443 c 0.893,0 1.491,-0.167 1.789,-0.505 0.4,-0.443 0.625,-1.223 0.67,-2.342 h 0.43 v 6.816 h -0.43 c -0.106,-0.953 -0.213,-1.561 -0.324,-1.831 a 1.636,1.636 0 0 0 -0.68,-0.796 c -0.317,-0.192 -0.802,-0.29 -1.456,-0.29 h -3.443 v 6.454 c 0,0.865 0.032,1.395 0.094,1.59 a 0.896,0.896 0 0 0 0.322,0.445 c 0.155,0.106 0.45,0.16 0.879,0.16 h 2.656 c 0.885,0 1.529,-0.076 1.93,-0.23 0.398,-0.152 0.785,-0.457 1.152,-0.91 0.48,-0.597 0.967,-1.495 1.469,-2.698 h 0.463 l -1.354,4.909 h -12.07 v -0.535 h 0.555 c 0.37,0 0.718,-0.111 1.051,-0.332 0.245,-0.156 0.41,-0.385 0.497,-0.695 0.092,-0.309 0.139,-0.935 0.139,-1.891 v -12.718 c 0,-1.243 -0.101,-2.009 -0.302,-2.299 -0.275,-0.382 -0.738,-0.576 -1.385,-0.576 h -0.555 v -0.533 h 12.07 l 0.176,4.288 h -0.451 c -0.162,-1.03 -0.344,-1.736 -0.543,-2.123 a 1.963,1.963 0 0 0 -0.867,-0.88 c -0.308,-0.146 -0.851,-0.217 -1.627,-0.217 h -4.298 z m 19.186,18.511 -6.051,-16.478 v 13.084 c 0,1.201 0.102,1.953 0.312,2.25 0.283,0.406 0.736,0.608 1.35,0.608 h 0.555 v 0.535 h -5.451 v -0.535 h 0.555 c 0.662,0 1.131,-0.252 1.408,-0.751 0.17,-0.311 0.252,-1.011 0.252,-2.107 v -12.793 c 0,-0.868 -0.074,-1.492 -0.229,-1.877 -0.109,-0.28 -0.311,-0.511 -0.6,-0.695 -0.287,-0.192 -0.748,-0.287 -1.387,-0.287 v -0.533 h 4.438 l 5.68,15.319 5.594,-15.319 h 4.432 v 0.533 h -0.541 c -0.672,0 -1.143,0.251 -1.422,0.752 -0.17,0.309 -0.256,1.011 -0.256,2.107 v 12.793 c 0,1.201 0.109,1.953 0.324,2.25 0.285,0.406 0.738,0.608 1.354,0.608 h 0.541 v 0.535 h -6.652 v -0.535 h 0.557 c 0.668,0 1.139,-0.252 1.406,-0.751 0.17,-0.311 0.252,-1.011 0.258,-2.107 v -13.084 l -6.045,16.478 z m 20.006,-20.026 c 2.031,0 3.793,0.967 5.281,2.901 1.488,1.924 2.24,4.332 2.24,7.221 0,2.971 -0.752,5.44 -2.254,7.407 -1.502,1.962 -3.318,2.942 -5.453,2.942 -2.156,0 -3.969,-0.96 -5.439,-2.872 -1.463,-1.915 -2.195,-4.395 -2.195,-7.438 0,-3.105 0.848,-5.644 2.543,-7.607 1.47,-1.706 3.23,-2.554 5.277,-2.554 z m -0.219,1.054 c -1.402,0 -2.527,0.647 -3.375,1.946 -1.051,1.618 -1.578,3.987 -1.578,7.104 0,3.196 0.545,5.656 1.639,7.379 0.838,1.311 1.945,1.962 3.326,1.962 1.469,0 2.684,-0.714 3.637,-2.148 0.963,-1.436 1.445,-3.697 1.445,-6.786 0,-3.35 -0.527,-5.85 -1.58,-7.493 -0.85,-1.31 -2.022,-1.964 -3.514,-1.964 z m 8.34,-0.607 h 4.25 l 9.574,14.683 v -11.29 c 0,-1.203 -0.105,-1.953 -0.324,-2.254 -0.281,-0.404 -0.734,-0.605 -1.35,-0.605 h -0.543 v -0.533 h 5.453 v 0.533 h -0.555 c -0.664,0 -1.131,0.251 -1.41,0.752 -0.17,0.309 -0.254,1.011 -0.254,2.107 v 16.502 h -0.418 l -10.322,-15.767 v 12.058 c 0,1.201 0.102,1.953 0.309,2.25 0.295,0.406 0.742,0.608 1.354,0.608 h 0.555 v 0.535 h -5.453 v -0.535 h 0.545 c 0.668,0 1.143,-0.252 1.42,-0.751 0.166,-0.311 0.254,-1.011 0.254,-2.107 v -13.615 c -0.455,-0.667 -0.803,-1.103 -1.041,-1.315 -0.23,-0.211 -0.574,-0.408 -1.027,-0.593 -0.225,-0.085 -0.561,-0.129 -1.016,-0.129 v -0.534 z m 31.084,0 0.17,4.591 h -0.436 c -0.088,-0.81 -0.201,-1.387 -0.35,-1.732 -0.236,-0.559 -0.559,-0.97 -0.957,-1.227 -0.395,-0.271 -0.914,-0.405 -1.559,-0.405 h -2.207 v 14.959 c 0,1.201 0.104,1.953 0.312,2.25 0.291,0.406 0.744,0.608 1.35,0.608 h 0.545 v 0.535 h -6.645 v -0.535 h 0.557 c 0.662,0 1.131,-0.252 1.408,-0.751 0.17,-0.311 0.256,-1.011 0.256,-2.107 v -14.959 h -1.885 c -0.732,0 -1.25,0.066 -1.559,0.201 -0.4,0.185 -0.742,0.537 -1.027,1.058 -0.287,0.518 -0.457,1.22 -0.51,2.105 h -0.438 l 0.186,-4.591 z m 5.701,1.068 v 7.738 h 3.447 c 0.889,0 1.486,-0.167 1.787,-0.505 0.398,-0.443 0.627,-1.223 0.67,-2.342 h 0.428 v 6.816 h -0.428 c -0.107,-0.953 -0.213,-1.561 -0.324,-1.831 a 1.61,1.61 0 0 0 -0.682,-0.796 c -0.312,-0.192 -0.799,-0.29 -1.451,-0.29 h -3.447 v 6.454 c 0,0.865 0.031,1.395 0.094,1.59 a 0.904,0.904 0 0 0 0.326,0.445 c 0.154,0.106 0.445,0.16 0.877,0.16 h 2.656 c 0.889,0 1.529,-0.076 1.93,-0.23 0.398,-0.152 0.783,-0.457 1.154,-0.91 0.479,-0.597 0.967,-1.495 1.465,-2.698 h 0.465 l -1.35,4.909 H 170.83 v -0.535 h 0.553 c 0.371,0 0.721,-0.111 1.053,-0.332 a 1.15,1.15 0 0 0 0.498,-0.695 c 0.09,-0.309 0.137,-0.935 0.137,-1.891 v -12.718 c 0,-1.243 -0.1,-2.009 -0.299,-2.299 -0.279,-0.382 -0.742,-0.576 -1.389,-0.576 h -0.553 v -0.533 h 12.072 l 0.17,4.288 h -0.449 c -0.162,-1.03 -0.344,-1.736 -0.543,-2.123 a 1.943,1.943 0 0 0 -0.867,-0.88 c -0.309,-0.146 -0.852,-0.217 -1.629,-0.217 h -4.299 z M 83.63,95.192 h -4.817 l -6.11,-10.548 c -0.452,0.025 -0.82,0.034 -1.104,0.034 h -0.373 c -0.133,-0.009 -0.27,-0.022 -0.412,-0.034 v 6.555 c 0,1.42 0.125,2.303 0.373,2.647 0.337,0.486 0.842,0.731 1.516,0.731 h 0.707 v 0.614 h -7.733 v -0.614 h 0.68 c 0.763,0 1.31,-0.312 1.638,-0.933 0.185,-0.344 0.278,-1.159 0.278,-2.446 V 76.627 c 0,-1.418 -0.125,-2.301 -0.371,-2.646 -0.347,-0.487 -0.86,-0.731 -1.544,-0.731 h -0.68 v -0.614 h 6.574 c 1.918,0 3.328,0.175 4.233,0.531 0.914,0.344 1.686,0.988 2.314,1.931 0.64,0.932 0.96,2.045 0.96,3.343 0,1.387 -0.364,2.59 -1.092,3.608 -0.719,1.022 -1.836,1.745 -3.354,2.166 l 3.726,6.469 c 0.854,1.487 1.585,2.475 2.196,2.962 0.613,0.488 1.412,0.799 2.396,0.933 v 0.613 z M 70.814,83.597 c 0.17,0 0.314,0.005 0.44,0.017 h 0.305 c 1.72,0 3.016,-0.467 3.887,-1.396 0.879,-0.932 1.316,-2.12 1.316,-3.562 0,-1.407 -0.354,-2.55 -1.063,-3.426 -0.703,-0.886 -1.634,-1.331 -2.794,-1.331 -0.516,0 -1.213,0.104 -2.09,0.315 v 9.383 z m 18.274,-9.732 v 8.918 h 3.966 c 1.028,0 1.715,-0.195 2.061,-0.583 0.463,-0.509 0.72,-1.41 0.773,-2.694 h 0.494 v 7.852 h -0.494 c -0.125,-1.099 -0.247,-1.803 -0.372,-2.113 a 1.905,1.905 0 0 0 -0.785,-0.916 c -0.365,-0.22 -0.923,-0.332 -1.677,-0.332 h -3.966 v 7.438 c 0,0.997 0.034,1.606 0.106,1.828 0.069,0.21 0.195,0.383 0.373,0.516 0.178,0.123 0.514,0.184 1.011,0.184 h 3.061 c 1.022,0 1.762,-0.089 2.223,-0.266 0.461,-0.178 0.904,-0.527 1.332,-1.049 0.549,-0.688 1.111,-1.725 1.691,-3.111 h 0.531 l -1.557,5.656 h -13.91 v -0.614 h 0.64 a 2.14,2.14 0 0 0 1.213,-0.383 c 0.283,-0.178 0.474,-0.444 0.571,-0.799 0.107,-0.356 0.16,-1.081 0.16,-2.18 V 76.56 c 0,-1.43 -0.115,-2.31 -0.346,-2.645 -0.321,-0.444 -0.854,-0.665 -1.598,-0.665 h -0.64 V 72.636 H 97.86 l 0.201,4.939 H 97.54 C 97.352,76.39 97.145,75.572 96.914,75.13 a 2.27,2.27 0 0 0 -0.998,-1.014 c -0.354,-0.167 -0.98,-0.25 -1.876,-0.25 h -4.952 z m 27.682,-1.747 0.469,7.121 h -0.469 c -0.471,-1.774 -1.076,-3.111 -1.822,-4.01 -1.076,-1.295 -2.453,-1.945 -4.139,-1.945 -2.297,0 -4.047,1.136 -5.244,3.408 -1,1.919 -1.506,4.204 -1.506,6.855 0,2.151 0.334,4.116 0.998,5.889 0.668,1.774 1.535,3.078 2.609,3.909 1.082,0.823 2.191,1.233 3.33,1.233 0.662,0 1.307,-0.105 1.93,-0.316 a 6.977,6.977 0 0 0 1.795,-0.932 v -6.523 c 0,-1.131 -0.07,-1.869 -0.213,-2.211 a 1.55,1.55 0 0 0 -0.641,-0.8 c -0.281,-0.188 -0.787,-0.282 -1.516,-0.282 v -0.632 h 6.986 v 0.632 h -0.33 c -0.693,0 -1.17,0.289 -1.426,0.866 -0.178,0.412 -0.266,1.219 -0.266,2.427 v 6.906 c -1.02,0.688 -2.025,1.193 -3.021,1.514 -0.994,0.321 -2.096,0.482 -3.314,0.482 -3.484,0 -6.133,-1.399 -7.943,-4.193 -1.357,-2.096 -2.039,-4.512 -2.039,-7.251 0,-1.988 0.383,-3.888 1.145,-5.706 0.904,-2.165 2.148,-3.829 3.73,-4.993 1.318,-0.964 2.879,-1.447 4.684,-1.447 0.656,0 1.248,0.066 1.781,0.201 0.543,0.132 1.303,0.424 2.287,0.882 0.498,0.23 0.832,0.349 1,0.349 0.17,0 0.311,-0.094 0.428,-0.285 0.123,-0.198 0.199,-0.581 0.225,-1.147 h 0.492 z m 11.365,22.46 v 0.614 h -7.729 v -0.614 h 0.637 c 0.746,0 1.287,-0.272 1.625,-0.815 0.211,-0.355 0.316,-1.208 0.316,-2.564 V 76.627 c 0,-1.144 -0.057,-1.895 -0.172,-2.263 -0.092,-0.278 -0.271,-0.514 -0.545,-0.716 a 2.144,2.144 0 0 0 -1.225,-0.398 h -0.637 v -0.614 h 7.729 v 0.614 h -0.652 c -0.734,0 -1.27,0.271 -1.609,0.815 -0.223,0.355 -0.332,1.209 -0.332,2.562 v 14.572 c 0,1.143 0.059,1.896 0.174,2.264 0.086,0.277 0.273,0.516 0.557,0.715 0.385,0.266 0.785,0.4 1.211,0.4 z m 10.636,-22.46 c 2.34,0 4.369,1.115 6.082,3.346 1.719,2.216 2.582,4.989 2.582,8.317 0,3.426 -0.867,6.271 -2.598,8.535 -1.727,2.262 -3.824,3.393 -6.281,3.393 -2.482,0 -4.574,-1.105 -6.268,-3.311 -1.688,-2.207 -2.529,-5.064 -2.529,-8.567 0,-3.583 0.977,-6.504 2.928,-8.767 1.696,-1.964 3.725,-2.946 6.084,-2.946 z m -0.253,1.215 c -1.617,0 -2.91,0.747 -3.887,2.247 -1.217,1.862 -1.824,4.591 -1.824,8.183 0,3.684 0.629,6.517 1.891,8.502 0.967,1.509 2.244,2.262 3.832,2.262 1.697,0 3.094,-0.827 4.195,-2.48 1.107,-1.65 1.66,-4.257 1.664,-7.818 0,-3.859 -0.607,-6.737 -1.824,-8.634 -0.977,-1.509 -2.327,-2.262 -4.047,-2.262 z m 9.609,-0.697 h 4.898 l 11.033,16.916 V 76.544 c 0,-1.388 -0.125,-2.25 -0.373,-2.596 -0.328,-0.467 -0.848,-0.698 -1.559,-0.698 h -0.625 v -0.614 h 6.281 v 0.614 h -0.637 c -0.766,0 -1.305,0.289 -1.625,0.866 -0.195,0.355 -0.295,1.164 -0.295,2.429 v 19.016 h -0.479 L 152.85,77.392 v 13.892 c 0,1.388 0.121,2.25 0.361,2.595 0.336,0.465 0.855,0.699 1.557,0.699 h 0.639 v 0.614 h -6.283 v -0.614 h 0.627 c 0.773,0 1.32,-0.289 1.637,-0.866 0.195,-0.355 0.291,-1.164 0.295,-2.429 V 75.595 c -0.525,-0.766 -0.926,-1.269 -1.199,-1.515 -0.266,-0.244 -0.66,-0.47 -1.186,-0.681 -0.254,-0.1 -0.648,-0.149 -1.17,-0.149 v -0.614 z m 25.74,1.229 v 8.918 h 3.967 c 1.027,0 1.717,-0.195 2.061,-0.583 0.463,-0.509 0.719,-1.41 0.771,-2.694 h 0.494 v 7.852 h -0.494 c -0.123,-1.099 -0.248,-1.803 -0.371,-2.113 a 1.885,1.885 0 0 0 -0.785,-0.916 c -0.363,-0.22 -0.926,-0.332 -1.676,-0.332 h -3.967 v 7.438 c 0,0.997 0.035,1.606 0.107,1.828 0.068,0.21 0.195,0.383 0.371,0.516 0.178,0.123 0.516,0.184 1.012,0.184 h 3.062 c 1.018,0 1.76,-0.089 2.221,-0.266 0.461,-0.178 0.904,-0.527 1.334,-1.049 0.547,-0.688 1.111,-1.725 1.688,-3.111 h 0.533 l -1.559,5.656 H 168.73 v -0.614 h 0.637 a 2.15,2.15 0 0 0 1.213,-0.383 c 0.283,-0.178 0.475,-0.444 0.57,-0.799 0.109,-0.356 0.162,-1.081 0.162,-2.18 V 76.56 c 0,-1.43 -0.117,-2.31 -0.348,-2.645 -0.32,-0.444 -0.852,-0.665 -1.598,-0.665 h -0.637 v -0.614 h 13.906 l 0.201,4.939 h -0.521 C 182.129,76.39 181.92,75.572 181.69,75.13 a 2.28,2.28 0 0 0 -0.998,-1.014 c -0.355,-0.167 -0.98,-0.25 -1.873,-0.25 h -4.952 z"
     id="path835"
     inkscape:connector-curvature="0"
     style="clip-rule:evenodd;fill-rule:evenodd" />
  <path
     fill="#b0b2b4"
     d="m 8.504,70.147 h 53.129 v 52.461 H 8.504 Z"
     id="path837"
     inkscape:connector-curvature="0"
     style="clip-rule:evenodd;fill-rule:evenodd" />
  <path
     fill="#cc2229"
     d="M 41.591,103.065 H 59.097 V 120.13 H 41.591 Z m -30.475,0 H 28.622 V 120.13 H 11.116 Z m 0,-30.231 H 28.622 V 89.896 H 11.116 Z m 30.455,0 H 59.078 V 89.896 H 41.571 Z"
     id="path839"
     inkscape:connector-curvature="0"
     style="clip-rule:evenodd;fill-rule:evenodd" />
  <path
     fill="#377bbf"
     d="m 21.842,75.819 h 26.62 l 1.612,5.054 H 45.183 L 46.017,78.54 H 24.175 l 0.833,2.28 h -4.945 z"
     id="path841"
     inkscape:connector-curvature="0"
     style="clip-rule:evenodd;fill-rule:evenodd" />
  <path
     fill="#377bbf"
     d="m 33.513,78.652 -0.778,2.185 h 4.778 l -0.832,-2.241 z"
     id="path843"
     inkscape:connector-curvature="0"
     style="clip-rule:evenodd;fill-rule:evenodd" />
</svg>
